<svg id="Layer_1" xmlns="http://www.w3.org/2000/svg" viewBox="-81 173 448 448"><style>.st0{fill:#f0f0f0}.st1{fill:#ff4b33}.st2{opacity:.7;enable-background:new}</style><path class="st0" d="M-81 173h448v448H-81z"/><path class="st1" d="M154.3 527c12.6-.2 21.8-2.4 28.4-6.7s9.8-12 9.8-23.2v-11.9c17.6-2.5 31.9-9.1 43.1-19.8 6.3-6.3 11.5-13.5 15.4-21.6 4-8.2 6.3-17.2 7-26.4h-42.6c-1 9.6-4.8 17.9-11.5 24.3-6.6 6.4-15.7 9.6-27.1 9.6-7.3 0-13.9-1.5-19.8-4.6-5.9-3-10.9-7.2-14.9-12.6-4.1-5.4-7.2-11.7-9.5-19.1-2.2-7.4-3.4-15.5-3.4-24.2s1-16.8 3-24.2 4.9-13.8 8.8-19.3c3.9-5.4 8.8-9.7 14.7-12.7s12.8-4.6 20.8-4.6c10.5 0 19 2.8 25.5 8.5 6.6 5.7 10.5 13.3 11.8 22h42.3c-1.2-10.4-4.1-20.4-8.8-29.1-4.7-8.7-11.3-16.1-19.8-22.2-6.3-4.8-13.8-8.4-22.4-10.7-8.6-2.4-18.1-3.6-28.4-3.6-13.8 0-26.3 2.4-37.5 7.3s-20.7 11.6-28.6 20.1c-7.9 8.6-14 18.7-18.3 30.4-4.3 11.7-6.5 24.4-6.5 38 0 11.9 1.6 22.9 4.9 33.2 3.2 10.3 7.9 19.5 13.9 27.5 6.1 8.1 13.3 14.9 21.8 20.4s18.3 9.4 28.8 11.7v18.4h16.3c0 3.8-1.5 6.9-4.5 8.7-3 1.7-7 2.8-12.8 3.1V527h.1z"/><path class="st2" d="M156.4 417.5c-1 9.6-4.8 17.9-11.5 24.3-6.6 6.4-15.7 9.6-27.1 9.6-7.3 0-13.9-1.5-19.8-4.6-5.9-3-10.9-7.2-14.9-12.6-4.1-5.4-7.2-11.7-9.5-19.1-2.2-7.4-3.4-15.5-3.4-24.2s1-16.8 3-24.2 4.9-13.8 8.8-19.3c3.9-5.4 8.8-9.7 14.7-12.7s12.8-4.6 20.8-4.6c10.5 0 19 2.8 25.5 8.5 6.6 5.7 10.5 13.3 11.8 22h42.3c-1.2-10.4-4.1-20.4-8.8-29.1-4.7-8.7-11.3-16.1-19.8-22.2-6.3-4.8-13.8-8.4-22.4-10.7-8.6-2.4-18.1-3.6-28.4-3.6-13.8 0-26.3 2.4-37.5 7.3s-20.7 11.6-28.6 20.1c-7.9 8.6-14 18.7-18.3 30.4-4.3 11.7-6.5 24.4-6.5 38 0 13.7 2.2 26.4 6.6 38 4.4 11.7 10.6 21.8 18.5 30.3 8 8.5 17.5 15.1 28.7 19.9 9.3 4 19.3 6.3 30.2 6.9l-13.9 15.6 4.7 5.6c3.2-1.1 6.7-1.6 10.4-1.6 2.9 0 5.3.5 7.1 1.5s2.6 3 2.3 5.9c-.3 2.8-1.5 4.8-3.5 6.1-2 1.2-4.6 1.9-7.7 1.9-4.4 0-8.4-.4-11.9-1.3s-6.5-1.8-9.2-2.9l-6.7 11.2c2.3.8 4.5 1.5 6.6 2.1s4.2 1.2 6.5 1.6c2.3.5 4.8.8 7.7 1 2.9.2 6.4.3 10.5.3 3.8 0 7.5-.3 11.1-1 3.7-.7 7-1.9 10-3.7 3-1.8 5.6-4.2 7.6-7.2 2.1-3 3.3-6.8 3.9-11.3.3-2.8-.1-5.2-1.2-7.3-1.1-2.1-2.7-3.8-4.8-5.1-2.1-1.3-4.5-2.3-7.2-2.9s-5.6-.9-8.5-.9c-3.8 0-6.7.4-8.9 1.2h-.5l7.6-8.4-.5-.1c10.9-.4 20.5-2.1 28.9-5.1 9.6-3.5 17.9-8.6 24.9-15.6 6.3-6.3 11.5-13.5 15.4-21.6 4-8.2 6.3-17.2 7-26.4h-42.1z"/></svg>