<svg id="Layer_1" xmlns="http://www.w3.org/2000/svg" xmlns:xlink="http://www.w3.org/1999/xlink" viewBox="0 0 448 448"><style>.st0{fill-rule:evenodd;clip-rule:evenodd;fill:#2cc3d8}.st1,.st2{stroke:#15a7c5;stroke-width:2;stroke-linecap:round;stroke-linejoin:round;stroke-miterlimit:10}.st1{fill:none}.st2{clip-path:url(#SVGID_2_)}.st2,.st3,.st4{fill:none}.st4{clip-path:url(#SVGID_4_);stroke:#15a7c5;stroke-width:2;stroke-linecap:round;stroke-linejoin:round;stroke-miterlimit:10}.st5{clip-path:url(#SVGID_6_)}.st6,.st7{fill:none;stroke-width:2;stroke-linecap:round;stroke-linejoin:round;stroke-miterlimit:10}.st6{display:none;stroke:#1bc3da}.st7{clip-path:url(#SVGID_8_);stroke:#15a7c5}.st8{clip-path:url(#SVGID_10_)}.st9{opacity:.4;stroke-linejoin:round}.st10,.st9{fill:none;stroke:#15a7c5;stroke-width:2;stroke-linecap:round;stroke-miterlimit:10}.st11{fill:#1d1d1d}.st12{fill:#fff}</style><path class="st0" d="M0 0h448v448H0V0z"/><g id="_x32__1_"><path class="st1" d="M357.2 251.6l-109.3-32.3c-4.3-1.3-6.8-5.8-5.5-10.1l32.3-109.3c1.3-4.3 5.8-6.8 10.1-5.5l109.3 32.3c4.3 1.3 6.8 5.8 5.5 10.1l-32.3 109.3c-1.2 4.3-5.8 6.7-10.1 5.5z"/><path class="st1" d="M341.4 167.1s-1.3 4.3-4.6 15.4c-3.7 12.6-16.9 19.8-29.4 16.1-12.5-3.7-19.6-16.9-15.9-29.5 2-6.6 3.5-12 3.5-12"/><path class="st1" d="M276.8 190.4s6.8-23.1 11.8-39.9 22.6-26.4 39.4-21.4c16.8 5 26.4 22.6 21.5 39.4-3.2 10.8-13.2 44.6-13.2 44.6"/><path class="st1" d="M322.9 183.8c-1.4 4.7-7.1 7.2-12.7 5.6-5.6-1.7-9-6.8-7.6-11.6 8.6 2.5 13.8 4 20.3 6zM300.9 167c.6-2.2 3.1-3.3 5.6-2.6 2.4.7 3.9 3.1 3.3 5.2M321.5 173.1c.6-2.2 3.1-3.3 5.6-2.6 2.4.7 3.9 3.1 3.3 5.2M314.7 140.7c0 10.6 9 21.1 22.4 25.1 2 .6 3.1.9 4.3 1.3M313 200l-3.1 10.8M298.9 207.6l3.2-10.8"/><defs><path id="SVGID_1_" transform="rotate(16.474 305.568 154.78)" d="M296.2 144.2h18.7v21.2h-18.7z"/></defs><clipPath id="SVGID_2_"><use xlink:href="#SVGID_1_" overflow="visible"/></clipPath><path class="st2" d="M316.7 150c-6.2 6.5-16.8 9.2-27.2 6.2"/><path class="st1" d="M320 216.6c-3-2.3-6.4-4.3-10.2-5.9"/><path transform="rotate(16.474 338.564 226.93)" class="st3" d="M314.6 208.6h48v36.6h-48z"/><path class="st1" d="M270.4 214.9c-8.1-1.4-10.9-6.6-12.1-11.5 8 1.1 15.8-3.8 18.2-11.8.7-2.4 1.3-4.5 2-6.6"/><g><defs><path id="SVGID_3_" transform="rotate(16.474 305.193 207.726)" d="M256.8 180.5h96.9v54.6h-96.9z"/></defs><clipPath id="SVGID_4_"><use xlink:href="#SVGID_3_" overflow="visible"/></clipPath><path class="st4" d="M299.1 207.6c-17.6-2.6-34.5 7.2-39.4 23.6-5.4 18.1 6 37.5 25.4 43.2 19.4 5.7 39.5-4.3 44.8-22.4.2-.7.4-1.5.6-2.3"/></g><g><defs><path id="SVGID_5_" transform="rotate(16.474 338.432 227.105)" d="M313.3 209h50.4v36.2h-50.4z"/></defs><clipPath id="SVGID_6_"><use xlink:href="#SVGID_5_" overflow="visible"/></clipPath><g class="st5"><path class="st1" d="M358.8 231.9s-1.8 6-5 17.1c-3.3 11.1-14.9 17.4-25.8 14.2-11-3.3-17.3-14.9-14-26 2.1-7.2 5-17.1 5-17.1"/><path class="st6" d="M322.4 234.5c.5-1.7 2.5-2.7 4.5-2.1 2 .6 3.1 2.4 2.6 4.2M341 240c.5-1.7 2.5-2.7 4.5-2.1 2 .6 3.1 2.4 2.6 4.2M323.8 245.1c-.7 2.5.6 5.1 3 5.8s4.9-.7 5.7-3.2"/><path class="st6" d="M332.5 247.7c-.7 2.5.6 5.1 3 5.8s4.9-.7 5.7-3.2"/><circle class="st6" cx="333" cy="245.8" r="2"/><path class="st1" d="M318.9 220.3l3.8-12.9 1.8-.3 6.1 14.1M358.7 232.1l3.9-12.9-1.4-1.3-12.7 8.6"/><defs><path id="SVGID_7_" transform="rotate(16.474 340.333 221.065)" d="M331 217.4h18.7v7.4H331z"/></defs><clipPath id="SVGID_8_"><use xlink:href="#SVGID_7_" overflow="visible"/></clipPath><path class="st7" d="M354.5 246.5c3.1-10.3-3.4-21.4-14.4-24.6s-22.4 2.5-25.5 12.9"/></g></g></g><path class="st1" d="M329.9 364.8c-3.4 5.2-15.9 5.9-29.2-.3-13.4-6.2-18.6-15.9-19.2-22.1 10.9 5 38.7 17.9 48.4 22.4zM314.8 357.4l20.7-44.8"/><path class="st1" d="M314.1 357.5c-2.6-7.5-2.3-16.3 1.5-24.4 3.7-8 10-13.8 17.3-16.8-15.4-4.8-32.2 2.3-39 17.1-2 4.3-2.9 8.9-2.9 13.4l23.1 10.7z"/><path class="st1" d="M335.8 411.1l-93.1-41.7c-4-1.8-5.8-6.5-4-10.6l41.7-93.1c1.8-4 6.5-5.8 10.6-4l93.1 41.7c4 1.8 5.8 6.5 4 10.6l-41.7 93.1c-1.8 4-6.6 5.8-10.6 4z"/><g><path class="st1" d="M225.5 348.1L84.6 387.6c-5.5 1.5-11.3-1.7-12.9-7.2L32.5 240.2c-1.5-5.5 1.7-11.3 7.2-12.9l140.9-39.5c5.5-1.5 11.3 1.7 12.9 7.2l39.3 140.2c1.5 5.6-1.8 11.4-7.3 12.9zM58.1 328.8l159.5-44.7M54.8 318.7L214.3 274"/><path class="st1" d="M111.8 342.9l-7.6-27.1 8.7-2.4 7.6 27.1M195.2 319.6l-7.6-27.1 8.8-2.5 7.6 27.1"/><defs><path id="SVGID_9_" d="M225.5 348.1L84.6 387.6c-5.5 1.5-11.3-1.7-12.9-7.2L32.5 240.2c-1.5-5.5 1.7-11.3 7.2-12.9l140.9-39.5c5.5-1.5 11.3 1.7 12.9 7.2l39.3 140.2c1.5 5.6-1.8 11.4-7.3 12.9z"/></defs><clipPath id="SVGID_10_"><use xlink:href="#SVGID_9_" overflow="visible"/></clipPath><g class="st8"><path class="st1" d="M169.8 212.2c5.7 20.2-8.4 41.8-31.5 48.3-23 6.5-46.3-4.7-52-24.9M86.4 235.6l19.1 68M107.9 259l11.4 40.8M138.4 260.4l8.8 31.6M151.7 254.4l9.4 33.7M163.5 243.2l11.5 41M123.9 262.3l9.4 33.5M169.8 212.2l19.1 68.1"/><g><path class="st1" d="M86.4 235.6c5.7 20.2-8.4 41.8-31.5 48.3-23 6.5-46.3-4.7-52-24.9M3 258.9L22.1 327"/><path class="st9" d="M24.5 282.3l11.4 40.8"/><path class="st1" d="M54.9 283.8l8.9 31.5M68.2 277.8l9.5 33.6M80.1 266.5l11.5 41"/><path class="st9" d="M40.5 285.7l9.4 33.5"/><path class="st1" d="M86.4 235.6l19.1 68"/></g><g><path class="st1" d="M253.3 188.8c5.7 20.2-8.4 41.8-31.5 48.3-23 6.5-46.3-4.7-52-24.9M169.8 212.2l19.1 68.1M191.3 235.6l11.4 40.8"/><path class="st9" d="M221.8 237.1l8.8 31.5M235.1 231l9.4 33.7M247 219.8l11.4 41M207.3 238.9l9.4 33.6"/><path class="st1" d="M253.3 188.8l19 68.1"/></g></g><use xlink:href="#SVGID_9_" overflow="visible" fill="none" stroke="#15a7c5" stroke-miterlimit="10"/><g><path class="st1" d="M205.8 312.6c-4.9 1.4-5.5-4.7-11.4-3-2.9.8-4.6 7.5-8.1 8.5-3.1.9-8.1-4-11.4-3-3.3.9-5 7.6-8.1 8.5-3.6 1-8.5-3.8-11.4-3-5.7 1.6-8 8.5-8.1 8.5"/></g><g><path class="st1" d="M156.3 352.5c-4.9 1.4-5.5-4.7-11.4-3-2.9.8-4.6 7.5-8.1 8.5-3.1.9-8.1-4-11.4-3-3.3.9-5 7.6-8.1 8.5-3.6 1-8.5-3.8-11.4-3-5.7 1.6-8 8.5-8.1 8.5"/></g></g><g id="_x31__1_"><path class="st10" d="M204.9 153.6l-102 16.3c-4 .6-7.8-2.1-8.5-6.1l-16.3-102c-.6-4 2.1-7.8 6.1-8.5l102-16.3c4-.6 7.8 2.1 8.5 6.1l16.3 102c.6 4.1-2.1 7.9-6.1 8.5zM136.1 104.8c-.2-11.5 5.9-21.6 15.2-24.6"/><path class="st10" d="M132.1 109.9c-2-12.7 2.9-24.7 11.6-30.8-5.6-8.5-14.9-13.5-24.4-12-13.7 2.2-22.7 16.9-20.2 32.8 2.5 15.9 15.7 27 29.4 24.8 2.8-.4 5.4-1.4 7.8-2.8-2-3.6-3.5-7.6-4.2-12zM104.5 85.9c1.5-4.6 4.2-8.6 7.8-11.2M103.2 92.9c.1-1.3.2-2.6.5-3.8M167.9 142.3l-7.3 1.2 1.2-6.9 2.9-.5zM164.3 142.9c.9 5.5-1.3 10.8-.4 16.5"/><path class="st10" d="M132.2 129.3l-5.8 1 .6-5.4 3-.4zM129.4 130.5c.9 5.5 7 15.5 7.9 21.2"/><ellipse transform="rotate(-9.069 158.364 105.726)" class="st10" cx="158.4" cy="105.7" rx="26.6" ry="31"/></g><g><path class="st11" d="M304 257.7v-4.5c0-5.9-4.6-11.2-10.5-11.2h-137c-5.9 0-10.5 5.3-10.5 11.2v4.5h41.5c0 25.5-3.1 45.3-5.8 64.9v.7c.7 4.4 4.7 7.6 14.6 9.7 7.8 1.7 18.9 3 28.7 3s20.9-1.3 28.7-3c9.9-2.1 13.9-5.4 14.6-9.7v-.7c-2.8-19.6-5.8-39.5-5.8-64.9H304z"/><path class="st12" d="M189.7 215.5C167.8 156 194.3 113 194.3 113l23.6 64.2c-2.9 7.7-5.4 16-7.2 25.3-2.3 11.7-3.1 22.6-2.8 32.5h-9.5c-3.1-5.9-6.1-12.4-8.7-19.5zm60.5 19.5L277 116.8s-45.5 23.5-57.9 87.2c-2.2 11.2-2.9 21.5-2.7 31h33.8z"/></g></svg>