<svg id="Layer_1" xmlns="http://www.w3.org/2000/svg" viewBox="-124.6 327 199.1 140"><style>.st0{fill:#000}</style><path class="st0" d="M-15.6 395.9s-2-1.2-3.1-1.6c0 0-3.7-1.7-4.5-2.5 0 0-1.5-1.4-.6-3 0 0 .4-1 1.9-1 0 0 2 .1 2 1.7v2.4h7.1v-3.4s.5-5.6-8.4-5.8c0 0-7.1-.5-9.1 3.4 0 0-.7.9-.7 3.7v2.1s-.1 2.5 1.1 4c0 0 .7 1 2.5 2.2 0 0 3.6 1.9 5.7 3 0 0 2.1 1.2 1.9 3.2 0 0-.1 2-2.2 1.9 0 0-1.9-.1-1.9-2v-2.4h-7.6v3.4s-.2 6.5 9.6 6.5c0 0 9.3.2 9.8-6.6v-2.7c-.1-.2.1-4.3-3.5-6.5zM-52 383.5l-2.3 14.9h-.7l-2.2-14.8h-11.9l-.7 27.1h7.1v-20.5h.6l3.8 20.5h7.4l3.6-20.5h.5l.3 20.5h7.1l-.8-27.2zM-94 383.5l-4.7 27h7.6l2.8-21h.7l2.7 21h7.6l-4.7-27zM65.1 395.5v4h2v4.2c0 2.1-1.7 2.1-1.7 2.1-2.2 0-2.1-2-2.1-2V389c0-1.5 2-1.6 2-1.6 1.9 0 1.9 1.9 1.9 1.9v2.2h7.1c.2-4.3-.6-5.5-.6-5.5-1.7-4-8.4-3.7-8.4-3.7-10.3 0-9.2 7.9-9.2 7.9v14.3c.2 7.5 10.3 6.7 10.6 6.7 4.5-.5 5.8-2 5.8-2 1.2-1 1.6-2.2 1.6-2.2.4-.7.5-3.1.5-3.1v-8.4h-9.5zM41.5 400h-.3L34 383.5h-8.7v27.2h7l-.5-16.7h.4l7.5 16.7h8.4v-27.2H41zM8 403.8s.1 2.2-2 2.2c0 0-2.2.1-2.2-2.2v-20.5h-7.7v20.2s-.7 7.7 10.1 7.7c0 0 9.4.1 9.4-7.3v-20.6H8v20.5zM-108.8 395.9s-2-1.2-3.1-1.6c0 0-3.7-1.7-4.5-2.5 0 0-1.5-1.4-.6-3 0 0 .4-1 1.9-1 0 0 2 .1 2 1.7v2.4h7.1v-3.4s.5-5.6-8.4-5.8h-1.6s-5.5.2-7.3 3.2c0 0-.7.9-.7 3.7v2.1s-.1 2.5 1.1 4c0 0 .7 1 2.5 2.2 0 0 3.5 1.9 5.7 3 0 0 2.1 1.2 1.9 3.2 0 0-.1 2-2.2 1.9 0 0-1.9-.1-1.9-2v-2.4h-7.6v3.4s-.2 6.5 9.6 6.5c0 0 9.3.2 9.8-6.6v-2.7c-.3 0 .1-4.1-3.7-6.3z"/></svg>