<svg xmlns="http://www.w3.org/2000/svg" viewBox="-105 327 400.8 140"><path d="M-102 389.2c0-3.5 3.3-5 6.3-5 3.4 0 6.3 1.7 7.4 5 .1.3.4 1.2.8 1.2s.5-.3.4-.6l-.6-5.2c0-.4-.2-.5-.5-.5-.4 0-.5.4-.8.4-.5 0-1.8-1.4-6.5-1.4-4.5 0-8.6 2.3-8.6 7.2 0 10 15.8 5.9 15.8 13.3 0 4-3.6 6.1-7.3 6.1-5.4 0-7.7-4-8.2-5.8-.2-.8-.2-1.3-.7-1.3-.4 0-.6.4-.4 1.2l1 5c.2.7 3.7 2.1 6.6 2.1 8.8 0 11.1-4.9 11.1-8.1 0-10.6-15.8-6.4-15.8-13.6zm43.7 19.4c-.9-1.2-1.4-2.7-1.9-4l-8.1-17.8c-.1-.3-.4-1.3-.8-1.3-.5 0-.6.6-2.9 4.9l-9.3 17.6c-1 2-2.8 1.4-2.8 2.1 0 .2.1.4.3.4 1 0 2.1-.2 3.1-.2 1.1 0 2.2.2 3.3.2.5 0 1 .1 1-.5 0-.9-2.8.1-2.8-2.3 0-.4.2-1 .3-1.2l2.5-4.9c.4-.7 1.1-.7 1.8-.7h8.6c1.1 0 1.3.5 1.7 1.3l1.3 2.8c.4.9 1.2 2.5 1.2 3.3 0 1.3-2.3 1-2.3 1.8 0 .3.6.3.9.3 1.1 0 2.1-.2 3.1-.2 1.6 0 3.2.2 4.8.2.3 0 .5 0 .5-.3-.1-.6-2.4.1-3.5-1.5zm-8.4-9.1h-7.7c-.5 0-.8-.1-.5-.6l4.4-8.4c.2-.4.4-.4.6 0l3.8 8.3c.3.5.3.7-.6.7zm38.6 9.1c-.9-1.2-1.4-2.7-1.9-4l-8.1-17.8c-.1-.3-.4-1.3-.8-1.3-.5 0-.6.6-2.9 4.9l-9.3 17.6c-1 2-2.8 1.4-2.8 2.1 0 .2.1.4.4.4 1 0 2.1-.2 3.1-.2 1.1 0 2.2.2 3.3.2.5 0 1 .1 1-.5 0-.9-2.8.1-2.8-2.3 0-.4.2-1 .3-1.2l2.5-4.9c.4-.7 1.1-.7 1.8-.7h8.6c1.1 0 1.3.5 1.7 1.3l1.3 2.8c.4.9 1.2 2.5 1.2 3.3 0 1.3-2.3 1-2.3 1.8 0 .3.6.3.9.3 1 0 2.1-.2 3.1-.2 1.6 0 3.2.2 4.8.2.3 0 .5 0 .5-.3-.2-.6-2.4.1-3.6-1.5zm-8.3-9.1h-7.7c-.5 0-.8-.1-.5-.6l4.4-8.4c.2-.4.4-.4.6 0l3.8 8.3c.2.5.2.7-.6.7zm33-12.4c0-.8-.2-1-1.1-1-.8 0-4.4.1-11.4.1-5 0-8-.1-11-.1-.7 0-.7.9-.7 1.3l-.4 3.4c0 .2.2.4.4.4.5 0 .5-.5.7-.8.7-1.9.8-2.4 3.2-2.4h6.3c.5 0 .4 1.4.4 1.6v18c0 2.1-3.1 1.7-3.1 2.6 0 .3.1.5.5.5.2 0 1-.2 5.3-.2 1.1 0 2.2.2 3.2.2.4 0 .4-.3.4-.4 0-1.1-3.2.1-3.2-2.8v-17.7c0-1.8-.2-1.7 1.6-1.7h5.6c4 0 1.9 2.6 3.3 2.6.5 0 .5-.4.4-.8l-.4-2.8zm27.6 17.2c-.2 0-.5.2-.5.5-.6 1.6-4.4 5.1-10.5 5.1-7.5 0-11.4-6-11.4-12.1 0-6.4 3.7-11 11.2-11 5 0 7.8 2.3 10.2 6 .2.2.4 1.1.9 1.1.7 0 .3-1.1.2-3-.1-2.3-.1-2.8-.5-2.8s-.6.3-.9.3c-1.1 0-3.1-2.7-10.5-2.7-8.2 0-14 5.9-14 13 0 7.2 5.7 12 13.7 12 8.7 0 11.5-2.6 11.5-2.7l.9-3.5c.1 0-.1-.2-.3-.2zm27 3.1V389c0-2.4 2.6-1.8 2.6-2.4 0-.2-.1-.6-1.1-.6-.8 0-1.4.1-2.8.1-.7 0-2.8-.1-4-.1-.6 0-.7.2-.7.4 0 .8 2.9.2 2.9 2.6v7.1c0 .1.1 1-.3 1H33.6c-.6 0-.6-.1-.6-.6V389c0-2.6 2.8-1.9 2.8-2.6 0-.1-.1-.3-.7-.3-1.2 0-2.4.1-3.6.1-1.4 0-2.8-.1-4.3-.1-.3 0-.6.1-.6.4 0 .8 3.3.1 3.4 2.6v17.7c0 3.4-3 2.3-3 3.3 0 .3.1.5.4.5.2 0 .6-.2 3.3-.2 2.1 0 4.9.2 5.4.2.4 0 .6-.1.6-.3 0-1.1-3.7-.3-3.7-2.7V399c0-.4 0-.6.5-.6h14.3c.5 0 .3.3.3.9v8.3c0 2.2-2.7 1.7-2.7 2.5 0 .6.6.5.9.5.7 0 1.8-.2 4.3-.2 1.4 0 2.6.2 3.7.2.3 0 .4-.3.4-.4 0-.8-3.5-.2-3.5-2.8zm12.4.3v-18.6c0-2.6 2.8-1.8 2.8-2.6 0-.3-.1-.3-.7-.3-1.2 0-2.4.1-3.6.1-1.4 0-2.8-.1-4.3-.1-.3 0-.4.1-.4.4 0 .8 3.1.1 3.1 2.6v17.7c0 3.4-3 2.3-3 3.3 0 .3.1.5.8.5.5 0 1.4-.2 3.7-.2 1.7 0 3.3.2 4.2.2.7 0 .8-.1.8-.3.1-1.2-3.4-.4-3.4-2.7zm47.8 1.7c-.3 0-.7.2-1.4.2-1.7 0-5.4-3.7-6.9-4.9 1.2-2.2 1.5-4.7 1.8-7.1.2-1.7 1.7-1.3 1.7-1.9 0-.4-.2-.5-.5-.5-1.3 0-2 .1-2.5.1-.6 0-1.9-.1-3.4-.1-.3 0-.9-.1-.9.3 0 1.2 3.7-.3 3.7 4.2 0 1.6-.2 3-1.1 4.1-8.4-7.7-14.2-13.8-14.2-16.4 0-1.8 1.4-3.1 3.2-3.1 2.4 0 4.4 2 5.3 4 .1.2.2.7.6.7.2 0 .4-.1.4-.3l-.1-3.7c0-.3.1-1.1-.5-1.1-.3 0-.5.3-.7.3s-1.7-1-4.2-1c-3.2 0-6.3 1.7-6.3 5.2 0 1.6.8 3.2 1.8 4.4-4.2.9-6.2 4.1-6.2 8.2 0 6 5 9.7 10.7 9.7 3.8 0 6.8-1.3 9.6-3.9 2.1 1.7 4.3 3.9 7.2 3.9 1.3 0 3.2-.6 3.2-1.2 0 .1 0-.1-.3-.1zm-18.4-.7c-5 0-10-4.3-10-9.5 0-2.2 1.8-5.3 4.2-5.3 1.4 0 4.4 5.2 12.7 12.2-1.8 1.7-4.4 2.6-6.9 2.6zm33.6-19.5c0-3.5 3.3-5 6.3-5 3.4 0 6.3 1.7 7.4 5 .1.3.4 1.2.8 1.2s.5-.3.4-.6l-.6-5.2c0-.4-.2-.5-.5-.5-.4 0-.5.4-.8.4-.5 0-1.8-1.4-6.5-1.4-4.5 0-8.6 2.3-8.6 7.2 0 10 15.8 5.9 15.8 13.3 0 4-3.6 6.1-7.3 6.1-5.4 0-7.7-4-8.2-5.8-.2-.8-.2-1.3-.7-1.3-.4 0-.6.4-.4 1.2l1 5c.2.7 3.7 2.1 6.6 2.1 8.8 0 11.1-4.9 11.1-8.1 0-10.6-15.8-6.4-15.8-13.6zm43.8 19.4c-.9-1.2-1.4-2.7-1.9-4l-8.1-17.8c-.1-.3-.4-1.3-.8-1.3-.5 0-.6.6-2.9 4.9l-9.3 17.6c-1 2-2.8 1.4-2.8 2.1 0 .2.1.4.4.4 1 0 2.1-.2 3.1-.2 1.1 0 2.2.2 3.3.2.5 0 1 .1 1-.5 0-.9-2.8.1-2.8-2.3 0-.4.2-1 .3-1.2l2.5-4.9c.4-.7 1.1-.7 1.8-.7h8.6c1.1 0 1.3.5 1.7 1.3l1.3 2.8c.4.9 1.2 2.5 1.2 3.3 0 1.3-2.3 1-2.3 1.8 0 .3.6.3.9.3 1 0 2.1-.2 3.1-.2 1.6 0 3.2.2 4.8.2.3 0 .5 0 .5-.3-.2-.6-2.5.1-3.6-1.5zm-8.3-9.1h-7.7c-.5 0-.8-.1-.5-.6l4.4-8.4c.2-.4.4-.4.6 0l3.8 8.3c.2.5.2.7-.6.7zm38.5 9.1c-.9-1.2-1.4-2.7-1.9-4l-8.1-17.8c-.1-.3-.4-1.3-.8-1.3-.5 0-.6.6-2.9 4.9l-9.3 17.6c-1 2-2.8 1.4-2.8 2.1 0 .2.1.4.3.4 1 0 2.1-.2 3.1-.2 1.1 0 2.2.2 3.3.2.5 0 1 .1 1-.5 0-.9-2.8.1-2.8-2.3 0-.4.2-1 .3-1.2l2.5-4.9c.4-.7 1.1-.7 1.8-.7h8.6c1.1 0 1.3.5 1.7 1.3l1.3 2.8c.4.9 1.2 2.5 1.2 3.3 0 1.3-2.3 1-2.3 1.8 0 .3.6.3.9.3 1.1 0 2.1-.2 3.1-.2 1.6 0 3.2.2 4.8.2.3 0 .5 0 .5-.3-.1-.6-2.3.1-3.5-1.5zm-8.3-9.1h-7.7c-.5 0-.8-.1-.5-.6l4.4-8.4c.2-.4.4-.4.6 0l3.8 8.3c.2.5.3.7-.6.7zm33-12.4c0-.8-.2-1-1.1-1-.8 0-4.4.1-11.4.1-5 0-8-.1-11-.1-.7 0-.7.9-.7 1.3l-.4 3.4c0 .2.2.4.4.4.5 0 .5-.5.7-.8.7-1.9.8-2.4 3.2-2.4h6.3c.5 0 .4 1.4.4 1.6v18c0 2.1-3.1 1.7-3.1 2.6 0 .3.1.5.5.5.2 0 1-.2 5.3-.2 1.1 0 2.2.2 3.2.2.4 0 .4-.3.4-.4 0-1.1-3.2.1-3.2-2.8v-17.7c0-1.8-.2-1.7 1.6-1.7h5.6c4 0 1.9 2.6 3.3 2.6.5 0 .5-.4.4-.8l-.4-2.8zm27.6 17.2c-.2 0-.5.2-.5.5-.6 1.6-4.4 5.1-10.5 5.1-7.5 0-11.4-6-11.4-12.1 0-6.4 3.7-11 11.2-11 5 0 7.8 2.3 10.2 6 .2.2.4 1.1.9 1.1.7 0 .3-1.1.2-3-.1-2.3-.1-2.8-.5-2.8s-.6.3-.9.3c-1.1 0-3.1-2.7-10.5-2.7-8.2 0-14 5.9-14 13 0 7.2 5.7 12 13.7 12 8.7 0 11.5-2.6 11.5-2.7l.9-3.5c.1 0-.1-.2-.3-.2zm27 3.1V389c0-2.4 2.6-1.8 2.6-2.4 0-.2-.1-.6-1.1-.6-.8 0-1.4.1-2.8.1-.7 0-2.8-.1-4-.1-.6 0-.7.2-.7.4 0 .8 2.9.2 2.9 2.6v7.1c0 .1.1 1-.3 1h-14.2c-.6 0-.6-.1-.6-.6V389c0-2.6 2.8-1.9 2.8-2.6 0-.1-.1-.3-.7-.3-1.2 0-2.4.1-3.6.1-1.4 0-2.8-.1-4.3-.1-.3 0-.6.1-.6.4 0 .8 3.3.1 3.4 2.6v17.7c0 3.4-3 2.3-3 3.3 0 .3.1.5.4.5.2 0 .6-.2 3.3-.2 2.1 0 4.9.2 5.4.2.3 0 .6-.1.6-.3 0-1.1-3.7-.3-3.7-2.7V399c0-.4 0-.6.5-.6h14.3c.5 0 .3.3.3.9v8.3c0 2.2-2.7 1.7-2.7 2.5 0 .6.6.5.9.5.7 0 1.8-.2 4.3-.2 1.4 0 2.6.2 3.7.2.3 0 .4-.3.4-.4 0-.8-3.5-.2-3.5-2.8zm12.4.3v-18.6c0-2.6 2.8-1.8 2.8-2.6 0-.3-.1-.3-.7-.3-1.2 0-2.4.1-3.6.1-1.4 0-2.8-.1-4.3-.1-.3 0-.4.1-.4.4 0 .8 3.1.1 3.1 2.6v17.7c0 3.4-3 2.3-3 3.3 0 .3.1.5.8.5.5 0 1.4-.2 3.7-.2 1.7 0 3.3.2 4.2.2.7 0 .8-.1.8-.3.1-1.2-3.4-.4-3.4-2.7z"/></svg>