<svg id="Layer_1" xmlns="http://www.w3.org/2000/svg" viewBox="-129.9 327 209.7 140"><style>.st0{fill:#000}</style><path class="st0" d="M74.9 412.6v-20.9h5v20.9h-5zm-147.2-.2c-1.9.7-3.4.8-3.4.8-.3.1-12.2 0-15.4 0-.1 0-.2-.2-.2-.2-.1-.2.1-.3.1-.3 8.8-5.9 25.8-15.1 25.8-15.1 1.5 4.6-.4 8.5-.4 8.5-2.3 5-6.5 6.3-6.5 6.3zm-.5-13.9c-4.9 4.8-16.9 10.9-19.7 12.3-.1.1-.3 0-.3 0-.1-.1-.1-.3-.1-.3 7.7-16.7 18.1-29.4 18.1-29.4s5.6 5.2 5.3 10.8c-.2 4-3.3 6.6-3.3 6.6zm-22.4 10.6s-.1.2-.3.1c0 0-.1 0-.2-.2-2.9-28.9 3-36.6 3-36.6 1.6.2 3.1.6 3.1.6 5.3 1.3 6.6 6.2 6.6 6.2.9 2.6 0 6.4 0 6.4-1.6 7.8-10.3 20.7-12.2 23.5zm121.4-1.4l4.4-16.1h5.6l5.1 16.1 4.9-16.1h4.9l-7 20.9h-5.8L33.4 397l-4.2 15.6h-5.8l-7.5-20.9H21l5.2 16zm-125.5 1.5s-.1 0-.2-.1c-1.9-2.7-10.6-15.6-12.3-23.5 0 0-1-3.3 0-6.4 0 0 1.3-4.8 6.6-6.2 0 0 2.3-.5 3.2-.6 0 0 5.9 7.7 3 36.5-.1 0-.1.2-.3.3zm-2.6 1.3c.1.1-.1.2-.1.2-.1.1-.2.1-.3 0-2.8-1.4-14.8-7.5-19.8-12.4 0 0-3.1-2.4-3.3-6.5-.4-5.4 5.3-10.8 5.3-10.8s10.6 12.8 18.2 29.5zm-1.6 2.3s.2.1.1.3c0 0-.1.1-.2.1-3.1 0-14.7.1-15 0 0 0-1.9-.1-3.8-.8 0 0-4.1-1.4-6.3-6 0 0-2.1-3.9-.5-8.7-.2.1 16.9 9.2 25.7 15.1zm58-12.7h10.6v-8.5h4.8v20.9h-4.8v-8.7h-10.6v8.7h-4.8v-20.9h4.8v8.5zm24.1 4.1c0 3.7 1.2 5.2 5.1 5.2 4 0 5.1-1.5 5.1-5.2v-12.5h4.8v12.6c0 2.7-.3 4.5-1.3 5.6-1.9 2-4.6 2.9-8.5 2.9s-6.7-.8-8.6-2.9c-1-1.1-1.3-3-1.3-5.6v-12.6h4.7v12.5zm-93 17.2c-3.8.9-7.5-2.1-9.6-6l20-.7s.2 0 .3.2c0 0 .1.1-.1.2-2 1.5-8 5.7-10.6 6.3zM9.1 391.7l9.7 20.9h-5.3l-2.1-5H1.6l-2 5h-5l9.6-20.9h4.9zm.8 12.2l-3.5-8-3.3 8h6.8zm-100.8 11.3c-.1-.1-.1-.3-.1-.3 0-.1.2-.2.2-.2l20 .7c-4.5 7.7-9.7 6-9.7 6-2.7-.8-8.5-4.8-10.4-6.2zm153.7-23.5h7.9v3.6h-7.8c-3.4 0-5.2 1.6-5.3 4.9h13.2v3.6H57.5c0 3.8 1.6 5.1 5.4 5.1h7.8v3.6h-8.1c-2.7 0-4.9-.2-7.1-1.8-2.3-1.7-3.5-4.4-3.5-8.2.1-7.4 3.5-10.8 10.8-10.8z"/></svg>