<svg id="Layer_1" xmlns="http://www.w3.org/2000/svg" viewBox="-91.7 327 133.4 140"><style>.st0{fill:#000}</style><path class="st0" d="M36.1 422.5c-7.3 0-8.5-6.2-8.5-9.8V406c0-2.6-.4-4.1-2.5-4.1-3.3 0-5 1.9-5 5.4v15.2h-7.6v-50H20v26.1s2.1-3.3 6.3-3.3c5.4 0 8.8 4.2 8.8 7.6v9.8s0 3.3 3.3 3.3 3.3-1.4 3.3-1.4v6.3s-1.6 1.6-5.6 1.6zm-33.6 0c-7.3 0-8.5-6.2-8.5-9.8v-9.8h-6.5v-7.6H-6v-12h7.6v12h6.5v7.6H1.6v9.8s0 3.3 3.3 3.3 3.3-1.4 3.3-1.4v6.3c-.1 0-1.7 1.6-5.7 1.6zm-12.9-7.8v6.2s-1.6 1.6-5.5 1.6c-4.2 0-6.4-2-7.5-4.4-1.3 4-6 4.4-8.7 4.4s-13-2.2-13-13c0-10.9 8.7-14.1 13-14.1s7.6 3.2 7.6 3.2v-3.2h7.6v17.4s0 3.3 3.3 3.3c3.2-.1 3.2-1.4 3.2-1.4zm-14-8.5c-1.1-2.6-3.5-4.3-6.4-4.3-3.9 0-6.6 3.1-6.6 7.6 0 4 2.6 6.5 6.5 6.5 2.8 0 5.4-1.4 6.5-3.9v-5.9zm-36.9 3.3c-3.3 0-5.4-1.1-5.4-1.1v5.4c0 6.5-4.3 8.7-8.7 8.7-4.3 0-6.5-1.1-6.5-1.1v-7.6s1.1 1.1 3.3 1.1c2.2 0 3.3-1.1 3.3-2.2v-26.1h8.7v14.1s1.1 1.1 4.3 1.1c5.1 0 9.7-3.3 9.7-9.8s-4.7-11.8-15.2-11.8S-83 386.3-83 392s2.2 7.7 2.2 7.7l-7.6 5.4s-3.3-6.1-3.3-13c0-13 13-20.6 23.8-20.6S-44 378-44 392.1c0 14.1-14.1 17.4-17.3 17.4z"/></svg>