<svg xmlns="http://www.w3.org/2000/svg" viewBox="-175 327 163.5 140"><path d="M-151.2 373.6c-6.6 0-11.9 5.5-11.9 12.2h23.9c-.1-6.7-5.4-12.2-12-12.2zm0 24.4c-6.6 0-11.9-5.5-11.9-12.2-6.6 0-11.9 5.5-11.9 12.2 0 6.7 5.3 12.2 11.9 12.2 0 6.7 5.3 12.2 11.9 12.2 6.6 0 11.9-5.5 11.9-12.2h-23.9c.1-6.7 5.4-12.2 12-12.2zm11.9-12.2c0 6.7-5.3 12.2-11.9 12.2 6.6 0 11.9 5.5 11.9 12.2 6.6 0 11.9-5.5 11.9-12.2.1-6.7-5.3-12.2-11.9-12.2zm36.8 12.6l-5.3-12.6h-7.3v24.4h5.1v-16.4l7.4 16.4 7-16.4v16.4h5.5v-24.4h-7.4l-5 12.6zm15.1 11.8h13.8v-4.1H-82v-6.2h8.1v-4.2H-82v-5.6h8.4v-4.3h-13.8v24.4zm34.3-12.2c0 9.1 9.3 16.3 19 11.5v-5.2c-7.5 5.4-14.1 0-14-6.1.1-4 2.7-7.8 7.8-8.1 2.5-.1 4.2.5 6.1 2.4V387c-6.9-4.2-18.9.5-18.9 11zm21.3 12.2h5.1V386h-5.1v24.2zm11.5-13.1l7.7-11h-5.9l-7.6 11 8.8 13.1h5.8l-8.8-13.1zm-33.7-4c0-2.8-2.3-7.3-7.8-7.3h-9.4v24.4h5.4v-13.1l8.9 13.1h5.7l-7-10.2c3.1-1.3 4.2-4.1 4.2-6.9zm-9 3.9h-2.9v-7.1h2.3c4 0 4.2 2.6 4.2 3.6 0 1.9-1.5 3.5-3.6 3.5z"/></svg>