<svg id="Layer_1" xmlns="http://www.w3.org/2000/svg" viewBox="-115.1 327 180.1 140"><style>.st0{fill:#000}</style><path class="st0" d="M64.9 397.6H54v10.9h-1.4v-10.9H41.8v-1.4h10.9v-9.6h1.4v9.6H65v1.4h-.1zM39 373.2c0-3.5-2.1-5.6-5.5-5.6-4.1 0-6 3.4-6 7v11.7H25v-15.8c0-1.6-.1-3.2-.2-4.6h2.6l.1 3 .1.1c1.5-2.5 3.8-3.7 6.5-3.7 6.8 0 7.3 5.9 7.3 8.2v12.7h-2.5l.1-13zm-13.9 35.6l7 17 7-17h2.7l-11.5 28.1h-2.7l3.2-7.8-8.6-20.4 2.9.1zm-14.6-24.1c2.9 0 5.4-2.1 6-4.9h2.7c-1.3 4.9-4.4 7.1-9.4 7.1-6.2 0-9.1-5.2-9.1-10.8 0-5.5 3.1-10.8 9.3-10.8 7 0 9.5 5 9.5 11.4H3.3c.1 4.4 2.1 8 7.2 8zm6.2-10.2c-.3-3.9-2.4-6.9-6.8-6.9-4.1 0-6.2 3.3-6.6 6.9h13.4zM9 408.2c2.8 0 5.7 1.3 7.1 3.7l.1-.1v-11.9h2.5v24.7c0 1.6.1 3.2.2 4.6h-2.6l-.1-3-.1-.2c-1.7 2.4-4.2 3.8-7.1 3.8-6.2 0-8.5-5.8-8.5-10.9 0-5.3 2.3-10.7 8.5-10.7zm.1 19.3c5.4 0 7.1-4.4 7.1-9 0-4.1-1.9-8.1-6.7-8.1-4.7 0-6.3 4.3-6.3 8.2 0 3.8 1.1 8.9 5.9 8.9zm-21.8 0c2.9 0 5.4-2.1 6-4.9h2.6c-1.3 4.9-4.4 7.1-9.4 7.1-6.2 0-9.1-5.2-9.1-10.8 0-5.5 3.1-10.8 9.3-10.8 7 0 9.5 5 9.5 11.4h-16.1c.1 4.4 2.1 8 7.2 8zm6.2-10.2c-.3-3.9-2.4-6.9-6.8-6.9-4.1 0-6.2 3.3-6.6 6.9h13.4zm-.5-33.9l-.1-.2c-1.7 2.4-4.2 3.8-7.1 3.8-6.2 0-8.5-5.8-8.5-10.9 0-5.3 2.4-10.7 8.5-10.7 2.8 0 5.7 1.3 7.1 3.7l.1-.1v-11.9h2.5v24.7c0 1.6.1 3.2.2 4.6h-2.5l-.2-3zm-6.8-15.8c-4.7 0-6.3 4.3-6.3 8.2 0 3.8 1.1 8.9 5.9 8.9 5.4 0 7.1-4.4 7.1-9 .1-4.1-1.8-8.1-6.7-8.1zm-21.8 17.1c2.9 0 5.4-2.1 6-4.9h2.6c-1.3 4.9-4.4 7.1-9.4 7.1-6.2 0-9.1-5.2-9.1-10.8 0-5.5 3.1-10.8 9.3-10.8 7 0 9.5 5 9.5 11.4h-16.1c0 4.4 2.1 8 7.2 8zm6.2-10.2c-.3-3.9-2.4-6.9-6.8-6.9-4.1 0-6.2 3.3-6.6 6.9h13.4zm-24.5-17.4h2.9v3h-2.9v-3zm2.7 8.9v20.4h-2.5V366h2.5zm.1 63.2h-2.5v-13.1c0-3.5-2.1-5.6-5.5-5.6-4.1 0-6 3.4-6 7v11.7h-2.5v-15.8c0-1.6-.1-3.2-.2-4.6h2.6l.1 3 .1.1c1.5-2.5 3.8-3.7 6.5-3.7 6.8 0 7.3 5.9 7.3 8.2v12.8h.1zm-18-42.8l-8.8-26.6h-.1l-8.6 26.6h-3.8l-7.8-29.3h2.9l7 26.7h.1l8.8-26.7h3.3l9.1 26.7h.1l6.9-26.7h2.6l-7.9 29.3h-3.8zm-40.3 26.7l15.1 16.1H-98l-14.4-15.3v15.3h-2.7v-29.3h2.7v12.9l13.4-12.9h3.4l-13.8 13.2zm26.7-4.9c7 0 9.5 5 9.5 11.4h-16.1c.1 4.3 2.1 8 7.2 8 2.9 0 5.4-2.1 6-4.9h2.6c-1.3 4.9-4.4 7.1-9.4 7.1-6.2 0-9.1-5.2-9.1-10.8.1-5.5 3.2-10.8 9.3-10.8zm6.9 9.1c-.3-3.9-2.4-6.9-6.8-6.9-4.1 0-6.2 3.3-6.6 6.9h13.4zm33.8-5.5c1.5-2.4 3.9-3.6 6.6-3.6 6.8 0 7.3 5.9 7.3 8.2v12.7h-2.5V416c0-3.5-2.1-5.6-5.5-5.6-4.1 0-6 3.4-6 7v11.7h-2.5v-15.8c0-1.6-.1-3.2-.2-4.6h2.6l.2 3.1z"/></svg>