<svg id="Layer_1" xmlns="http://www.w3.org/2000/svg" viewBox="-129.4 327 208.7 140"><style>.st0{fill:#000}</style><path class="st0" d="M-102 382.4v16.7c0 5.7-2.8 9.1-11.1 9.1s-11.1-3.4-11.1-9.1v-11.8c-.1-2.8-2.4-5-5.2-5v3.3c1 0 1.8.8 1.9 1.8v12.9c0 6.6 5.2 11.3 14.4 11.3s14.3-4.7 14.3-11.3v-17.9h-3.2zM-6.9 407.8V400c0-1.1.9-2 2-2H9.4v-3.3H-4.9c-.7 0-1.3.2-1.9.4v-9.4h23.3v-3.3h-26.6v28.7h27.6v-3.3H-6.9zM77.4 408c-.8.7-1.9.5-2.6-.2l-6.3-8c4.7-.2 8.5-4 8.5-8.7 0-4.8-3.9-8.7-8.7-8.7H46.9v28.7h3.3v-9.4c0-1.1.9-1.9 2-1.9h12.1l7.8 10c1.8 2.2 5 2.5 7.2.8l-1.9-2.6zm-25.2-11.2c-.7 0-1.3.1-2 .4v-11.7h18c3.1 0 5.7 2.5 5.7 5.7s-2.5 5.7-5.7 5.7l-16-.1zM-43.2 396.2c1.8-1.4 3.1-3.6 3.1-6.1 0-4.3-3.5-7.7-7.7-7.7h-21.5v28.7h21.4c4.5 0 8.2-3.7 8.2-8.2 0-2.8-1.4-5.2-3.5-6.7zM-66 385.4h18.2c2.6 0 4.6 2.1 4.6 4.6s-2.1 4.6-4.6 4.6h-16.5c-.6 0-1.2.2-1.7.4v-9.6zm18.1 22.6H-66v-8.1c0-1.1.9-2 2-2h16.1c2.8 0 5.1 2.3 5.1 5.1 0 2.7-2.3 5-5.1 5z"/></svg>