<svg id="Layer_1" xmlns="http://www.w3.org/2000/svg" viewBox="80 -80 200 200"><style>.st0{fill:none;stroke:#fff;stroke-width:2;stroke-miterlimit:10}.st1{fill:#63e98f}.st2{fill:#fc4c3c}</style><path class="st0" d="M223 20.7l-13.6 23.6-45 45-68.7-68.6L164.4-48l45.3 45.3z"/><path class="st0" d="M209.5-2.5c6-6 14.2-9.7 23.4-9.7 9.1 0 17.4 3.7 23.4 9.7 6 6 9.7 14.2 9.7 23.4s-3.7 17.4-9.7 23.4c-6 6-14.2 9.7-23.4 9.7-9.1 0-17.4-3.7-23.4-9.7"/><path class="st1" d="M209.1-4.3c-6.4 6.4-10.3 15.2-10.3 25s4 18.6 10.3 25l25-25-25-25z"/><path class="st2" d="M163.8 21h8v-1h-8v1zm11 0h8v-1h-8v1zm11 0h8v-1h-8v1zm11-1v1h8v-1h-8z"/><path class="st2" d="M196.8 21h8v-1h-8v1zm11 0h8v-1h-8v1zm11 0h8v-1h-8v1zm11-1v1h3v-1h-3z"/></svg>