<svg id="Layer_1" xmlns="http://www.w3.org/2000/svg" viewBox="80 -80 200 200"><style>.st0{fill:none;stroke:#fff;stroke-width:2;stroke-miterlimit:10}.st1{fill:#63e98f}.st2{fill:#ffc912}</style><path class="st0" d="M124.3-35h112V77h-112zM180.3 20h-56M180.3 77V-34.2"/><circle class="st1" cx="208.2" cy="48.9" r="12.1"/><path class="st2" d="M168.2 7.4l-4.1-4-.4.6 4.1 4 .4-.6zm11.7 11.4l-4.1-4-.5.5 4.1 4 .5-.5zM162.6 2l-4.1-4-.5.5 4.1 4 .5-.5zm11.7 11.4l-4.1-4-.5.5 4.1 4 .5-.5zM151.5-8.9l-4.1-4-.5.5 4.1 4 .5-.5zm5.5 5.4l-4.1-4-.5.5 4.1 4 .5-.5zm-15.7-15.3l4.6 4.4-.5.5-4.6-4.4.5-.5zm-1.5-1.5l-4.1-4-.5.5 4.1 4 .5-.5zm-11.2-10.8l-4.1-4-.5.5 4.1 4 .5-.5zm5.6 5.4l-4.1-4-.5.5 4.1 4 .5-.5z"/></svg>