<svg id="Layer_1" xmlns="http://www.w3.org/2000/svg" viewBox="80 -80 200 200"><style>.st0{display:none}.st1,.st2{display:inline;fill:#1368ae}.st2{fill:#fa0}.st3{fill:#ef4f3a}.st3,.st4{display:inline}.st5{fill:#f097c0}.st6{fill:#ffc43a}.st7{fill:#ffcdae}.st8,.st9{display:inline;fill:#fff}.st9{opacity:.3;enable-background:new}.st10{fill:none;stroke:#fff;stroke-width:2;stroke-miterlimit:10}.st11{fill:#fc4c3c}.st12,.st13{fill:none;stroke-miterlimit:10}.st12{stroke-width:2;stroke:#ffc912}.st13{stroke:#fff;stroke-dasharray:10,3}</style><g class="st0"><path class="st1" d="M-328.7-2782.5c-19.1 11-25.7 35.5-14.6 54.6 11 19.1 35.5 25.7 54.6 14.6l58.9-34-20-34.6-20-34.6-58.9 34z"/><path class="st2" d="M-209.8-2849.8c0-22.1-17.9-40-40-40s-40 17.9-40 40v68h80v-68z"/><path class="st3" d="M-210.9-2712.9c19.1 11 43.6 4.5 54.6-14.6s4.5-43.6-14.6-54.6l-58.9-34-20 34.6-20 34.6 58.9 34z"/><path class="st4 st5" d="M-250.1-2735.3l20-11.6h-40z"/><path class="st4 st6" d="M-209.8-2804.6l-20-11.5 20 34.6z"/><path class="st4 st7" d="M-290.1-2804.6v23.1l20-34.6z"/><path class="st1" d="M-290.1-2781.5h80"/><circle class="st8" cx="-250.1" cy="-2781.5" r="40"/><circle class="st9" cx="-342.9" cy="-2834.9" r="13"/></g><circle class="st10" cx="180.5" cy="20.5" r="58.5"/><circle class="st11" cx="180.5" cy="-22.8" r="14.4"/><circle class="st10" cx="142.7" cy="42.3" r="14.8"/><circle class="st10" cx="218.3" cy="42.3" r="14.8"/><circle class="st12" cx="180.5" cy="20.5" r="28.5"/><path class="st13" d="M180.5 20.5v-43.3"/></svg>