<svg id="Layer_1" xmlns="http://www.w3.org/2000/svg" viewBox="80 -80 200 200"><style>.st0{fill:#25adff}.st1{fill:none;stroke:#fc4c3c;stroke-width:2;stroke-miterlimit:10}.st2{fill:#fff}</style><circle class="st0" cx="255.5" cy="20.5" r="17.5"/><circle class="st1" cx="145.5" cy="20.5" r="16.8"/><path class="st2" d="M145.5-35c19.7 0 38.2 10.6 48.1 27.8 4.9 8.4 7.4 18 7.4 27.7s-2.6 19.3-7.4 27.7C183.7 65.4 165.2 76 145.5 76 114.9 76 90 51.1 90 20.5S114.9-35 145.5-35m0-2C113.7-37 88-11.3 88 20.5S113.7 78 145.5 78c21.3 0 39.8-11.6 49.8-28.8 4.9-8.5 7.7-18.3 7.7-28.7S200.2.2 195.3-8.2c-10-17.2-28.5-28.8-49.8-28.8z"/><path class="st2" d="M167 21h8v-1h-8v1zm-22 0h8v-1h-8v1zm33 0h8v-1h-8v1zm-22 0h8v-1h-8v1zm45 0h8v-1h-8v1zm-11 0h8v-1h-8v1zm22 0h8v-1h-8v1zm11 0h8v-1h-8v1zm22-1v1h8v-1h-8zm-11 1h8v-1h-8v1z"/></svg>