<svg xmlns="http://www.w3.org/2000/svg" viewBox="257 267.6 630.4 92.4"><path fill="#1A1A1A" d="M621.6 343l-2.5-61.2c0-5.8 3-8.3 8.5-8.3v-2.9h-19.4L585 329.7l-23-59.2h-21.5v2.9c5.5.4 7.6 2.1 9.7 7.1l-2.5 63.3c0 7.5-3.8 10.8-11 10.8v3.3H565v-3.3c-7.2 0-9.7-3.3-9.7-10.8 0 0 1.3-38.7 1.3-51.2 4.6 12.1 17.7 48.3 17.7 48.3s3.4 8.3 4.6 12.9l5.1-.4c1.7-6.7 3.8-12.9 5.9-18.3l15.6-42.5c.4 7.5 1.7 50.4 1.7 50.4.4 9.6-2.5 11.7-8.9 11.7v3.3h32.5v-3.3c-7.5 0-9.2-2.5-9.2-11.7zm-87.9-3.8c-4.6 8.3-11.8 15-23.7 15-18.2 0-34.6-12.5-34.6-41.2 0-25.4 16.1-39.1 33.8-39.1 14.8 0 19.4 5.8 21.1 14.6h2.5s1.7-15 2.1-19.6h-2.5c-1.3 1.2-1.7 2.1-3 3.3-6.3-2.5-13.9-3.7-20.7-3.7-29.2 0-48.2 19.6-48.2 45 0 30 20.3 46.2 47.7 46.2 7.2 0 13.1-1.7 16.5-1.7 1.7 0 3.4 0 5.1.4l6.8-17.9-2.9-1.3zm-95-68.7h-41c-5.1 0-6.8 0-7.6-2.1l-2.1-.4-2.1 18.7h3c2.1-8.3 3.4-10.4 11.4-10.4h12.3v65c0 11.2-2.1 13.3-9.3 13.3v3.3H435v-3.3c-7.2 0-9.3-2.1-9.3-12.9v-65.4H438c6.3 0 8.9 2.5 9.3 10.4h3l2.1-18.7h-2.5c-1.9 2.5-3.6 2.5-11.2 2.5zm-66.8 37.1c-2.5-1.7-5.1-3.3-8.4-5.4-6.3-4.2-11.8-8.7-11.8-15.8 0-7.9 5.9-12.1 13.9-12.1 8.4 0 13.5 3.7 13.5 12.1l3 .4 2.1-17.9-2.1-.4-3 3.3c-1.7-.8-6.8-3.3-14.8-3.3-13.9 0-24.5 8.3-24.5 20.8 0 10.8 5.9 17.5 15.2 23.3 2.5 2.1 5.5 3.7 8.9 5.8 10.1 7.5 13.1 11.2 13.1 18.7 0 9.2-6.8 17.5-16.9 17.5-13.1 0-19.4-6.7-21.1-15.8l-3-.4-2.1 19.6 2.5.8s1.3-2.1 3-3.7c1.3.8 3.8 2.1 7.2 2.9 3.4 1.2 8 2.1 13.9 2.1 18.2 0 29.6-10.8 29.6-25.4 0-10-3.4-16.7-18.2-27.1zm-68.4-7.1h-3c-.8 5.4-2.1 8.7-8.4 8.7h-12.3v-32.9h19c6.8 0 10.1 2.9 10.1 10.4h3.4l2.1-19.2h-3c-1.3 2.5-3 2.9-10.6 2.9H257v2.9c6.8 0 9.3 2.5 9.3 8.3V343c0 9.6-1.3 11.7-9.3 11.7v3.3h32.1v-3.3c-6.8 0-9.3-1.2-9.3-11.7v-27.9h11.8c6.8 0 8 2.5 8.9 8.7h3v-23.3zm561.5-30v2.9c3.8 0 5.5 1.2 5.5 3.7 0 2.1-.4 4.2-2.5 7.9l-13.2 28-13.5-28.7c-.8-2.5-1.7-4.6-1.7-6.7 0-2.9 2.5-4.2 5.5-4.2v-2.9h-47.3v2.9c7.2 0 9.3 2.1 9.3 11.2V330l-35.5-59.6H750v2.9c7.2 0 7.6 3.3 11.4 8.3v60c0 9.6-1.3 11.2-6.3 12.9-3.4-1.7-5.5-5.4-7.6-12.9l-22.8-71.2h-19v2.9c3 .4 4.6 1.2 5.9 4.2l-21.5 67.9c-3 8.7-6.3 9.2-10.6 9.2v3.3h23.2v-3.3c-2.5 0-6.3-.8-6.3-4.2 0-3.7 5.1-17.5 5.5-19.2h27.9l3.8 12.1c.8 2.9 1.3 5.8 1.3 7.5 0 2.5-3.4 3.7-7.2 3.7v3.3h49.9v-3.3c-6.8 0-9.3-2.1-9.3-12.9v-50l41.4 68.3 5.5-.4c-.4-5.8-.8-10.8-.8-10.8v-64.1c0-6.7 1.3-9.6 5.5-11.2 2.1 1.2 3.4 2.9 6.8 10.4l18.6 38.7v19.6c0 10-2.5 12.5-9.3 12.5v3.3h32.1v-3.3c-6.8 0-9.3-2.5-9.3-12.5v-22.9l17.3-35c2.5-5.8 5.9-10.8 11.4-10.8v-2.9H865zm-161.4 55l11.8-37.9 12.7 37.9h-24.5zm-46.9 17.9v-17.9h6.3c16.1 0 33-8.7 33-28.7 0-19.2-13.9-26.2-37.6-26.2h-24.5v2.9c6.8 0 9.3 1.7 9.3 10.8V343c0 9.2-2.5 11.7-9.3 11.7v3.3h32.5v-3.3c-7.2 0-9.7-2.1-9.7-11.3zm0-67h2.1c16.5 0 22.8 5 22.8 20.8s-7.2 22.1-21.1 22.1h-3.8v-42.9zm-168.2 37.4c0 16.2 11 27.5 27 27.5 14.8 0 26.6-12.1 26.6-27.5 0-15.8-11.4-27.5-26.6-27.5-15.6.1-27 12.1-27 27.5zm41.4-.4c0 11.7-3.4 22.9-14.4 22.9-11.4 0-14.8-11.2-14.8-22.5 0-12.1 3.8-22.5 14.8-22.5 10.2.1 14.4 10.9 14.4 22.1zm-200.2 20v2.9h22.4v-2.9c-3.4 0-5.5-2.1-7.6-9.2 0 0-3-8.3-13.9-40H317v2.9c2.5 0 3.8 1.2 4.2 2.9l-12.7 37.5c-1.7 4.6-3.4 5.8-7.6 5.8v2.9h16.5v-2.9c-2.5 0-4.2-1.2-4.2-2.9s.4-2.9.8-4.2l1.7-5.4h16.5c.8 2.5 1.7 5.8 1.7 5.8.4 1.2.8 2.5.8 4.2 0 1.4-.8 2.6-5 2.6zm-12.3-17.1l6.3-20.4 6.8 20.4h-13.1z"/></svg>