<svg xmlns="http://www.w3.org/2000/svg" width="251.965" height="125.982" viewBox="15.748 78.739 251.965 125.982"><path d="M267.712 204.721H141.73l-47.184-19.684v-57.48h155.116l18.05 14.173z"/><path fill="#FFF" d="M267.712 141.73H94.546V89.762l47.184-11.023h125.982z"/><path fill="#E8E8E8" d="M15.748 78.739H141.73v125.982H15.748z"/><path fill="#FF4868" d="M115.274 128.147v-2.677c0-1.161-.04-1.634-.04-2.205-.04-1.634-.118-3.307-.414-4.783-.315-1.614-.728-3.091-1.457-4.567-.748-1.477-1.792-2.775-2.894-3.937-1.142-1.142-2.46-2.166-3.937-2.894-1.477-.748-2.933-1.162-4.567-1.457-1.476-.276-3.149-.374-4.783-.414-.571 0-1.043-.04-2.205-.04h-32.5c-1.162 0-1.634.04-2.205.04-1.634.04-3.307.118-4.783.414-1.614.315-3.09.728-4.567 1.457-1.477.748-2.775 1.791-3.937 2.894-1.142 1.142-2.165 2.421-2.894 3.937-.748 1.476-1.162 2.933-1.457 4.567-.276 1.476-.374 3.149-.414 4.783 0 .571-.039 1.043-.039 2.205V157.99c0 1.161.039 1.634.039 2.205.04 1.633.118 3.307.414 4.783.315 1.613.728 3.09 1.457 4.566.748 1.477 1.792 2.775 2.894 3.938 1.142 1.141 2.421 2.165 3.937 2.933 1.477.748 2.933 1.161 4.567 1.456 1.477.276 3.149.375 4.783.414.571 0 1.043.039 2.205.039h32.5c1.161 0 1.634-.039 2.205-.039 1.634-.039 3.307-.118 4.783-.414 1.614-.314 3.09-.729 4.567-1.456 1.477-.748 2.775-1.792 3.937-2.933 1.142-1.143 2.165-2.422 2.894-3.938.748-1.477 1.162-2.934 1.457-4.566.276-1.477.374-3.15.414-4.783 0-.571.04-1.044.04-2.205v-29.843z"/><path d="M50.176 134.289h11.457v3.662h-7.106v2.421h5.886v3.366h-5.886v5.413h-4.351v-14.862zM79.428 134.289h4.351l4.842 8.346h.04v-8.346h4.193v14.862h-4.469l-4.724-8.405h-.04v8.405h-4.193v-14.862zM94.487 134.289h12.814v3.721h-4.252v11.141h-4.35V138.01h-4.193l-.019-3.721z"/><g><path fill="#FFF" d="M70.078 133.974c-4.292 0-7.756 3.465-7.756 7.756s3.464 7.756 7.756 7.756c4.291 0 7.756-3.465 7.756-7.756s-3.465-7.756-7.756-7.756zm-2.107 11.26v-6.771l5.866 3.405-5.866 3.366z"/></g><g><path d="M158.364 105.569h6.142v1.949h-3.818v1.299h3.148v1.792h-3.148v2.894h-2.323v-7.934zM174.013 105.569h2.322l2.618 4.468h.04v-4.468h2.244v7.972h-2.402l-2.52-4.508h-.039v4.508h-2.244l-.019-7.972zM182.083 105.569h6.87v1.988h-2.264v5.984h-2.323v-5.984h-2.244v-1.988h-.039zM193.009 113.738a6.848 6.848 0 0 1-1.457-.158c-.434-.118-.827-.275-1.162-.512-.354-.216-.59-.512-.787-.846-.197-.354-.275-.748-.275-1.201h2.401c.04.315.157.571.413.689.256.157.531.216.945.216.118 0 .217 0 .354-.039.118-.04.216-.059.315-.118.098-.059.196-.118.256-.197a.594.594 0 0 0 .098-.315.597.597 0 0 0-.098-.315c-.06-.059-.158-.157-.276-.216s-.275-.118-.472-.158c-.197-.059-.414-.098-.67-.157-.354-.059-.67-.197-1.004-.275a4.173 4.173 0 0 1-.945-.433c-.275-.197-.512-.414-.688-.689-.196-.276-.275-.63-.275-1.063s.099-.847.256-1.162c.196-.315.413-.571.688-.787a2.655 2.655 0 0 1 1.043-.433c.414-.099.828-.118 1.26-.118.414 0 .788.039 1.201.118.375.098.729.216 1.004.433.275.216.531.433.729.748s.275.669.275 1.103h-2.303a.825.825 0 0 0-.275-.512c-.158-.118-.414-.197-.729-.197-.256 0-.473.059-.63.157-.157.099-.256.256-.256.414 0 .118.039.216.118.275.059.059.197.118.354.197.158.079.355.099.592.158.256.04.512.118.787.197.354.099.669.197.984.275.314.118.59.276.846.473s.434.433.591.729c.157.275.216.63.216 1.063s-.098.827-.275 1.161a2.96 2.96 0 0 1-.748.827c-.314.236-.669.374-1.102.512-.394.078-.827.156-1.299.156zM197.281 105.569h3.66c.513 0 .945.059 1.319.197s.689.315.945.531c.275.256.512.571.669.906.158.354.256.748.256 1.201 0 .374-.059.748-.197 1.063-.117.315-.314.59-.57.846s-.531.433-.846.571a3.33 3.33 0 0 1-1.104.197h-1.771v2.421h-2.322l-.039-7.933zm2.342 3.76h1.26a.943.943 0 0 0 .67-.256c.157-.158.256-.374.256-.669s-.06-.473-.256-.63c-.158-.158-.375-.256-.689-.256h-1.221l-.02 1.811zM204.937 105.569h2.323v7.972h-2.323v-7.972zM208.441 105.569h3.938c.414 0 .787.039 1.162.157.373.118.688.256.944.433.275.197.512.433.669.729.158.275.256.669.256 1.063 0 .472-.117.846-.354 1.161-.217.315-.532.571-.984.748v.04c.314.118.57.315.748.512.196.216.275.472.354.787.06.256.099.473.099.729s.04.473.04.689c0 .217.039.374.039.512.039.118.059.217.157.217v.118h-2.264c-.06-.04-.099-.118-.118-.256-.039-.118-.039-.276-.059-.473 0-.197-.04-.374-.04-.571s-.039-.374-.099-.571a1.268 1.268 0 0 0-.354-.689c-.158-.158-.414-.217-.748-.217h-1.063v2.776h-2.323v-7.894zm2.323 3.524h1.26c.354 0 .591-.059.748-.217a.883.883 0 0 0 .02-1.26c-.158-.157-.414-.256-.748-.256h-1.3v1.732h.02zM218.855 105.569h2.361l2.953 7.972h-2.461l-.373-1.162h-2.678l-.374 1.162h-2.303l2.875-7.972zm.314 5.197h1.635l-.513-1.536c-.06-.216-.118-.433-.196-.669-.039-.118-.06-.256-.099-.374h-.04c-.039.118-.059.256-.098.374-.059.217-.118.433-.197.669l-.492 1.536zM223.56 105.569h6.869v1.988h-2.283v5.984h-2.322v-5.984h-2.244v-1.988h-.02zM231.276 105.569h2.323v7.972h-2.323v-7.972zM238.48 113.738c-.629 0-1.161-.098-1.673-.315a4.154 4.154 0 0 1-1.26-.847 4.165 4.165 0 0 1-.827-1.319c-.196-.492-.275-1.063-.275-1.673 0-.591.099-1.142.275-1.634.197-.512.473-.945.827-1.319s.788-.669 1.26-.886c.512-.216 1.063-.315 1.673-.315.631 0 1.162.099 1.674.315.512.217.905.512 1.299.886.354.374.63.827.826 1.319.197.492.276 1.063.276 1.634 0 .59-.099 1.142-.276 1.673a3.935 3.935 0 0 1-.826 1.319 3.247 3.247 0 0 1-1.299.847c-.512.217-1.043.315-1.674.315zm0-1.87c.275 0 .512-.059.729-.157.217-.118.374-.276.531-.473.119-.197.256-.433.315-.728a4.196 4.196 0 0 0 0-1.811c-.06-.276-.196-.512-.315-.729a1.124 1.124 0 0 0-.531-.473c-.217-.118-.433-.157-.729-.157a1.67 1.67 0 0 0-.729.157 1.746 1.746 0 0 0-.531.473c-.117.216-.256.433-.314.729a4.25 4.25 0 0 0-.099.905c0 .315.04.63.099.906.059.275.197.512.314.728.119.197.315.354.531.473.237.098.454.157.729.157zM243.402 105.569h2.322l2.618 4.468h.04v-4.468h2.244v7.972h-2.422l-2.52-4.508v4.508h-2.244l-.038-7.972z"/><g><path fill="#FF4969" d="M169.013 105.412a4.143 4.143 0 0 0-4.154 4.153c0 2.303 1.852 4.154 4.154 4.154s4.153-1.851 4.153-4.154a4.166 4.166 0 0 0-4.153-4.153zm-1.142 6.023v-3.622l3.15 1.831-3.15 1.791z"/></g></g><g><path fill="#FFF" d="M158.364 168.56h6.142v1.949h-3.818v1.299h3.148v1.791h-3.148v2.895h-2.323v-7.934z"/><g fill="#FFF"><path d="M174.013 168.56h2.322l2.618 4.469h.04v-4.469h2.244v7.973h-2.402l-2.52-4.508h-.039v4.508h-2.244l-.019-7.973zM182.083 168.56h6.87v1.988h-2.264v5.984h-2.323v-5.984h-2.244v-1.988h-.039zM193.009 176.73c-.512 0-1.004-.06-1.457-.158-.434-.118-.827-.275-1.162-.512a2.722 2.722 0 0 1-.787-.846c-.197-.336-.275-.748-.275-1.201h2.401c.04.314.157.57.413.688.256.157.531.217.945.217.118 0 .217 0 .354-.04.118-.039.216-.059.315-.117.098-.06.196-.118.256-.197a.594.594 0 0 0 .098-.314.591.591 0 0 0-.098-.315 1.117 1.117 0 0 0-.276-.216 1.825 1.825 0 0 0-.472-.158c-.197-.059-.414-.098-.67-.157-.354-.06-.67-.196-1.004-.276a4.13 4.13 0 0 1-.945-.433 2.53 2.53 0 0 1-.688-.688c-.196-.275-.275-.631-.275-1.063s.099-.847.256-1.161c.196-.314.413-.57.688-.787a2.67 2.67 0 0 1 1.043-.434 6.743 6.743 0 0 1 1.26-.118c.414 0 .788.04 1.201.118.375.099.729.217 1.004.434s.531.433.729.748c.197.314.275.669.275 1.102h-2.303a.825.825 0 0 0-.275-.512c-.158-.117-.414-.196-.729-.196-.256 0-.473.059-.63.157s-.256.256-.256.414c0 .117.039.216.118.275.059.059.197.117.354.196.158.079.355.099.592.157.256.039.512.119.787.197.354.059.669.197.984.275.314.118.59.275.846.473s.434.434.591.729c.157.275.216.63.216 1.062 0 .434-.098.827-.275 1.162a2.97 2.97 0 0 1-.748.826c-.314.236-.669.374-1.102.512-.394.078-.827.157-1.299.157zM197.281 168.56h3.66c.513 0 .945.059 1.319.197.374.117.689.314.945.531.275.256.512.57.669.905.158.354.256.748.256 1.201 0 .374-.059.748-.197 1.063-.117.314-.314.59-.57.846s-.531.434-.846.57a3.305 3.305 0 0 1-1.104.197h-1.771v2.422h-2.322l-.039-7.932zm2.342 3.76h1.26a.939.939 0 0 0 .67-.256c.157-.157.256-.374.256-.669 0-.296-.06-.473-.256-.63-.158-.158-.375-.256-.689-.256h-1.221l-.02 1.811zM204.937 168.56h2.323v7.973h-2.323v-7.973zM208.441 168.56h3.938c.414 0 .787.039 1.162.158.373.117.688.256.944.433.275.196.512.433.669.728.158.276.256.67.256 1.063 0 .473-.117.847-.354 1.161-.217.315-.532.571-.984.748v.04c.314.118.57.315.748.512.196.216.275.472.354.787.06.256.099.473.099.729s.04.473.04.688c0 .217.039.375.039.512.039.119.059.217.157.217v.118h-2.264c-.06-.039-.099-.118-.118-.256-.039-.118-.039-.275-.059-.472 0-.197-.04-.375-.04-.571 0-.197-.039-.374-.099-.571a1.268 1.268 0 0 0-.354-.688c-.158-.157-.414-.217-.748-.217h-1.063v2.775h-2.323v-7.894zm2.323 3.523h1.26c.354 0 .591-.059.748-.217a.855.855 0 0 0 .276-.629c0-.256-.1-.473-.256-.631-.158-.156-.414-.256-.748-.256h-1.3v1.732h.02zM218.855 168.56h2.361l2.953 7.973h-2.461l-.373-1.162h-2.678l-.374 1.162h-2.303l2.875-7.973zm.314 5.197h1.635l-.513-1.535c-.06-.217-.118-.434-.196-.67-.039-.118-.06-.256-.099-.374h-.04c-.039.118-.059.256-.098.374-.059.217-.118.434-.197.67l-.492 1.535zM223.56 168.56h6.869v1.988h-2.283v5.984h-2.322v-5.984h-2.244v-1.988h-.02zM231.276 168.56h2.323v7.973h-2.323v-7.973zM238.48 176.73c-.629 0-1.161-.1-1.673-.315a4.172 4.172 0 0 1-1.26-.847 4.16 4.16 0 0 1-.827-1.318c-.196-.492-.275-1.063-.275-1.635 0-.59.099-1.141.275-1.633.197-.512.473-.945.827-1.319s.788-.669 1.26-.886c.512-.217 1.063-.314 1.673-.314.631 0 1.162.098 1.674.314s.905.512 1.299.886c.354.374.63.827.826 1.319.197.512.276 1.062.276 1.633 0 .592-.099 1.143-.276 1.635a3.93 3.93 0 0 1-.826 1.318c-.354.374-.787.67-1.299.847-.512.215-1.043.315-1.674.315zm0-1.871c.275 0 .512-.059.729-.157a1.72 1.72 0 0 0 .531-.472c.119-.197.256-.434.315-.729a4.19 4.19 0 0 0 0-1.811c-.06-.275-.196-.512-.315-.728a1.114 1.114 0 0 0-.531-.473c-.217-.119-.433-.158-.729-.158-.275 0-.531.06-.729.158a1.72 1.72 0 0 0-.531.473c-.117.216-.256.433-.314.728a4.258 4.258 0 0 0-.099.905c0 .315.04.631.099.906s.197.512.314.729c.119.196.315.354.531.472.237.098.454.157.729.157zM243.402 168.56h2.322l2.618 4.469h.04v-4.469h2.244v7.973h-2.422l-2.52-4.508v4.508h-2.244l-.038-7.973z"/></g><path fill="#FFF" d="M169.013 168.403c-2.303 0-4.154 1.851-4.154 4.153s1.852 4.153 4.154 4.153 4.153-1.851 4.153-4.153a4.166 4.166 0 0 0-4.153-4.153zm-1.142 6.023v-3.622l3.15 1.83-3.15 1.792z"/></g></svg>