<svg xmlns="http://www.w3.org/2000/svg" width="611.6" height="88.4" viewBox="301 662.6 611.6 88.4"><path fill="#1A1A1A" d="M346.9 702.7c4.8-4.3 7.3-9.8 7.3-18.3 0-10.301-6.101-21.5-32.101-21.5H301v87.4h28.3c6 0 11-.5 15-1.6 3.7-1.101 17.5-7.7 17.5-23.3 0-14.7-10.2-21.1-14.9-22.7zM319 677.9h4.6c4.4 0 7.9.6 10.2 2.199 2.3 1.601 3.3 4.301 3.3 7.5 0 3.301-.899 6.2-3.199 7.9-2.2 1.7-6 2-10.801 2H319V677.9zm20.1 55c-2.6 2.1-6.899 2.8-12.399 2.8H319v-23.4h6.2c6.6 0 11.5.3 14.1 2.601 2.601 2.3 3.601 5.899 3.601 9.199.099 3.3-1.101 6.5-3.801 8.8zm110.3-44.4c0-16-10.4-25.7-34.9-25.7h-19.4v87.5h17.1v-34.9l22.4 34.9h21.5l-26-37.3c10.7-1.6 19.3-9 19.3-24.5zm-33.5 14.1h-3.5v-22.8h3.899c12.2 0 15.2 2.601 15.2 11 .001 7.9-5.199 11.8-15.599 11.8zm307.3-24.1c-7.101 8.4-10.7 17.9-10.7 28.6 0 11.9 4.3 22.101 12.8 30.5 8.5 8.4 18.9 12.601 30.9 12.601 8 0 15.7-2.101 23-6.2v-17.3c-2.5 1.6-12.101 6.8-19.4 6.8-7.399 0-13.6-2.6-18.7-7.7s-7.6-11.5-7.6-18.899c0-7.601 2.5-14 7.6-19.2 5.101-5.3 11.301-7 18.7-7 6.7 0 13.5 2.2 19.5 6.899v-20c-7.2-3-14.399-4.5-22-4.5-14-.001-25.3 5.099-34.1 15.399zm-234.9 71.8H506v-87.4h-17.7v87.4zm49.4-69.8h18v69.8h17.7v-69.8h18v-17.6h-53.7v17.6zm123.3-8.4h-17.7v25.7h-25.9v17.6h25.9v25.7H661v-25.7h25.9v-17.6H661v-25.7zM895.1 733v17.3h17.5V733h-17.5zm-49.7-70.4c-24.101 0-43.7 19.801-43.7 44.2 0 24.4 19.6 44.2 43.7 44.2s43.699-19.8 43.699-44.2C889 682.4 869.5 662.6 845.4 662.6zm0 71.2c-14.7 0-26.7-12.1-26.7-27 0-14.899 11.899-27 26.7-27 14.699 0 26.699 12.101 26.699 27-.099 14.9-11.999 27-26.699 27z"/></svg>