<svg xmlns="http://www.w3.org/2000/svg" preserveAspectRatio="xMidYMid" width="40" height="40" viewBox="0 0 40 40"><defs><style>.cls-1{fill:#7c1a0d;fill-rule:evenodd}</style></defs><path d="M20 40C8.954 40 0 31.046 0 20 0 8.955 8.954.001 20 .001S40 8.955 40 20c0 11.046-8.954 20-20 20zm10-28a2 2 0 0 0-2-2H12a2 2 0 0 0-2 2v16a2 2 0 0 0 2 2h8.02v-6.999h-3.031v-3.065h3.031v-2.387c0-2.584 1.955-4.437 4.26-4.437 1.104 0 1.455.117 1.732.154v2.8l-1.542-.001c-1.253 0-1.488.759-1.488 1.633v2.238h4.029l-1.002 3.065h-3.027V30H28a2 2 0 0 0 2-2V12z" class="cls-1"/></svg>