<svg xmlns="http://www.w3.org/2000/svg" preserveAspectRatio="xMidYMid" width="40" height="40" viewBox="0 0 40 40"><defs><style>.cls-1{fill:#7c1a0d;fill-rule:evenodd}</style></defs><path d="M20 40C8.954 40 0 31.046 0 20 0 8.955 8.954.001 20 .001S40 8.955 40 20c0 11.046-8.954 20-20 20zm10-28a2 2 0 0 0-2-2H12a2 2 0 0 0-2 2v16a2 2 0 0 0 2 2h16a2 2 0 0 0 2-2V12zm-3 16.001H13A1 1 0 0 1 12 27v-8h2.101A5.988 5.988 0 0 0 14 20a6 6 0 1 0 12 0c0-.343-.046-.673-.101-1H28v8a1 1 0 0 1-1 1.001zM26 16a2 2 0 1 1 0-4 2 2 0 0 1 0 4zm-6 8a4 4 0 1 1 0-8 4 4 0 0 1 0 8z" class="cls-1"/></svg>