<svg xmlns="http://www.w3.org/2000/svg" preserveAspectRatio="xMidYMid" width="40" height="40" viewBox="0 0 40 40"><defs><style>.cls-1{fill:#7c1a0d;fill-rule:evenodd}</style></defs><path d="M20 40C8.954 40 0 31.046 0 20 0 8.955 8.954.001 20 .001S40 8.955 40 20c0 11.046-8.954 20-20 20zm10.435-26.713a8.313 8.313 0 0 1-2.604.981 4.12 4.12 0 0 0-2.992-1.276c-2.265 0-4.101 1.809-4.101 4.039 0 .317.037.625.107.921a11.699 11.699 0 0 1-8.451-4.22 3.973 3.973 0 0 0-.555 2.03c0 1.402.724 2.639 1.824 3.363a4.138 4.138 0 0 1-1.857-.505l-.001.05c0 1.956 1.414 3.59 3.289 3.961a4.218 4.218 0 0 1-1.851.069c.521 1.605 2.036 2.772 3.83 2.805a8.306 8.306 0 0 1-5.092 1.728c-.331 0-.657-.019-.978-.054a11.729 11.729 0 0 0 6.285 1.813c7.541 0 11.665-6.154 11.665-11.493 0-.175-.004-.35-.012-.522a8.276 8.276 0 0 0 2.046-2.09 8.258 8.258 0 0 1-2.355.635 4.063 4.063 0 0 0 1.803-2.235z" class="cls-1"/></svg>