<svg xmlns="http://www.w3.org/2000/svg" viewBox="0 0 32 80"><path d="M5.6 68.3c-1.7.2-3.3 1-4.4 2.4C.1 72.1-.2 73.9.1 75.5c1.7-.2 3.3-1 4.4-2.4 1.1-1.5 1.4-3.2 1.1-4.8zM10.2 78.5c-1-1.3-2.5-2.3-4.3-2.5-1.9-.2-3.6.4-4.9 1.5 1 1.3 2.5 2.3 4.3 2.5 1.9.2 3.6-.4 4.9-1.5zM12.2 63.9c-1.5.5-2.8 1.6-3.5 3.2-.7 1.6-.6 3.3.1 4.7 1.5-.5 2.8-1.6 3.5-3.2.7-1.6.6-3.3-.1-4.7zM18.9 72.4c-1.2-1-2.9-1.6-4.6-1.4-1.7.2-3.2 1.1-4.1 2.4 1.2 1 2.9 1.6 4.6 1.4 1.7-.2 3.1-1.1 4.1-2.4zM17 58.4c-1.3.8-2.2 2.2-2.4 3.8-.2 1.6.3 3.1 1.3 4.3 1.3-.8 2.2-2.2 2.4-3.8.2-1.6-.3-3.1-1.3-4.3zM25.2 64.7c-1.4-.7-3.1-.8-4.6-.2-1.5.6-2.7 1.8-3.2 3.2 1.4.7 3.1.8 4.6.2 1.6-.6 2.7-1.8 3.2-3.2zM20.2 52.1c-1 1.1-1.5 2.5-1.3 4.1.2 1.5 1 2.8 2.2 3.7 1-1.1 1.5-2.5 1.3-4.1-.1-1.6-1-2.9-2.2-3.7zM29.4 56c-1.4-.3-3 0-4.3.9-1.3.9-2 2.3-2.2 3.7 1.4.3 3 0 4.3-.9 1.3-.9 2-2.3 2.2-3.7zM22.2 45.2c-.7 1.2-.8 2.7-.4 4 .5 1.4 1.6 2.4 2.9 3 .7-1.2.8-2.7.4-4-.6-1.5-1.6-2.5-2.9-3zM31.5 46.9c-1.4 0-2.8.6-3.8 1.7s-1.4 2.5-1.2 3.9c1.4 0 2.8-.6 3.8-1.7s1.4-2.6 1.2-3.9zM22.7 37.9c-.4 1.2-.3 2.6.5 3.8.7 1.2 1.9 2 3.2 2.2.4-1.2.3-2.6-.5-3.8-.7-1.2-1.9-1.9-3.2-2.2zM31.7 37.8c-1.3.3-2.5 1.1-3.2 2.3-.7 1.2-.8 2.6-.4 3.8 1.3-.3 2.5-1.1 3.2-2.3.8-1.2.9-2.5.4-3.8z"/><g><path d="M22 31.2c-.2 1.2.2 2.5 1.1 3.5.9 1 2.1 1.5 3.4 1.6.2-1.2-.2-2.5-1.1-3.5-.9-1.1-2.2-1.6-3.4-1.6zM30.4 29.7c-1.2.5-2.1 1.4-2.6 2.6-.4 1.2-.3 2.6.3 3.6 1.2-.5 2.1-1.4 2.6-2.6.4-1.3.3-2.6-.3-3.6z"/></g><g><path d="M20 24.6c0 1.2.6 2.3 1.6 3.1 1 .8 2.2 1.1 3.4.9 0-1.2-.6-2.3-1.6-3.1-1-.8-2.2-1.1-3.4-.9zM27.6 21.9c-1 .6-1.7 1.6-2 2.8-.2 1.2.1 2.4.9 3.3 1-.6 1.7-1.6 2-2.8.1-1.2-.2-2.4-.9-3.3z"/></g><g><path d="M16.9 18.3c.2 1.1.9 2 1.9 2.6 1 .6 2.2.7 3.3.4-.2-1.1-.9-2-1.9-2.6-1-.6-2.2-.7-3.3-.4zM23.5 14.7c-.8.7-1.4 1.8-1.4 2.9 0 1.2.5 2.2 1.3 2.9.8-.7 1.4-1.8 1.4-2.9 0-1.1-.5-2.2-1.3-2.9z"/></g><g><path d="M12.8 12.9c.4.9 1.2 1.7 2.2 2.1 1.1.4 2.2.3 3.1-.2-.4-.9-1.2-1.7-2.2-2.1-1-.4-2.2-.3-3.1.2zM18.2 8.5c-.6.8-1 1.8-.8 2.9.2 1.1.8 2 1.7 2.5.6-.8 1-1.8.8-2.9-.1-1.1-.8-2-1.7-2.5z"/></g><g><path d="M7.9 8.5c.5.8 1.4 1.4 2.4 1.5 1 .2 2-.1 2.8-.7-.5-.8-1.4-1.4-2.4-1.5-1-.2-2 .1-2.8.7zM12 3.5c-.4.8-.5 1.9-.1 2.8.4.9 1.1 1.6 2.1 2 .4-.8.5-1.9.1-2.8-.4-1-1.2-1.7-2.1-2z"/></g><g><path d="M2.4 5.4c.6.6 1.5.9 2.5.8 1-.1 1.8-.6 2.3-1.3-.6-.6-1.6-.9-2.5-.8-1 .1-1.8.6-2.3 1.3zM4.9 0c-.2.8 0 1.8.5 2.5.6.8 1.4 1.3 2.3 1.4.2-.8 0-1.8-.5-2.5C6.6.5 5.8.1 4.9 0z"/></g></svg>