<svg id="Layer_1" xmlns="http://www.w3.org/2000/svg" viewBox="-165 327 280 140"><style>.st0{fill:#962415}</style><path class="st0" d="M-85.5 394l-7.7-1.2c-3.8-.6-6.2-1.4-6.2-3.3 0-2.1 3.1-3.5 7.8-3.5 6.2 0 12 1.7 13.3 6.6h3v-9h-3l-.1 1s.2 1.4-1.8.5c-3.3-1.6-7.7-2.2-11.6-2.2-8.4 0-14.2 3.2-14.3 8.1-.1 5 4.7 6.8 13.2 8.2l6.1.6c4.4.7 6.5 1.9 6.5 3.9 0 2.2-2.7 3.4-7.8 3.4-7 0-13.1-2.2-14.3-7.4h-2.9v10.1h3.2c.1-2.6 2.4-1.6 2.4-1.6 3.9 1.7 8.3 2.3 12.2 2.3 8.5 0 14.3-3.5 14.3-8.4-.3-5.1-4.2-6.8-12.3-8.1zm36.5-11.1c-11.4 0-19 5.6-19 13.9s7.5 14 19 14c11.4 0 18.9-5.6 18.9-14 0-8.3-7.5-13.9-18.9-13.9zm0 24.8c-6.7 0-10.9-3.9-10.9-10.9S-55.7 386-49 386s10.8 3.9 10.8 10.8c0 7-4.1 10.9-10.8 10.9zm48-20.9H.7c3 0 3.4.2 3.4 2.3v11L-13.7 384H-26v2.9h1.7c3 0 3.4.2 3.4 2.4v14.9c0 2.1-.4 2.3-3.4 2.3h-1.9v2.9l15.3-.1.1-2.8h-1.8c-3 0-3.4-.2-3.4-2.3V392l19.5 17.5h5.3v-20.2c0-2.1 0-2.4 3-2.4h1.6V384l-14.4-.1v2.9zm42.8-2.7v2.9h2.3c1.3 0 2.1.2 2.1.7 0 .4-.3.7-.7 1.1l-6.8 7.2-6.4-6.9c-.5-.5-.8-.9-.8-1.2 0-.6.9-.8 2.5-.8h.4v-2.9H17.1v2.9h1.2c2.3 0 3.8.9 5.5 2.6l9.4 9.8v4.9c0 2.1-.5 2.3-3.8 2.3H28v2.9h17.1v-2.9h-.6c-3.3 0-3.8-.2-3.8-2.3v-4.9l9.8-10.7c1.3-1.2 2.3-1.7 4.4-1.7h1.3v-2.9l-14.4-.1z"/></svg>