<svg id="Layer_1" xmlns="http://www.w3.org/2000/svg" viewBox="-165 327 280 140"><style>.st0{fill:#962415}.st1{fill:#fff;stroke:#962415;stroke-width:1.8206}</style><path class="st0" d="M-72.6 362.5l8.7 26.1h3.6l7.7-28.7h-2.6L-62 386l-8.9-26.1h-3.2l-8.6 26.1h-.1l-6.8-26.1h-2.8l7.6 28.7h3.7l8.5-26.1zM-48.8 368.6v20h2.4v-20h-2.4zm2.6-8.7H-49v3h2.8v-3zM-22.5 379.2c0-6.2-2.5-11.1-9.3-11.1-6 0-9.1 5.2-9.1 10.6 0 5.5 2.8 10.6 8.9 10.6 4.9 0 7.9-2.2 9.2-7h-2.6c-.6 2.7-3 4.8-5.9 4.8-5 0-7-3.6-7.1-7.8.2-.1 15.9-.1 15.9-.1zm-15.7-2.2c.3-3.5 2.4-6.8 6.4-6.8 4.2 0 6.3 2.9 6.6 6.8h-13zM-3.3 378.1c0 4.5-1.6 8.9-6.9 8.9-4.7 0-5.8-5.1-5.8-8.8 0-3.8 1.5-8 6.1-8 4.8 0 6.6 3.9 6.6 7.9zm.2 10.5h2.5c-.1-1.4-.2-2.9-.2-4.5v-24.2h-2.4v11.7l-.1.1c-1.4-2.4-4.3-3.6-7-3.6-6 0-8.4 5.3-8.4 10.5 0 5 2.3 10.7 8.4 10.7 2.8 0 5.3-1.3 7-3.7l.1.2.1 2.8zM22.6 379.2c0-6.2-2.5-11.1-9.3-11.1-6 0-9.1 5.2-9.1 10.6 0 5.5 2.8 10.6 8.9 10.6 4.9 0 7.9-2.2 9.2-7h-2.6c-.6 2.7-3 4.8-5.9 4.8-5 0-7-3.6-7.1-7.8.2-.1 15.9-.1 15.9-.1zM7 377c.3-3.5 2.4-6.8 6.4-6.8 4.2 0 6.3 2.9 6.6 6.8H7zM30.6 377.1c0-3.6 1.8-6.9 5.8-6.9 3.3 0 5.3 2 5.3 5.5v12.9h2.4v-12.5c0-2.3-.5-8.1-7.2-8.1-2.6 0-4.9 1.2-6.4 3.6l-.1-.1-.1-2.9h-2.5c.1 1.4.2 2.9.2 4.5v15.5h2.4l.2-11.5zM-106.3 430.6v-15l14 15h3.6l-14.7-15.8 13.5-13h-3.3l-13.1 12.7v-12.7h-2.6v28.7l2.6.1zM-67.8 421.1c0-6.2-2.5-11.1-9.3-11.1-6 0-9.1 5.2-9.1 10.6 0 5.5 2.8 10.6 8.9 10.6 4.9 0 7.9-2.2 9.2-7h-2.6c-.6 2.7-3 4.8-5.9 4.8-5 0-7-3.6-7.1-7.8l15.9-.1zm-15.7-2.1c.3-3.5 2.4-6.8 6.4-6.8 4.2 0 6.3 2.9 6.6 6.8h-13zM-59.9 419.1c0-3.6 1.8-6.9 5.8-6.9 3.3 0 5.3 2 5.3 5.5v12.9h2.4v-12.5c0-2.3-.5-8.1-7.2-8.1-2.6 0-4.9 1.2-6.4 3.6l-.1-.1-.1-2.9h-2.5c.1 1.4.2 2.9.2 4.5v15.5h2.4l.2-11.5zM-37.4 419.1c0-3.6 1.8-6.9 5.8-6.9 3.3 0 5.3 2 5.3 5.5v12.9h2.4v-12.5c0-2.3-.5-8.1-7.2-8.1-2.6 0-4.9 1.2-6.4 3.6l-.1-.1-.1-2.9h-2.5c.1 1.4.2 2.9.2 4.5v15.5h2.4l.2-11.5zM-.1 421.1c0-6.2-2.5-11.1-9.3-11.1-6 0-9.1 5.2-9.1 10.6 0 5.5 2.8 10.6 8.9 10.6 4.9 0 7.9-2.2 9.2-7h-2.5c-.6 2.7-3 4.8-5.9 4.8-5 0-7-3.6-7.1-7.8l15.8-.1zm-15.6-2.1c.3-3.5 2.4-6.8 6.4-6.8 4.2 0 6.3 2.9 6.6 6.8h-13zM19.4 420.1c0 4.5-1.6 8.9-6.9 8.9-4.7 0-5.8-5.1-5.8-8.8 0-3.8 1.5-8 6.1-8 4.8 0 6.6 3.8 6.6 7.9zm.2 10.5h2.5c-.1-1.4-.2-2.9-.2-4.5v-24.2h-2.4v11.7l-.1.1c-1.4-2.4-4.3-3.6-7-3.6-6 0-8.4 5.3-8.4 10.5 0 5 2.3 10.7 8.4 10.7 2.8 0 5.3-1.3 7-3.7l.1.2.1 2.8zM25.2 410.6l8.4 20-3.1 7.6h2.7l11.2-27.6h-2.6L35 427.3l-6.9-16.7h-2.9z"/><g><path class="st1" d="M55.5 388.6v22M44.2 399.6h22.5"/></g></svg>