<svg id="Layer_1" xmlns="http://www.w3.org/2000/svg" viewBox="-165 327 280 140"><style>.st0{fill:#962415}</style><path class="st0" d="M-126.7 394.9h-6.9v6.8h6.9v-6.8zm-6.6-18.6l-.3 13.4 1.7.1c.3-3 .7-4.6 1.4-6.2 1.4-3 4.2-4.8 7.7-4.8h1.2v27.6c0 2.9-.2 3.9-.9 4.5-.6.5-1.8.8-3.1.8h-1.4v1.8h16.1v-1.8h-1.4c-1.3 0-2.5-.2-3.1-.8-.7-.7-.9-1.6-.9-4.5v-27.6h.9c5.7 0 8.4 3 9.5 11l1.8-.1-.2-13.4h-29zm22.1 25.4h7v-6.8h-6.9l-.1 6.8zm22.5-6.8v6.8h6.9v-6.8h-6.9zm22.5 6.8h6.9v-6.8h-6.9v6.8zm27.4 2.3l-7.6-26.1h-10.3v1.7h1c2.8 0 3.3.6 3.3 4.2v20.6c0 3.3-.2 4.6-.6 5.6-.5 1-1.7 1.6-2.8 1.6h-.9v1.8h11v-1.8h-.7c-1.4 0-2.5-.5-3.1-1.6-.6-1-.8-2-.8-5.7v-23.2l9.3 32.3h1.7l9.4-32.3v25.3c0 2.8-.2 3.7-.8 4.4-.5.5-1.6.8-2.8.8h-.5v1.8h13.3v-1.8h-.7c-1.2 0-2.3-.2-2.8-.8-.6-.7-.8-1.6-.8-4.4v-21.6c0-2.8.2-3.8.8-4.5.5-.4 1.6-.7 2.8-.7h.7v-1.7H-31l-7.8 26.1zm29.5-15.8c-6.6 0-10.9 5.1-10.9 13.1 0 7.7 4.3 12.9 10.7 12.9 6.5 0 10.8-5.2 10.8-13 .1-7.7-4.3-13-10.6-13zm-.1 24.3c-3.8 0-5.6-3.7-5.6-11.4 0-3.6.4-6.1 1.2-8 .8-1.9 2.6-3.2 4.3-3.2 1.9 0 3.6 1.2 4.5 3.2.8 1.9 1.2 4.4 1.2 8.1 0 7.5-1.9 11.3-5.6 11.3zm25.6-24.1c-3 0-5.1 1.4-6.3 4v-14.6l-7.5.3v1.6h.4c2.2 0 2.7.6 2.7 4.1v24.3c0 3.1-.1 4-.5 5.3h1.8c1.3-2.2 1.6-2.5 2.2-2.5.3 0 .5.1.9.4 2.6 2.1 3.7 2.5 6.1 2.5 5.7 0 9.9-5.5 9.9-13.2-.1-7.3-4-12.2-9.7-12.2zm-.8 23.7c-3.8 0-5.8-3.9-5.8-11 0-3.6.5-6.1 1.6-7.9 1-1.8 2.7-2.9 4.3-2.9 3.4 0 5.2 3.6 5.2 10.6-.1 7.4-1.9 11.2-5.3 11.2zm17.9-28.4c1.7 0 2.9-1.3 2.9-2.9 0-1.6-1.3-3-2.9-3-1.6 0-3 1.3-3 3 0 1.5 1.4 2.9 3 2.9zm2.5 23.7v-18.9l-7.8.5v1.6h.6c2.2 0 2.7.7 2.7 4.2v12.6c0 3.4-.5 4.3-2.7 4.3h-.8v1.7h11.6v-1.7h-.8c-2.3 0-2.8-.7-2.8-4.3zm13.5 0v-29.7l-7.8.3v1.6h.6c2.2 0 2.7.6 2.7 4.1v23.6c0 3.5-.5 4.3-2.7 4.3h-.8v1.7h11.6v-1.7H52c-2.2.1-2.7-.6-2.7-4.2zm14.8-19.2c-5.6 0-9.6 5.4-9.6 12.9 0 8 4 13.2 10.1 13.2 4 0 6.7-2.1 9-6.7l-1.6-.8c-1.9 3.9-3.7 5.5-6.6 5.5-4.2 0-6-3.3-6.1-11.1H74c-.2-8.1-4.1-13-9.9-13zm-4.6 10.9c0-5.6 1.9-9.1 4.9-9.1 3 0 4.7 3.4 4.7 9.1h-9.6zm21.2-4.2l.1 6.8h6.9v-6.8h-7z"/></svg>