<svg id="Layer_1" xmlns="http://www.w3.org/2000/svg" viewBox="-165 327 280 140"><style>.st0{fill:#962415}</style><path class="st0" d="M74.5 408.3l-2.2-5.9h-8.9l-2.2 5.9h-6.7l10-24.8h6.7l10 24.8h-6.7zm-6.6-19.9l-3.3 9.9h6.7l-3.4-9.9zm-20 19.9h-5v-19.9h-8.3v-5h21.6v5h-8.3v19.9zm-26.5.2c-7.1 0-12.9-5.8-12.9-12.8 0-7.1 5.8-12.8 12.9-12.8s12.9 5.8 12.9 12.8c0 7.1-5.8 12.8-12.9 12.8zm0-20.9c-4 0-7.2 3.6-7.2 8.1s3.2 8.1 7.2 8.1 7.2-3.6 7.2-8.1-3.2-8.1-7.2-8.1zM-2 408.3h-5v-9.9l-9.8-14.9h6.4l5.9 10.3 5.9-10.3h6.4l-10 14.9.2 9.9zm-28.2.2c-7.1 0-12.9-5.8-12.9-12.8 0-7.1 5.8-12.8 12.9-12.8 7.1 0 12.9 5.8 12.9 12.8 0 7.1-5.8 12.8-12.9 12.8zm0-20.9c-4 0-7.2 3.6-7.2 8.1s3.2 8.1 7.2 8.1 7.2-3.6 7.2-8.1-3.2-8.1-7.2-8.1zM-52 408.3h-5v-19.9h-8.3v-5h21.6v5H-52v19.9zm-49.9 6.6c-15.6 0-28.3-8.2-28.3-18.2 0-9.2 10.5-16.8 24.2-18h.2c.5 0 1.1-.1 1.6-.1h4.6c.5 0 1.1.1 1.6.1h.2c13.7 1.3 24.2 8.9 24.2 18 0 10-12.7 18.2-28.3 18.2zm0-18.2c-1.1 0-2.2 0-3.3-.1.1 5.6 1.6 10.1 3.3 10.1 1.8 0 3.2-4.4 3.3-10.1-1.1 0-2.2.1-3.3.1zm3-5.1c-.5-3.8-1.7-6.5-3.1-6.5s-2.6 2.7-3.1 6.5c1 .1 2 .1 3.1.1s2.2 0 3.1-.1zm-26.3 5.1c0 7.6 8.8 13.8 20.2 14.8-2.1-2.6-3.6-7.9-3.6-13.9v-1.4c-6.9-1.1-12.1-3.9-13.1-7.3-2.2 2.2-3.5 4.9-3.5 7.8zm36.5-12.3c-3.8-1.7-8.3-2.6-13.2-2.6-4.9 0-9.5 1-13.2 2.6-1.1.7-1.7 1.5-1.7 2.3 0 2 3.6 3.8 8.9 4.5 1-5.6 3.4-9.5 6.1-9.5s5.1 3.9 6.1 9.5c5.2-.8 8.9-2.5 8.9-4.5-.1-.8-.8-1.6-1.9-2.3zm6.6 4.4c-1 3.4-6.2 6.2-13.1 7.3v1.4c0 6.1-1.4 11.3-3.6 13.9 11.4-1 20.2-7.2 20.2-14.8 0-2.8-1.3-5.5-3.5-7.8z"/></svg>