<svg id="Layer_1" xmlns="http://www.w3.org/2000/svg" viewBox="-165 327 280 140"><style>.st0{fill:#962415}</style><path class="st0" d="M-90.3 393.1c-1.2 5.2-3.1 10.2-5.7 14.9l-.2.3c-.4.7-.8 1.4-1.3 2.2-1.1 1.8-3.6 5.2-3.8 5.4-3 3.8-6.5 7.2-10.4 10.2-3.9-2.9-7.4-6.4-10.4-10.2l-.1-.1c-.4-.4-.7-.9-1-1.3-.9-1.1-1.7-2.4-2.5-3.6-.4-.7-.8-1.3-1.2-2l-.2-.3-.2-.3c-2.7-4.8-4.7-9.9-5.9-15.1l42.9-.1m1-.8H-134c1.2 5.8 3.3 11.3 6.2 16.4.5.9 1 1.7 1.5 2.5.8 1.3 1.6 2.5 2.5 3.7.4.5.7 1 1.1 1.5 3.2 4 6.9 7.6 11 10.7 4.1-3.1 7.8-6.7 11.1-10.7 0 0 2.7-3.6 3.8-5.5.4-.7.9-1.5 1.3-2.2 2.7-4.8 4.7-10 6-15.6.1-.3.2-.6.2-.8z"/><path class="st0" d="M-95.4 408.7l-16.3-15.6-9.4 9.1-6.8 6.5c.5.9 1 1.7 1.5 2.5.8 1.3 1.6 2.5 2.5 3.7.4.5.7 1 1.1 1.5l11-10.7 11.1 10.8c1.4-1.8 2.7-3.6 3.8-5.5.6-.8 1-1.5 1.5-2.3zM-88.3 375.7c-1.9.6-3.9.9-6 .9-7.4 0-13.9-3.9-17.4-9.7-3.5 5.8-10 9.7-17.4 9.7-2.1 0-4.1-.3-6-.9-.5 5.6-.1 11.2 1 16.6h44.8c1.2-5.6 1.5-11.2 1-16.6zm-13.3 14.4h-.2s-2 .3-3.8.3-3.9-.2-4.6-.3v.5h-.1s-.7.3-1.4.3-1.4-.3-1.4-.3h-.1v-.5c-.7.1-2.8.3-4.6.3s-3.8-.3-3.8-.3h-.2v-10.9l1.4-.3v-1.6l.4.4s.4.4 2.1.4l2.4-.3 2-.3c1.1 0 1.6.4 1.8.7.2-.2.8-.7 1.8-.7l2 .3 2.4.3c1.8 0 2.2-.4 2.2-.4l.4-.4v1.5l1.3.4v10.9zM84.8 376.7c0-.1 0-.2-.1-.3H77.8c-.1 0-.1.3-.1.4 0 .1 0 .3.1.4.4.1 1.7.2 2.3.7.4.4.6 1.4.7 2.2v7.1c-.4-.4-.9-1.2-1.8-2.2l-7.4-8.2-.3-.3h-.7c-1.4 0-4-.1-4.4-.1 0 .1-.1.2-.1.3 0 0 0 .4.1.4.3.1 1.1.2 1.7.9.4.4 1 .9 1.2 1.4.1.2.1.4.1.7 0 1.1-.1 2.8-.1 4.3v4.5c0 .7 0 1.3-.1 1.7-.4.5-1.2.9-2.3 1.1 0 .1-.1.3-.1.4 0 .1 0 .3.1.3h.4c.4 0 1.5-.1 2.1-.1 1 0 1.6.1 2.5.1H73c.1 0 .1-.3.1-.4s0-.3-.1-.4c-.8-.2-1.9-.4-2.7-1.4-.2-.3-.3-2-.3-2.7v-3-4c.1.2.3.4.4.5l10.2 11.5c.1.1.5.1.6.1h.3c0-.1.2-.4.2-1V380.8c0-2.8 1.3-3.6 2.8-3.6.2-.1.3-.3.3-.5m-25.4 7.1c0 3.3-.9 6.3-2.2 7.4-.7.5-1.4.8-2.4.8-1.2 0-2.3-.5-2.9-1.5-.9-1.3-1.3-3.7-1.3-5.8 0-3.1.8-5.5 2.2-6.7.7-.6 1.5-.9 2.3-.9 1.2 0 2.4.6 3 1.5.9 1.2 1.3 2.9 1.3 5.2m4 .4c0-3.1-1.4-5.5-4-6.9-1.4-.8-2.7-1.1-4.2-1.1-3.2 0-6.2 1.9-7.5 4.1-.9 1.4-1.3 2.9-1.3 4.5 0 2.5 1.2 5.1 3.2 6.5 1.5 1.1 3.1 1.6 5.1 1.6 1.2 0 2.3-.2 3.3-.7 1.2-.4 2.2-1.2 3.1-2.1 1.5-1.6 2.3-3.6 2.3-5.9m-19.5-2.8v-4.5c0-.3-.1-.4-.4-.4-.7 0-4.2.1-7.7.1h-7.9c-.3 0-.4.1-.4.4v4.2c.1.1.2.1.4.1h.5c1-2 1.9-3.1 3.1-3.7.7-.1 2-.1 2.3-.1 0 .2 0 1 .1 2v6c0 3.3 0 4.7-.1 5.1-.1.6 0 1.1-2.7 1.2-.1.2-.1.3-.1.5v.4h.9c.8 0 2.7-.1 3.6-.1.7 0 2.7.1 4 .1h.6c.1-.1.1-.4.1-.4 0-.1 0-.3-.1-.4-.2 0-1.7 0-2.3-.4-.1-.2-.2-.9-.2-1.7v-4.9-7.3h1.7c1.4.4 2 .9 2.7 1.7.4.5.8 1.4 1.2 2.4h.4c0-.2.3-.2.3-.3m-19.1 7.2v-.7c-.1-.1-.2-.1-.3-.1H24c-.7 1.7-1.8 3-2.5 3.4-.3.2-.9.2-1.7.2H18c-.7 0-1.3-.1-1.5-.1-.3-.1-.7-.6-.9-.9-.2-.4-.2-.4-.2-1.4v-4.8h.8c.2 0 .7 0 1.3.3.6.2.8.6 1 .9.2.3.3 1.5.4 1.8.1.1.4.1.6.1s.3 0 .4-.1c0-.6-.1-2.2-.1-3.1 0-1.1.2-2.6.2-3.4-.1 0-.2-.1-.4-.1s-.4 0-.6.1c-.1.3-.3 1.2-.4 1.3-.3.6-.9 1-1.5 1.1-.4.1-1 .2-1.3.2h-.4v-2c0-2.1 0-2.8.1-3.2 0-.2.1-.6.1-.7H19c.6 0 1.1.2 1.4.4.9.7 1.5 1.7 2.1 2.7h.4c.1 0 .2 0 .3-.1 0-1.3-.1-3.1-.1-3.7 0-.2-.1-.3-.5-.3H9.3c-.1.1-.1.2-.1.4s0 .4.1.4c.3.1 1.3.1 1.6.2.3.2.6.4.8 1.4 0 .4.1 1.8.1 2.8V389c0 .9-.4 1.9-.5 2.1-.2.2-1.1.3-2 .3-.1.1-.1.4-.1.5s0 .3.1.4h.7c.7 0 3.3-.1 3.9-.1h2.9c.7 0 2.8.1 7.3.1h.6c.1-.1.1-.2.1-.4v-3.3m-18.8.8c-.1-.2-.2-.5-.7-.5h-.2c-1.3 1.9-2.8 2.6-4.5 2.6-2.3 0-4-1.6-4.5-2.9-.3-.7-.7-2.3-.7-4 0-1.6.2-2.9.7-3.9 1-2.6 2.4-3.3 4.1-3.3 1.4 0 2.7.8 3.6 2 .4.5.8 1.5 1.1 2.7.1 0 .3.1.5.1.1 0 .4-.1.5-.2 0-.2-.2-2-.2-2.5 0-.7.2-1.8.2-2.2-.1-.1-.6-.2-.9-.2-.3.2-.4.5-.7.9-1.2-.9-2.4-1.6-4.9-1.6-2.3 0-4.2.8-5.6 2.2-1.5 1.5-2.4 3.6-2.4 6.2 0 2.8 1.2 5.1 3.1 6.6 1.2.9 3 1.5 5.1 1.5 2.7 0 4.7-1 5.7-2.4.5-.6.6-.7.7-1.1m-17.2-12.7c0-.1 0-.2-.1-.3H-18.2c-.1 0-.1.3-.1.4 0 .1 0 .3.1.4.4.1 1.7.2 2.3.7.4.4.6 1.4.7 2.2v7.1c-.4-.4-.9-1.2-1.8-2.2l-7.4-8.2-.3-.3h-.7c-1.4 0-4-.1-4.4-.1 0 .1-.1.2-.1.3 0 0 0 .4.1.4.3.1 1.1.2 1.7.9.4.4 1 .9 1.2 1.4.1.2.1.4.1.7 0 1.1-.1 2.8-.1 4.3v4.5c0 .7-.1 1.3-.1 1.7-.4.5-1.2.9-2.3 1.1 0 .1-.1.3-.1.4 0 .1 0 .3.1.3h.4c.4 0 1.5-.1 2.1-.1 1 0 1.6.1 2.5.1h1.3c.1 0 .1-.3.1-.4s0-.3-.1-.4c-.8-.2-1.9-.4-2.7-1.4-.2-.3-.3-2-.3-2.7v-3-4c.1.2.3.4.4.5l10.2 11.5c.1.1.5.1.6.1h.2c0-.1.2-.4.2-1V380.8c0-2.8 1.3-3.6 2.8-3.6.4-.1.4-.3.4-.5m-21.9 15.4c0-.1 0-.4-.1-.4-.3 0-1.2-.1-1.6-.2-.4-.4-.6-.9-.7-1.7V379c0-.6.2-1.1.4-1.2.4-.4 1.3-.5 2-.6 0-.1.1-.3.1-.4 0-.1-.1-.3-.1-.4h-.7c-.9 0-3.1.1-3.8.1-.4 0-2.7-.1-3.6-.1h-.5c-.1.1-.1.2-.1.4v.4c1.1.1 1.6.2 1.7.3.2.2.7.7.7 1.9 0 .4 0 1.3.1 3.4v4c0 .7 0 2.1-.1 2.9 0 .5-.2 1.1-.3 1.3-.3.2-.5.6-2.2.7 0 .1-.1.4-.1.4v.4h.4c.9 0 3.1-.1 4.2-.1.3 0 2.7.1 3.3.1h.7c.3-.1.3-.3.3-.4m-17.8-11.6c0 1.4-.9 2.9-2 3.2-.4.1-1 .2-1.8.2h-.8v-6c0-.2.1-.4.1-.5.1-.1.4-.1.9-.1 1.7 0 2.5.2 3.1 1.2.4.6.5 1.3.5 2m6.5 11.6c0-.1 0-.4-.1-.4-.2 0-1.1 0-1.5-.3-.1-.1-.3-.4-.4-.6-.3-1-.6-1.7-.9-2.5-.4-1.1-1.1-2.2-1.6-2.7-.2-.2-.9-.4-1.7-.7-.4-.1-.7-.2-.9-.4.3-.1.5-.1.9-.1 1.6-.2 2-.5 2.5-.8.9-.7 1.4-1.7 1.4-2.9 0-1.8-1.1-3.5-2.8-4-.5-.2-1.5-.2-2.7-.2-1.7 0-4 .2-5.1.2h-4.3c-.1.2-.1.3-.1.4v.4c.4 0 1.1.1 1.4.2.5.4.7.7.9 1.2.1.7.1 2.5.1 5.6 0 2.2 0 4.9-.1 5.7-.1.5-.3 1.2-.9 1.5-.3 0-.8.1-1.3.2-.1.1-.1.3-.1.4 0 .1 0 .2.1.4.3 0 3.7-.1 4.4-.1 1.4 0 2.6.1 3.9.1 0-.1.1-.2.1-.3 0-.2 0-.4-.1-.4-.4 0-1-.2-1.2-.2-.6-.2-.9-.8-.9-1.6v-5.1h.6c.3 0 .6 0 1.2.4.8.4 1.2.8 1.8 1.6.7 1.1 1.2 3.1 1.4 4.8.1.4.2.9.7.9.2 0 1.3.1 2.2.1h3.2c-.2-.5-.1-.7-.1-.8m-24.1-11.4c0 1.1-.4 2.1-1.1 2.8-.4.4-1.2.6-2.3.6h-.9c-.2 0-.3 0-.3-.2v-6.5c.3 0 .7-.1 1.3-.1 1.5 0 2.5.4 2.9 1.3.2.5.4 1.3.4 2.1m4 0c0-1.7-.9-3.2-2.4-3.8-.7-.3-2-.5-4-.5-1.7 0-4.4.1-5.6.1-.8 0-2-.1-2.7-.1-.1.1-.1.3-.1.4s0 .3.1.4c.4.1 1.1.2 1.6.4.4.3.4.6.6 1.3.1.8.1 1.8.1 3.4 0 4.7 0 7.1-.1 7.7-.1.7-.5 1.3-1.3 1.6-.3.1-.8.2-1.3.2v.4c0 .2 0 .2.1.3.7 0 2.8-.1 3.6-.1 2 0 4 .1 4.8.1h.6c.1-.1.1-.2.1-.4v-.4c-.7-.1-1.7-.2-2.1-.7-.2-.2-.4-.7-.4-1.3l-.1-4.9c1.3.1 2.7.1 3.5.1 1 0 1.9-.2 2.6-.4 1.4-.5 2.4-2 2.4-3.8M85.1 401.5c0-.1-.1-.2-.1-.2-.9 0-2.1.1-2.6.1-1.1 0-2.5-.1-3.1-.1-.1.1-.1.2-.1.3v.2c.7.1 1.6.3 1.8.6.2.3.2.5.2.9 0 .2 0 .5-.1.8-.2.5-.6 1.4-1.2 2.7-1 2-1.7 3.3-2 3.8-.6-1-1.8-3.6-2.2-4.2l-1.2-2.7c0-.1-.1-.4-.1-.6 0-.3 0-.5.1-.6.2-.4.9-.4 1.8-.6 0-.1.1-.2.1-.3 0-.2-.1-.1-.1-.2h-.4c-1.5 0-1.1.1-3.6.1-1.1 0-2.4-.1-2.6-.1-.1.2-.1.2-.1.3 0 .1 0 .2.1.3 1.5.4 1.9.6 2.1.9l3.9 7.6c.4.7.6 1.3.7 1.7.2.6.2 1.5.2 2.7 0 .9-.3 1.5-.7 1.7-.2.1-1.3.2-1.8.3-.1.2-.1.2-.1.3 0 .1 0 .2.1.3h7.2c0-.1.1-.2.1-.3 0-.1 0-.2-.1-.3-.7-.1-1.7-.2-1.9-.4-.4-.4-.5-.5-.6-1.4l-.2-3.3c0-.2.1-.4.1-.5.1-.2.2-.4.2-.6l3.4-6.8c.3-.6 1-1.2 1.4-1.5.3-.2 1-.3 1.4-.4v-.5M67.2 406v-4.3c0-.3-.1-.4-.4-.4-.7 0-3.7.1-7.3.1H52c-.3 0-.4.1-.4.4v4c.1.1.2.1.2.1h.3c.9-1.9 1.3-2.9 2.8-3.7.7-.1 3-.1 3.3-.1 0 .2 0 1 .1 2v6.2c0 3.3 0 4.9-.1 5.3-.1.6 0 1.1-2.7 1.2-.1.2-.1.2-.1.4v.2h.9c.8 0 1.9-.1 2.7-.1.7 0 1.9.1 3.2.1h.8c.1-.1.1-.2.1-.3 0-.1 0-.2-.1-.3-.2 0-1.7 0-2.3-.4-.1-.2-.2-.9-.2-1.7v-5.1-7.5h2.6c1.4.4 1.9.9 2.5 1.7.5.7.7 1.3 1 2.4h.3c.1-.1.3-.1.3-.2m-18.4 11c0-.1 0-.2-.1-.3-.3 0-1.2-.1-1.6-.2-.4-.4-.6-.9-.7-1.7v-11.2c0-.6.2-1.1.4-1.2.4-.4 1.3-.5 2-.6 0-.1.1-.2.1-.3 0-.1-.1-.2-.1-.3H48c-.9 0-2.2.1-3 .1-.4 0-1.8-.1-2.8-.1h-.5c-.1.1-.1.1-.1.3v.3c1.1.1 1.6.2 1.7.3.2.2.7.7.7 1.9 0 .4 0 1.6.1 3.6v3.9c0 .7 0 2.3-.1 3.1 0 .5-.2 1.1-.3 1.3-.3.2-.5.6-2.2.7 0 .1-.1.2-.1.3v.3h.6c.9 0 2.2-.1 3.4-.1h3.2c.2.1.2-.1.2-.1m-11-4.1c0-1.8-.8-3-2.5-3.9-.4-.3-1.3-.6-2.5-.9-1.3-.4-2.5-.8-3.2-1.2-.5-.2-1.3-1-1.3-2.4s1.4-2.6 3.1-2.6c1.3 0 2.4.7 3 1.6.6.8.7 1.1 1.4 2.5h.2c.2 0 .4-.1.5-.2-.1-.6-.2-1.3-.2-2 0-.6.1-1.3.2-1.7-.2-.3-.4-.3-.7-.3-.3.2-.6.5-.9.8-1.5-1.2-2.7-1.4-3.8-1.4-2.7 0-4.7 1.8-4.7 4.2 0 .8.3 1.6.8 2.5.5.7 1.2 1.2 2.2 1.6.7.2 3.5 1.1 3.9 1.3 1.8.7 2.5 1.3 2.5 2.9 0 .8-.3 1.5-1 2.2-.6.7-1.5 1.1-2.5 1.1-1.1 0-2.9-.4-3.7-1.6-.5-.7-1.3-2.1-1.5-3h-.3c-.1 0-.3 0-.4.1 0 .3.1 1.8.1 2.2 0 1.1-.2 1.6-.2 2 .1.2.4.4.7.4.4-.4.9-.7 1.1-.7.1 0 .3.1.5.2 1.4.9 2.7 1.1 3.7 1.1 3.3-.2 5.5-1.7 5.5-4.8m-19.6-7.7c0 1.4-1.1 3-2.5 3.3-.5.1-1.3.2-2.3.2h-1.3v-6.2c0-.3.1-.4.2-.5.1-.1 1-.1 1.6-.1 2.1 0 3 .2 3.8 1.3.3.6.5 1.3.5 2m4.7 11.8c0-.1 0-.2-.1-.3-.2 0-1.1 0-1.5-.3-.1-.1-.3-.4-.4-.5-.3-1-.6-1.9-.9-2.8-.4-1.1-1.1-2.2-1.6-2.7-.2-.2-.8-.4-1.6-.7-.4-.1-.7-.2-.9-.4.3-.1.5-.1.9-.1 1.4-.2 1.9-.5 2.4-.8.9-.7 1.5-1.7 1.5-2.9 0-1.8-1.1-3.5-2.8-4-.5-.2-1.5-.2-2.7-.2-1.7 0-2.9.2-4 .2H7.7c-.1.2-.1.2-.1.3v.3c.4 0 1.1.1 1.4.2.5.4.7.7.9 1.2.1.7.1 2.7.1 5.8 0 2.2 0 5.1-.1 5.9-.1.6-.2 1.2-.9 1.5-.3 0-.8.1-1.3.2-.1.1-.1.2-.1.3 0 .1 0 .2.1.2.3 0 2.9-.1 3.6-.1 1.4 0 1.8.1 3 .1 0-.1.1-.2.1-.2 0-.2 0-.2-.1-.3-.4 0-1-.2-1.2-.2-.5-.3-.9-.8-.9-1.6v-5.6h1c.6 0 1.2 0 1.8.3.9.4 1.6 1 2.2 1.8.7 1.1 1.2 3.2 1.4 4.8.1.4.2.9.7.9.2 0 .4.1 1.3.1h2.3v-.4m-18.6-3.4v-.7c-.1-.1-.2-.1-.3-.1h-.3c-.5 1.6-1.3 2.8-2.3 3.4-.3.2-.9.2-1.9.2H-3c-.8 0-1.3-.1-1.5-.1-.3-.1-.7-.6-.9-.9-.2-.4-.2-.5-.2-1.5v-5.1h.7c.7 0 1.3 0 1.9.3.6.2 1 .6 1.2.9s.3 1.6.3 1.8c.1.1.2.1.4.1s.2 0 .4-.1c0-.6-.1-2.2-.1-3.1 0-1.1.2-2.5.2-3.3-.1 0-.1-.1-.4-.1h-.4c-.1.3-.2 1.2-.3 1.3-.3.6-1.1 1-1.7 1.2-.4.1-1 .2-1.8.2h-.4v-2.2c0-2.1 0-3 .1-3.4 0-.2.1-.5.1-.7H-1c.6 0 1.1.2 1.4.4 1.1.9 1.4 1.4 2 2.7h.2c.1 0 .2 0 .3-.1 0-1.3-.1-2.9-.1-3.4 0-.2-.1-.3-.5-.3H-10.1c-.1.1-.1.2-.1.2 0 .1 0 .2.1.3.3.1 1.3.1 1.6.2.3.3.6.3.8 1.4 0 .4.1 2 .1 3v7.6c0 .9-.4 2-.5 2.2-.2.2-1.1.3-2 .3-.1.1-.1.2-.1.4 0 .1 0 .2.1.3h.7c.7 0 2.5-.1 3.1-.1h2.6c.7 0 2.8.1 7.3.1h.6c.1-.1.1-.2.1-.4v-2.9m-16.4-12.1c0-.1 0-.2-.1-.2h-2.5c-1.8 0-2.5-.1-2.7-.1h-.4c0 .1-.1.2-.1.3v.2c.6.1 1 .2 1.5.3.2.2.6.8.6 1.4 0 .2-.2 1.3-.5 2l-3.6 8.8-4.4-11.1c.1-.5.4-1 .7-1.2.4 0 .8-.2 1.4-.2 0-.1.1-.2.1-.3 0-.1 0-.2-.1-.2h-.6c-.7 0-1.7.1-2.9.1H-29c0 .1-.1.1-.1.2s0 .2.1.3c.6.2 1.2.4 1.9.7.4.6 1.3 2.9 1.8 4l1.8 4.5c1.5 3.7 2.5 6.1 2.5 6.6.1.1 0 .1.2.1s.2 0 .2-.2l5.7-13.8c.2-.5.5-.9.8-1.3.4-.4 1.1-.5 1.8-.7.1 0 .2 0 .2-.2M-31.5 417c0-.1 0-.2-.1-.3-.3 0-1.2-.1-1.6-.2-.4-.4-.6-.9-.8-1.7v-11.2c0-.6.2-1.1.4-1.2.4-.4 1.3-.5 2-.6 0-.1.1-.2.1-.3 0-.1-.1-.2-.1-.3h-.7c-.9 0-2.2.1-3 .1-.4 0-1.8-.1-2.8-.1h-.5c-.1.1-.1.1-.1.3v.3c1.1.1 1.6.2 1.7.3.3.2.7.7.7 1.9 0 .4 0 1.6.1 3.6v3.9c0 .7 0 2.3-.1 3.1 0 .5-.2 1.1-.3 1.3-.2.2-.5.6-2.2.7 0 .1-.1.2-.1.3v.3h.4c.9 0 2.2-.1 3.4-.1h3.2c.4.1.4-.1.4-.1m-10-15.5c0-.1 0-.2-.1-.2H-48.3c-.1 0-.1.2-.1.3 0 .1 0 .2.1.2.4.1 1.7.3 2.3.7.4.4.6 1.4.7 2.2v9.1c-.4-.4-1-1.2-1.9-2.2l-8.5-9.9-.3-.3h-.6c-1.4 0-2.7-.1-3-.1 0 .1-.1.1-.1.2v.3c.3.1 1.3.2 1.7.6.4.4.9.9 1.1 1.3.1.2.1.4.1.7 0 1.1-.1 3.3-.1 4.8v4.7c0 .7-.1 1.3-.1 1.7-.4.5-1.2.9-2.3 1.1 0 .1-.1.2-.1.2s0 .2.1.2h6.1c.1 0 .1-.2.1-.3s0-.1-.1-.2c-.8-.2-1.9-.4-2.7-1.4-.2-.3-.3-2-.3-2.8v-3.2-4.9c.1.2.3.4.5.6l10.5 12.3c.1.1.2.1.3.1h.1c0-.1.1-.4.1-1v-11c0-2.8 1.3-3.6 2.8-3.6.4 0 .4-.1.4-.2m-20.5.1c0-.1 0-.2-.1-.3H-68.5c-.1.1-.1.2-.1.3 0 .1 0 .2.1.3.1 0 1.7 0 2 .4.2.3.8 1.1.9 1.6 0 .2.2 1.1.2 2.5v3.8c0 1.3-.2 2.2-.4 2.9-.6 1.9-2 2.9-4.3 2.9-1 0-1.8-.2-2.6-.6-1.4-.7-2.1-2-2.2-2.8l-.1-6.7v-2.7c0-.5.7-1 .9-1.2.2-.1 1.1-.2 1.7-.2.1-.1.1-.2.1-.3 0-.1-.1-.2-.2-.3h-6.9c-.1.1-.1.2-.1.3s0 .2.1.3c.7.1 1.2.2 1.5.2.4.2.7.6.8 1 0 .3.1 1 .1 2.4v5.3c0 1.4.1 2.3.2 3 .3 1.1.9 2 1.9 2.7 1.1.7 2.5 1.1 4 1.1s2.7-.3 3.8-.9c1.1-.6 1.8-1.6 2.2-2.9.2-.8.4-1.7.4-2.7v-4.3-2.2c0-1.2.3-1.9.7-2.5.4-.1.7-.2 1.8-.3-.1.1 0 0 0-.1"/></svg>