<svg id="Layer_1" xmlns="http://www.w3.org/2000/svg" viewBox="-165 327 280 140"><style>.st0{fill:#962415}</style><path class="st0" d="M-77.8 386.6v27.5c0 1.1-1.1 2.3-3.4 2.3s-3.4-1.1-3.4-1.1v8s2.3 1.1 6.9 1.1 9.2-2.3 9.2-9.2v-5.7s2.3 1.1 5.7 1.1c3.4 0 18.3-3.4 18.3-18.3s-13.8-21.8-25.2-21.8-25.2 8-25.2 21.8c0 7.3 3.4 13.8 3.4 13.8l8-5.7s-2.3-2.1-2.3-8.1 4.9-12.4 15.9-12.4 16 5.6 16 12.5-4.8 10.3-10.2 10.3c-3.4 0-4.6-1.1-4.6-1.1v-14.9h-9.1zM8.1 423.8s-1.8 1.5-6.1 1c-7.7-.9-8.1-7.7-7.7-11.3.1-1.1 1.3-10.2 1.3-10.2l-6.9-.8.9-7.9 6.9.8 1.5-12.5 7.9.9-1.5 12.5 6.9.8-.9 7.9-6.9-.8-1.3 10.2s-.5 3.4 3 3.8c3.4.3 3.6-1 3.6-1l-.7 6.6zM39.1 403.8v10.3s0 3.4 3.4 3.4 3.4-1.4 3.4-1.4v6.6s-1.6 1.7-5.8 1.7c-7.8 0-9.1-6.6-9.1-10.3V407c0-2.8-.3-4.4-2.6-4.4-3.4 0-5.4 1.9-5.4 5.7v16h-8v-52.7h8v27.5s2.2-3.4 6.6-3.4c5.9 0 9.5 4.4 9.5 8.1zM-12.5 417.5c-3.4 0-3.4-3.4-3.4-3.4v-18.3h-8v3.4s-3.4-3.4-8-3.4-13.8 3.4-13.8 14.9 10.9 13.8 13.8 13.8 7.8-.5 9.2-4.7c1.1 2.5 3.6 4.7 7.9 4.7 4.2 0 5.8-1.7 5.8-1.7V416c0 .2 0 1.5-3.5 1.5zm-11.3-4.1c-1.1 2.6-3.9 4.1-6.9 4.1-4.1 0-6.9-2.6-6.9-6.9 0-4.8 2.9-8 7-8 3 0 5.6 1.8 6.8 4.6v6.2z"/></svg>