<svg id="Layer_1" xmlns="http://www.w3.org/2000/svg" viewBox="-165 327 280 140"><style>.st0{fill-rule:evenodd;clip-rule:evenodd;fill:#962415}</style><path class="st0" d="M54.5 413.3c-.4.2-.7.2-1.1.2-1.1 0-2.2-.7-2.6-1.8l-2.3-5.5H35.7l-2.3 5.5c-.6 1.4-2.3 2.1-3.8 1.5-1.5-.6-2.2-2.3-1.5-3.7l11.2-27.1c.7-1.6 1.8-2 2.7-2 1.2 0 2.2.7 2.7 2L56 409.6c.6 1.4-.1 3.1-1.5 3.7zm-12.4-22.4l-4 9.7h8l-4-9.7zm-16.6-4.5h-6.1v24.1c0 .8-.3 1.5-.9 2.1-.6.6-1.3.9-2.1.9-1.6 0-3-1.3-3-3v-24.1h-6c-1.6 0-2.9-1.3-2.9-2.9 0-1.6 1.3-2.9 2.9-2.9h18.1c1.6 0 2.9 1.3 2.9 2.9 0 1.6-1.3 2.9-2.9 2.9zM-13.2 414c-4.9 0-8.8-1.7-11.5-4.9-2.4-2.9-3.7-7-3.7-11.9 0-10.5 6-17.2 15.2-17.2 9.3 0 14.8 6.5 14.8 17.3 0 8.3-4.6 16.7-14.8 16.7zm0-28c-8 0-9.2 7-9.2 11.2 0 3.4.8 6.2 2.3 8 1.5 1.8 3.8 2.7 6.8 2.8 6.4 0 8.7-5.5 8.7-10.7.1-7.4-2.8-11.2-8.6-11.3zm-27.5 15.7v8.9c0 1.6-1.3 2.9-2.9 2.9-1.6 0-2.9-1.3-2.9-2.9v-8.9l-8.4-17.1c-.7-1.5-.1-3.2 1.4-3.9 1.4-.7 3.2 0 3.9 1.4l6 12.3 6.2-12.3c.8-1.4 2.6-2.1 4-1.3s2 2.5 1.3 3.9l-8.6 17zm-38.6 20.2c-1.7 0-3.1-1.4-3.1-3.1v-3c0-2.4-.9-4.7-2.6-6.4-1.7-1.7-3.9-2.7-6.3-2.7s-4.6.9-6.3 2.7c-1.7 1.7-2.6 4-2.6 6.4v3c0 1.7-1.4 3.1-3.1 3.1-1.7 0-3.1-1.4-3.1-3.1v-3c0-4.1 1.6-7.9 4.4-10.7 2-2 4.5-3.5 7.3-4.1l.3-.1v-7.8l-.3-.1c-2.8-.7-5.3-2.1-7.3-4.1-2.8-2.9-4.4-6.7-4.4-10.8v-3c0-1.7 1.4-3.1 3.1-3.1 1.7 0 3.1 1.4 3.1 3.1v3c0 2.4.9 4.7 2.6 6.4 1.7 1.7 3.9 2.6 6.3 2.7 2.4 0 4.6-1 6.3-2.7 1.7-1.7 2.6-4 2.6-6.4v-3c0-1.7 1.4-3.1 3.1-3.1 1.7 0 3.1 1.4 3.1 3.1v3c0 4.1-1.5 7.9-4.4 10.8-2 2-4.5 3.5-7.3 4.1l-.3.1v7.8l.3.1c2.8.6 5.3 2.1 7.3 4.1 2.8 2.9 4.4 6.7 4.4 10.7v3c0 1.7-1.4 3.1-3.1 3.1zm-11.9-12.2c3.3 0 5.9 2.7 5.9 5.9 0 3.3-2.7 5.9-5.9 5.9-3.3 0-5.9-2.7-5.9-5.9-.1-3.3 2.6-5.9 5.9-5.9z"/></svg>