<svg id="Layer_1" xmlns="http://www.w3.org/2000/svg" viewBox="-165 327 280 140"><style>.st0{fill:#962415}</style><path class="st0" d="M11.1 383.1H5v6.3h6.1c1.5 0 2.7 1 2.7 2.4 0 1.5-1.2 2.4-2.7 2.4H5v6.1h6.1c5 0 9.1-3.6 9.1-8.6 0-4.7-4-8.6-9.1-8.6m-36.6 33.2c7.6 0 14.2-4.7 17.3-11.1H.2v11.1H5v-11.1h5.9c7.6 0 13.7-5.9 13.7-13.3s-6.1-13.5-13.7-13.5H.2v15.8h-6.5c-1.3-9.1-9.5-15.8-19.2-15.8h-21.9l-22.3 37.9h5.3l6.7-11.1H-35v11.1h9.5zM31 391.9c0 10.9-8.5 19.6-19.6 19.6v11.1H-6.2V414c-4.7 5.2-11.7 8.5-19.3 8.5h-16v-11h-12.9l-6.4 11H-81l29.8-50.4h25.8c7.6 0 14.6 3.3 19.3 8.4v-8.4H11c11 .1 20 8.9 20 19.8zm-72.5-8.8v11.1h-10.2l-3.6 6.3H-35v-17.4h-6.5zm30.6 14.2c0 7.9-6.5 14.3-14.6 14.3h-4.8v-6.3h4.8c4.5 0 8.2-3.5 8.2-8s-3.7-7.9-8.2-7.9h-4.8v-6.3h4.8c8.1 0 14.6 6.3 14.6 14.2z"/></svg>