<svg id="Layer_1" xmlns="http://www.w3.org/2000/svg" viewBox="-165 327 280 140"><style>.st0{fill:#962415}</style><path class="st0" d="M-110 392c0 1.7-1.4 3.1-3.1 3.1-1.7 0-3.1-1.4-3.1-3.1s1.4-3.1 3.1-3.1c1.7-.1 3.1 1.3 3.1 3.1M-132.1 388.8c-1.7 0-3.1 1.4-3.1 3.1s1.4 3.1 3.1 3.1c1.7 0 3.1-1.4 3.1-3.1s-1.4-3.1-3.1-3.1zm9.5 0c-1.7 0-3.1 1.4-3.1 3.1s1.4 3.1 3.1 3.1c1.7 0 3.1-1.4 3.1-3.1s-1.4-3.1-3.1-3.1zm9.4 15.8c1.7 0 3.1-1.4 3.1-3.1s-1.4-3.1-3.1-3.1c-1.7 0-3.1 1.4-3.1 3.1 0 1.7 1.4 3.1 3.1 3.1zm-18.9-6.3c-1.7 0-3.1 1.4-3.1 3.1 0 1.7 1.4 3.1 3.1 3.1 1.7 0 3.1-1.4 3.1-3.1 0-1.7-1.4-3.1-3.1-3.1zm9.5 0c-1.7 0-3.1 1.4-3.1 3.1 0 1.7 1.4 3.1 3.1 3.1 1.7 0 3.1-1.4 3.1-3.1 0-1.7-1.4-3.1-3.1-3.1zm9.4 9.5c-1.7 0-3.1 1.4-3.1 3.1 0 1.7 1.4 3.1 3.1 3.1 1.7 0 3.1-1.4 3.1-3.1.1-1.7-1.3-3.1-3.1-3.1zm-18.9 0c-1.7 0-3.1 1.4-3.1 3.1 0 1.7 1.4 3.1 3.1 3.1 1.7 0 3.1-1.4 3.1-3.1 0-1.7-1.4-3.1-3.1-3.1zm9.5 0c-1.7 0-3.1 1.4-3.1 3.1 0 1.7 1.4 3.1 3.1 3.1 1.7 0 3.1-1.4 3.1-3.1 0-1.7-1.4-3.1-3.1-3.1z"/><g><path class="st0" d="M-21.7 392.5l-1-1c-1.5-1.5-2.9-2.2-5.5-2.2-2.8 0-4.9.8-6.5 2.4-1.6 1.7-2.7 4-2.7 10 0 5.8 1 8.5 2.8 10.2 1.6 1.6 3.8 2.3 6.3 2.3 2.7 0 4.2-.9 5.8-2.4l1.1-1.1v3.1h4.5v-34.1h-4.8v12.8zm0 13.1c0 2.5-1.7 4.7-5.4 4.7-1.8 0-3-.5-3.8-1.3-1.2-1.2-1.6-3-1.6-7.3 0-4 .4-5.8 1.5-7 .8-.8 2.1-1.3 3.9-1.3 3.7 0 5.4 2.2 5.4 4.7v7.5zM-74.7 389.3c-3.2 0-4.6 1.2-6.4 3l-.9.7c-1.6-3-4.3-3.7-6.8-3.7-2.6 0-4.2.8-5.5 2.1l-1.6 1.6v-3.2h-4.5v24h4.8v-16.1c0-2.5 2.1-4.4 5.1-4.4 3.4 0 4.3 2.4 4.3 4.4v16.1h4.8v-16.1c0-2.5 2.1-4.4 5.1-4.4 3.4 0 4.3 2.4 4.3 4.4v16.1h4.8v-15.4c0-4-.9-5.6-2.1-6.9-1.5-1.6-3.2-2.2-5.4-2.2zM-9.8 389.8H-5v24h-4.8zM16.1 392.5l-1-1c-1.5-1.5-2.9-2.2-5.5-2.2-2.8 0-4.9.8-6.5 2.4-1.6 1.7-2.7 4-2.7 10 0 5.8 1 8.5 2.8 10.2 1.6 1.6 3.8 2.3 6.3 2.3 2.7 0 4.2-.9 5.8-2.4l1.1-1.1v3.1h4.5v-34.1H16l.1 12.8zm0 13.1c0 2.5-1.7 4.7-5.4 4.7-1.8 0-3-.5-3.8-1.3-1.2-1.2-1.6-3-1.6-7.3 0-4 .4-5.8 1.5-7 .8-.8 2.1-1.3 3.9-1.3 3.7 0 5.4 2.2 5.4 4.7v7.5zM57 389.8v-7.4h-4.8v7.4H48.8v3.7H52.2v14c0 3.7 2.3 6.9 6.8 6.9h.6c.9 0 1.9-.3 2.4-.7v-3.5h-2.1c-2 0-2.9-1.4-2.9-3.2v-13.5h5v-3.7h-5z"/><circle class="st0" cx="-7.4" cy="383.6" r="2.6"/><path class="st0" d="M-41.7 409.2c.1-.1.1-.2.1-.3 0-.2-.1-.3-.2-.4l-3.3-1.6-.1.1c-.3.4-1.1 1.1-1.1 1.1-.9.9-2.7 2.2-4.9 2.2h-.3c-4.3 0-5.9-2.3-5.9-6.3V402.7h15.7v-2.2c0-4-1-6.6-2.9-8.5-1.7-1.7-4.1-2.8-7.3-2.8-3.4 0-5.9 1.1-7.6 2.9-1.9 1.9-2.8 4.5-2.8 9.4 0 5.9.9 8.4 2.8 10.1 1.7 1.6 4.3 2.5 7.9 2.5h.1c3 0 5.2-.9 7.2-2.5 1.1-.7 2.2-2 2.6-2.4-.1 0 0 0 0 0zm-15.7-10.4v-.7c0-2.4 1.3-5 5.6-5 3.7 0 5.3 2.6 5.3 5v1.4H-57.4v-.7zM43.3 391.9c-1.6-1.8-4.3-2.6-7.6-2.6-3 0-5.2.9-7.2 2.5-.7.6-1.4 1.3-1.9 1.9-.2.2-.6.7-.6.7-.1.1-.1.2-.1.3 0 .2.1.3.2.4l.8.4 2.5 1.2.1-.1c.3-.4 1.1-1.1 1.1-1.1.9-.9 2.7-2.2 4.9-2.2 3.7 0 5 1.7 5 3.9 0 1.2-.8 1.9-3.4 2.3l-4 .6c-4.3.6-7.6 2.9-7.6 7.2 0 4.7 3.5 7.1 7.6 7.1 3.6 0 5.3-1.1 6.7-2.4l.9-.8v2.7h4.5v-15.7c.1-3.2-.6-4.9-1.9-6.3zm-2.8 13.3c0 3.3-2.4 5.4-5.7 5.4-3.1 0-4.6-1.4-4.6-3.8 0-2.1 1.4-3.2 3.2-3.5 0 0 4-.7 5.1-.9 1-.2 2-.6 2-.6v3.4zM83.3 391.9c-1.6-1.8-4.3-2.6-7.6-2.6-3 0-5.2.9-7.2 2.5-.7.6-1.4 1.3-1.9 1.9-.2.2-.6.7-.6.7-.1.1-.1.2-.1.3 0 .2.1.3.2.4l.8.4 2.5 1.2.1-.1c.3-.4 1.1-1.1 1.1-1.1.9-.9 2.7-2.2 4.9-2.2 3.7 0 5 1.7 5 3.9 0 1.2-.8 1.9-3.4 2.3l-4 .6c-4.3.6-7.6 2.9-7.6 7.2 0 4.7 3.5 7.1 7.6 7.1 3.6 0 5.3-1.1 6.7-2.4l.9-.8v2.7h4.5v-15.7c.1-3.2-.6-4.9-1.9-6.3zm-2.8 13.3c0 3.3-2.4 5.4-5.7 5.4-3.1 0-4.6-1.4-4.6-3.8 0-2.1 1.4-3.2 3.2-3.5 0 0 4-.7 5.1-.9 1-.2 2-.6 2-.6v3.4z"/></g></svg>