<svg xmlns="http://www.w3.org/2000/svg" viewBox="0 0 384 280"><path fill="#333" d="M49.7 242.5l20.9 21 36.7-36.7-20.9-21-36.7 36.7zm78.5-118.2c-1.5 11.7-5.5 21.2-12.1 28.3-6.6 7.2-15.7 10.7-27.4 10.7-8.6 0-15.9-1.7-22-5-6-3.3-10.9-7.8-14.6-13.3-3.7-5.5-6.5-11.8-8.2-18.7-1.7-6.9-2.6-14-2.6-21.4 0-7.6.9-15 2.6-22.2 1.7-7.2 4.4-13.5 8.2-19.2 3.7-5.6 8.6-10.1 14.6-13.4 6-3.3 13.3-5 22-5 4.7 0 9.2.8 13.5 2.3 4.3 1.5 8.2 3.7 11.6 6.5 3.4 2.8 6.3 6 8.5 9.6 2.3 3.7 3.7 7.7 4.4 12.1h37.1c-1.1-10.1-3.9-19-8.3-26.8-4.4-7.8-10-14.4-16.7-19.6-6.8-5.2-14.5-9.2-23.1-12-8.6-2.8-17.7-4.1-27.1-4.1-13.5 0-25.5 2.4-36.1 7.1C42 24.8 33 31.4 25.7 39.7 18.4 48 12.8 57.8 8.9 69 5 80.2 3 92.2 3 105.1c0 12.7 2 24.5 5.9 35.5 3.9 11 9.5 20.5 16.8 28.7 7.3 8.1 16.3 14.5 26.8 19.2 10.6 4.6 22.6 7 36.1 7 10.7 0 20.6-1.6 29.5-4.9 8.9-3.3 16.8-8 23.4-14.2 6.7-6.2 12-13.6 16.1-22.3 4.1-8.7 6.6-18.6 7.6-29.6h-37z"/></svg>