<svg xmlns="http://www.w3.org/2000/svg" viewBox="0 0 384 280"><path fill="#333" d="M122.9 130.9c-1 8.5-4.4 15.4-10.4 20.9-5.9 5.5-13.8 8.2-23.5 8.2-6.5 0-12.3-1.4-17.4-4.1-5.1-2.8-9.5-6.6-13.2-11.5-3.7-4.9-6.5-10.7-8.4-17.4-2-6.7-2.9-14.1-2.9-22.1 0-8 .9-15.3 2.6-22.1 1.7-6.7 4.3-12.6 7.7-17.6 3.4-5 7.7-8.8 12.9-11.6 5.2-2.8 11.4-4.1 18.5-4.1 9.3 0 16.8 2.6 22.6 7.9 5.8 5.3 9.2 11.8 10.4 19.6H165c-1.1-9.8-3.9-18.8-8.2-27.1-4.3-8.3-10.3-15.3-17.9-21-6.2-4.7-13.5-8.5-21.8-11.2-8.4-2.8-17.7-4.1-27.9-4.1-13 0-24.8 2.3-35.4 7C43 25.1 34 31.5 26.5 39.7 19 47.8 13.2 57.5 9.2 68.6c-4.1 11.1-6.1 23.2-6.1 36.2 0 11.4 1.6 22 4.8 31.8 3.2 9.8 7.7 18.6 13.5 26.4 5.9 7.7 12.9 14.2 21.2 19.3 8.3 5.1 17.6 8.7 27.8 10.6v20.7H86c0 3.3-1.3 5.7-4 7.2s-6.6 2.5-11.8 2.8v9c9.9 0 17.8-1.8 23.8-5.5 5.9-3.7 8.9-10 8.9-18.9V194c8.9-1 16.8-3 23.7-6.1 6.8-3.1 13-7.2 18.5-12.4 6-5.7 10.9-12.4 14.5-20 3.7-7.6 5.8-15.9 6.5-24.6h-43.2z"/></svg>