<svg xmlns="http://www.w3.org/2000/svg" viewBox="0 0 960 400"><path fill="#333" d="M86 47.5c-4.1-5.5-9.2-9.7-15-12.7-5.9-2.9-12.5-4.4-19.8-4.4-7.3 0-13.9 1.5-19.8 4.4-5.9 2.9-10.9 7.2-15.1 12.8C12.1 53.2 8.8 60 6.5 68c-2.3 8-3.4 17-3.4 26.9 0 9.8 1.1 18.7 3.2 26.6s5.3 14.7 9.4 20.2c4.1 5.6 9.1 9.9 15 13 5.9 3.1 12.7 4.6 20.2 4.6 7.7 0 14.5-1.5 20.4-4.6 5.9-3.1 10.9-7.4 15-13s7.2-12.3 9.3-20.2c2.1-7.9 3.2-16.8 3.2-26.6 0-10.1-1.1-19.1-3.3-27.1-2.2-8-5.4-14.8-9.5-20.3zm-10.6 85c-5.2 9.1-13.3 13.7-24.2 13.7-5.4 0-10.1-1.2-14.2-3.6-4.1-2.4-7.5-5.8-10.2-10.3-2.7-4.4-4.7-9.8-6-16.2-1.3-6.4-2-13.4-2-21.2 0-16 2.7-28.5 8-37.7 5.3-9.2 13.5-13.8 24.4-13.8 5.4 0 10.1 1.2 14 3.6 4 2.4 7.3 5.9 10 10.4s4.7 9.9 6 16.3c1.3 6.4 2 13.4 2 21.2 0 15.9-2.6 28.5-7.8 37.6zm61.8 24.1h15.1v-124h-11.7c-.6 4.5-1.8 8.4-3.6 11.4s-4 5.5-6.8 7.4c-2.7 1.9-5.8 3.2-9.3 4-3.5.8-7.1 1.2-10.8 1.4v10.1h27v89.7zM237.3 86c-2.3 2.3-5 4.6-8.2 6.7-3.2 2.1-6.8 4.3-10.9 6.6-5.4 3.1-10.8 6.3-16.1 9.6-5.3 3.3-10.2 7.1-14.6 11.4-4.4 4.3-8 9.4-10.8 15.2-2.8 5.8-4.4 12.9-4.8 21.1h85.5v-14.4h-67.3c.8-3.4 2.5-6.5 4.9-9.5 2.4-3 5.2-5.8 8.4-8.4 3.2-2.6 6.6-5 10.2-7.2 3.6-2.2 7.1-4.2 10.4-6 4.9-2.8 9.6-5.4 13.9-8 4.4-2.6 8.2-5.4 11.4-8.5 3.2-3.1 5.8-6.8 7.7-10.9 1.9-4.1 2.9-9.2 2.9-15.2 0-5.5-1-10.6-2.9-15.2s-4.7-8.6-8.3-12c-3.6-3.4-8-6-13-7.8-5.1-1.9-10.8-2.8-17-2.8-6.4 0-12.3 1-17.8 2.9s-10.3 4.8-14.2 8.6c-3.8 3.8-6.8 8.4-8.7 13.7-2 5.3-3 11.9-3 19.8h15.8c0-6.4.6-11.4 1.7-15.1 1.1-3.7 2.9-6.9 5.3-9.5 2.3-2.4 5-4.3 8.3-5.7 3.2-1.4 7-2.1 11.3-2.1 8.3 0 14.8 2.3 19.6 7 4.8 4.7 7.2 10.8 7.2 18.4 0 3.7-.6 7-1.8 9.7-1.1 2.7-2.8 5.2-5.1 7.6zm73.6 53.7h11.9v-36h34.9V92.2h-34.9v-36h-11.9v36H276v11.5h34.9v36zm119.2 16.9h14.8v-30.2h20.3v-12.1h-20.3V32H433l-61 80.8v13.5h58.1v30.3zm-43.6-42.3v-.5l43.2-57.2h.4v57.8h-43.6zm149.8 42c5.4-2 10.1-4.8 14-8.6 4-3.7 7-8.2 9.3-13.5 2.2-5.3 3.3-11.2 3.3-17.8 0-6.8-1.2-12.9-3.5-18.3-2.3-5.3-5.4-9.8-9.3-13.5-3.8-3.7-8.3-6.4-13.3-8.4-5-1.9-10.3-2.9-15.8-2.9-6 0-11.3.9-16 2.7-4.7 1.8-8.8 4.4-12.2 7.7h-.4l8.1-37.1h55.1V33.3h-65.7l-13.7 66.2h14.6c2.6-3.7 6.2-6.8 10.8-9.2 4.6-2.4 10.2-3.6 16.9-3.6 4.1 0 7.9.7 11.3 2 3.5 1.3 6.5 3.2 9.2 5.8 2.6 2.5 4.7 5.6 6.2 9.2 1.5 3.6 2.2 7.7 2.2 12.4 0 9-2.6 16.2-7.8 21.7-5.2 5.5-12.3 8.2-21.2 8.2-8.8 0-15.8-2.2-21-6.8-5.2-4.5-8.3-10.6-9.3-18.3h-14.9c.2 5.8 1.6 11 4 15.7 2.4 4.7 5.6 8.7 9.5 12.1 4 3.4 8.7 6 14.1 7.8 5.5 1.9 11.4 2.8 17.7 2.8 6.5 0 12.4-1 17.8-3zm88.5 3c5.8 0 11.2-1.1 16.2-3.3 5-2.2 9.5-5.2 13.2-9.1 3.8-3.8 6.7-8.3 8.8-13.4 2.1-5.1 3.1-10.5 3.1-16.3 0-5.6-1.1-11-3.2-16-2.2-5-5.1-9.4-8.7-13.2-3.7-3.8-8-6.8-12.9-8.9-4.9-2.2-10.2-3.2-15.8-3.2-7.4 0-14 1.5-19.5 4.4-5.6 2.9-10.3 7.2-14.3 12.7h-.4c.1-7.6.8-14.4 2.1-20.5s3.2-11.3 5.8-15.7c2.6-4.3 6-7.7 10.2-10 4.2-2.3 9.3-3.5 15.3-3.5 3.6 0 6.8.6 9.5 1.7 2.8 1.1 5.1 2.7 7.1 4.6 2 1.9 3.6 4.2 4.8 6.8 1.2 2.6 1.9 5.4 2.2 8.3h14.9c-.5-4.4-1.6-8.7-3.4-12.9-1.8-4.1-4.3-7.8-7.5-10.9-3.2-3.1-7.1-5.6-11.8-7.6-4.7-1.9-10.1-2.9-16.2-2.9-7.8 0-14.7 1.5-20.6 4.6-5.9 3.1-10.9 7.4-14.9 13s-7.1 12.3-9.1 20.1c-2 7.8-3.1 16.5-3.1 26.1 0 12.7 1.3 23.4 3.8 32.1 2.5 8.7 7.1 16.1 13.7 22 3.7 3.5 8.1 6.2 13 8.1 5 1.9 10.9 2.9 17.7 2.9zm-28.4-29.8c-1.6-3.7-2.3-7.7-2.3-12 0-4.4.7-8.5 2.2-12.1 1.4-3.6 3.5-6.7 6.1-9.3 2.6-2.6 5.8-4.6 9.5-5.9 3.7-1.4 7.7-2.1 12.2-2.1 4 0 7.7.7 11.2 2.2 3.5 1.4 6.5 3.5 9 6 2.5 2.6 4.5 5.7 5.9 9.4 1.4 3.7 2.2 7.6 2.2 12s-.7 8.3-2.1 11.9c-1.4 3.6-3.3 6.7-5.8 9.3-2.5 2.6-5.4 4.6-8.8 6s-7.1 2.2-11.1 2.2c-4.3 0-8.3-.7-12.1-2.2-3.7-1.4-6.9-3.4-9.6-6-2.8-2.6-4.9-5.7-6.5-9.4zM85.6 273.6c-1-4.8-2.3-9.4-4.1-13.7s-4.3-8.1-7.4-11.3c-3.1-3.2-7.1-5.8-11.8-7.7-4.7-1.9-10.4-2.9-17-2.9s-12.3 1-17 2.9c-4.7 1.9-8.7 4.5-11.8 7.7-3.1 3.2-5.6 7-7.4 11.3s-3.2 8.9-4.1 13.7c-1 4.8-1.6 9.7-1.8 14.8-.2 5-.4 9.9-.4 14.6 0 4.7.1 9.5.4 14.6.2 5 .8 10 1.8 14.8 1 4.8 2.3 9.3 4.1 13.6 1.8 4.3 4.3 8 7.4 11.2 3.1 3.2 7 5.8 11.8 7.6 4.7 1.9 10.4 2.8 17 2.8 6.7 0 12.4-.9 17.1-2.8 4.7-1.9 8.6-4.4 11.7-7.6 3.1-3.2 5.6-7 7.4-11.2 1.8-4.3 3.2-8.8 4.1-13.6 1-4.8 1.6-9.7 1.8-14.8.2-5 .4-9.9.4-14.6 0-4.7-.1-9.5-.4-14.6-.3-5.1-.9-10-1.8-14.8zm-14.5 45.3c-.3 5.9-1.3 11.5-2.9 16.7-1.6 5.2-4.2 9.6-7.8 13.2s-8.6 5.4-15.1 5.4-11.5-1.8-15.1-5.4c-3.6-3.6-6.2-8-7.8-13.2-1.6-5.2-2.6-10.8-2.9-16.7-.3-5.9-.5-11.3-.5-16.1 0-3.1 0-6.6.1-10.3.1-3.8.4-7.6.9-11.3.5-3.8 1.3-7.5 2.3-11.1 1-3.6 2.5-6.8 4.5-9.4 2-2.7 4.5-4.9 7.5-6.6 3-1.7 6.7-2.5 11-2.5s8 .8 11 2.5 5.5 3.9 7.5 6.6c2 2.7 3.5 5.8 4.5 9.4 1 3.6 1.8 7.3 2.3 11.1.5 3.8.8 7.6.9 11.3.1 3.8.1 7.2.1 10.3-.1 4.8-.2 10.2-.5 16.1zm79.1-69c-2.3 3.1-5.1 5.6-8.4 7.4-3.3 1.8-7 3-11.1 3.7-4.1.7-8.3 1-12.6 1v12.2h33.1v91.4h15.3V238h-11.7c-.8 4.8-2.3 8.7-4.6 11.9zm80.3 83.1c3.3-2.6 6.9-5.1 10.9-7.5s7.9-4.7 11.9-7.1c4-2.5 7.8-5.2 11.5-7.9 3.7-2.8 7-5.8 9.9-9.3s5.2-7.3 6.9-11.6c1.7-4.3 2.6-9.3 2.6-14.9 0-6-1.1-11.3-3.2-15.8-2.1-4.6-5-8.4-8.5-11.4-3.6-3.1-7.8-5.4-12.7-7s-10.1-2.4-15.6-2.4c-6.7 0-12.7 1.1-18 3.4-5.3 2.3-9.7 5.4-13.2 9.5-3.5 4-6.2 8.8-7.8 14.3-1.7 5.5-2.3 11.5-2 18h15.3c-.1-3.8.3-7.6 1.2-11.4.9-3.8 2.4-7.2 4.4-10.2 2-3 4.6-5.4 7.8-7.3 3.2-1.9 7-2.8 11.4-2.8 3.4 0 6.5.5 9.5 1.6s5.6 2.6 7.8 4.7c2.2 2 4 4.5 5.3 7.3 1.3 2.8 2 6 2 9.4 0 4.4-.7 8.3-2.1 11.7-1.4 3.4-3.4 6.5-6.1 9.4-2.7 2.9-6.1 5.7-10.2 8.5s-8.8 5.9-14.2 9.3c-4.4 2.6-8.7 5.5-12.8 8.5-4.1 3-7.7 6.5-11 10.4s-5.9 8.6-8 14c-2.1 5.3-3.5 11.8-4 19.3H283v-13.5h-65.5c.7-4 2.2-7.5 4.6-10.5 2.3-3.2 5.1-6 8.4-8.7zm125.1-58.5h-12.2v39.4h-39.2v12.2h39.2v39.4h12.2v-39.4h39.2v-12.2h-39.2v-39.4zM478.9 238h-12.2l-58.1 83v14.8h56v29.9H479v-29.9h17.3v-13.5H479V238zm-14.4 84.2h-42.8l42.5-62.5h.4v62.5zm115-29.8c-3.7-3.7-8.1-6.4-13.1-8.2s-10.4-2.7-16-2.7c-4.3 0-8.7.8-13 2.2-4.4 1.5-8 3.8-10.7 6.9l-.4-.4 6.8-36.7h51.5V240h-63l-11.9 66.2 13.1.7c3-3.6 6.4-6.5 10.3-8.7 3.9-2.2 8.4-3.3 13.4-3.3 4.3 0 8.2.7 11.8 2.2 3.5 1.4 6.6 3.5 9.1 6 2.5 2.6 4.5 5.6 5.8 9.2 1.4 3.5 2.1 7.4 2.1 11.6 0 5-.7 9.5-2.2 13.2-1.4 3.8-3.4 6.9-5.9 9.5-2.5 2.5-5.3 4.4-8.6 5.7-3.3 1.3-6.8 1.9-10.3 1.9-3.8 0-7.4-.6-10.5-1.7-3.2-1.1-5.9-2.8-8.3-4.9-2.3-2.1-4.2-4.6-5.6-7.4-1.4-2.8-2.2-5.9-2.4-9.1h-15.3c.1 5.8 1.3 10.9 3.4 15.5 2.2 4.6 5.1 8.4 8.8 11.4 3.7 3.1 8 5.4 12.9 7s10 2.4 15.6 2.4c7.4 0 14-1.2 19.5-3.5 5.6-2.3 10.2-5.5 13.9-9.5 3.7-4 6.5-8.5 8.4-13.6 1.9-5.1 2.8-10.3 2.8-15.8 0-7.3-1.1-13.7-3.2-19.2-2.2-5.1-5.1-9.7-8.8-13.4zm111.2 16.1c-1.8-5-4.4-9.4-7.6-13.1-3.3-3.7-7.4-6.6-12.2-8.7-4.9-2.1-10.3-3.2-16.5-3.2-7 0-13.1 1.3-18.5 4-5.3 2.6-9.8 6.9-13.4 12.8l-.4-.4c.1-4.9.6-10.2 1.4-15.8.8-5.6 2.4-10.9 4.6-15.8 2.2-4.9 5.3-8.9 9.3-12.1 4-3.2 9.2-4.8 15.7-4.8 6.1 0 11 1.7 14.8 5.2 3.7 3.5 5.9 8.1 6.7 13.9h15.3c-1-10.6-4.6-18.6-10.8-24.2-6.2-5.6-14.6-8.4-25.2-8.4-9.1 0-16.7 1.9-22.7 5.8-6 3.8-10.8 8.9-14.4 15.3-3.6 6.4-6.2 13.7-7.7 21.9s-2.2 16.7-2.2 25.5c0 6.7.5 13.7 1.5 20.9 1 7.2 3.1 13.8 6.2 19.8s7.6 10.9 13.3 14.8c5.8 3.8 13.4 5.8 22.9 5.8 8 0 14.8-1.3 20.2-4 5.5-2.7 9.8-6.1 13.1-10.3 3.3-4.1 5.7-8.7 7.1-13.8 1.4-5 2.2-9.9 2.2-14.6 0-6-.9-11.4-2.7-16.5zm-15.2 28.2c-1.1 3.4-2.8 6.5-4.9 9.1-2.2 2.6-4.8 4.7-8 6.2s-6.9 2.2-11.1 2.2c-4.2 0-8-.7-11.2-2.2-3.3-1.5-6.1-3.5-8.3-6-2.2-2.5-3.9-5.5-5.1-9-1.2-3.5-1.8-7.2-1.8-11.2 0-4 .6-7.7 1.7-11.2 1.1-3.5 2.8-6.6 5.1-9.2 2.3-2.6 5-4.6 8.3-6.1 3.2-1.5 7-2.2 11.3-2.2 4.3 0 8.1.8 11.3 2.3 3.2 1.6 5.9 3.6 8.1 6.2 2.2 2.6 3.7 5.6 4.8 9.2 1 3.5 1.5 7.3 1.5 11.2 0 3.7-.6 7.3-1.7 10.7z"/></svg>