<svg xmlns="http://www.w3.org/2000/svg" viewBox="0 0 960 400"><path fill="#333" d="M11.9 151.7c2.8 2.2 6.1 3.8 10 4.8 3.8 1 8 1.5 12.4 1.5 4 0 7.5-.4 10.7-1.3 3.2-.8 6-2 8.5-3.4s4.7-3 6.7-4.8c1.9-1.7 3.6-3.5 5-5.3h.2c1.4 9.2 6.8 13.9 16 13.9 1.9 0 3.5-.2 4.7-.5 1.2-.3 2.3-.6 3.2-1V145h-.5c-4.1 1-6.8.5-8-1.4-1.3-1.9-1.9-4.7-1.9-8.5V90.9c0-5.5-.9-10.2-2.6-14-1.7-3.8-4.1-6.8-7.2-9.1-3.1-2.3-6.7-3.9-10.9-4.9-4.2-1-8.8-1.5-13.7-1.5-6.1 0-11.5.8-16.1 2.4-4.6 1.6-8.5 3.8-11.5 6.6-3.1 2.8-5.4 6.1-6.9 10-1.6 3.9-2.4 8.1-2.5 12.5h14c.2-7.1 2.3-12.3 6.1-15.6 3.8-3.3 9.5-5 17.1-5 6.7 0 11.9 1.4 15.5 4.2 3.6 2.8 5.4 6.9 5.4 12.1 0 2.5-.5 4.5-1.6 6s-2.6 2.7-4.6 3.6c-2 .9-4.4 1.6-7.1 2.2-2.8.5-5.8 1.1-9 1.5-5.8 1-11.1 2-16.1 3.2-5 1.1-9.3 2.8-12.9 5-3.6 2.2-6.4 5-8.5 8.5-2 3.5-3.1 8-3.1 13.5 0 4.4.8 8.3 2.4 11.5s4 6 6.8 8.1zm8.4-28.2c1.4-2.2 3.2-3.9 5.6-5.3 2.3-1.4 5.1-2.4 8.4-3.1 3.2-.7 6.7-1.4 10.3-2.2 4-.7 7.9-1.6 11.8-2.8 3.9-1.1 7-2.5 9.4-4v15.8c0 2.8-.6 5.6-1.7 8.6-1.1 2.9-2.9 5.6-5.1 8-2.3 2.4-5.2 4.4-8.8 6s-7.8 2.4-12.6 2.4c-2.4 0-4.7-.2-7-.6-2.3-.4-4.3-1.2-6.1-2.2s-3.3-2.6-4.4-4.6c-1.1-2-1.7-4.5-1.7-7.7-.1-3.4.6-6.2 1.9-8.3zM114.8 99c0-3.8.6-7.3 1.9-10.5 1.3-3.2 3-5.9 5.3-8.1 2.3-2.2 5-4 8.1-5.2 3.1-1.3 6.5-1.9 10.3-1.9 6.6 0 11.8 1.6 15.5 4.9 3.7 3.2 5.6 7.9 5.6 14v64.1H176V90.9c0-9.7-2.8-17.1-8.4-22.2-5.6-5.1-13.2-7.6-22.9-7.6-6.8 0-12.6 1.3-17.4 3.9-4.7 2.6-8.8 6.1-12.2 10.5h-.4V63.2h-14.6v93.1h14.6V99zm112.9 57.4c2-.2 3.8-.5 5.5-.9v-12.6h-.5c-.8.2-2 .5-3.4.8-1.4.3-2.9.5-4.3.5-3 0-5.3-.6-6.9-1.9-1.6-1.3-2.4-3.5-2.4-6.8V75h18V63.2h-18V33.8H201v29.3h-13.5V75H201v63.7c0 6.6 1.9 11.2 5.8 13.9 3.8 2.7 8.8 4.1 14.8 4.1 2.1.1 4.1-.1 6.1-.3zm78.6-1.5c5.5-2.6 10.2-6.1 14.1-10.5 3.9-4.4 6.9-9.6 8.9-15.6 2-5.9 3.1-12.3 3.1-19 0-6.7-1-13-3.1-19-2-5.9-5-11.1-8.9-15.6-3.9-4.4-8.6-7.9-14.1-10.5-5.5-2.6-11.8-3.9-18.7-3.9-7 0-13.2 1.3-18.7 3.9-5.5 2.6-10.2 6.1-14.1 10.5-3.9 4.4-6.9 9.6-9 15.6-2.1 5.9-3.2 12.3-3.2 19 0 6.7 1 13 3.2 19 2.1 5.9 5.1 11.1 9 15.6 3.9 4.4 8.6 8 14.1 10.5 5.5 2.6 11.8 3.9 18.7 3.9 6.9-.1 13.2-1.3 18.7-3.9zm-41.2-19.1c-2.5-3.3-4.4-7.2-5.7-11.6-1.3-4.4-1.9-9.2-1.9-14.4 0-5.2.6-10 1.9-14.4 1.3-4.4 3.1-8.3 5.7-11.7 2.5-3.4 5.7-6 9.5-7.9 3.8-1.9 8.1-2.9 13-2.9s9.2 1 13 2.9c3.7 1.9 6.8 4.6 9.4 7.9 2.5 3.4 4.4 7.3 5.7 11.7 1.3 4.4 1.9 9.2 1.9 14.4 0 5.2-.6 10-1.9 14.4-1.3 4.4-3.1 8.3-5.7 11.6-2.5 3.3-5.6 5.9-9.4 7.8-3.7 1.9-8 2.9-13 2.9-4.9 0-9.3-1-13-2.9-3.9-1.9-7-4.5-9.5-7.8zm143.1-43.6v64.1h14.6V90.9c0-9.7-2.8-17.1-8.4-22.2-5.6-5.1-13.2-7.6-22.9-7.6-6.8 0-12.6 1.3-17.4 3.9-4.7 2.6-8.8 6.1-12.2 10.5h-.4V63.2H347v93.1h14.6V99c0-3.8.6-7.3 1.9-10.5 1.3-3.2 3-5.9 5.3-8.1 2.3-2.2 5-4 8.1-5.2 3.1-1.3 6.5-1.9 10.3-1.9 6.6 0 11.8 1.6 15.5 4.9 3.6 3.1 5.5 7.8 5.5 14zm140.4 75.5l-4.1-9.9c-5.2 2-10.5 3.6-15.9 4.7-5.5 1.1-11.3 1.6-17.5 1.6-9.7 0-18.3-1.5-25.7-4.4-7.4-2.9-13.7-7-18.8-12.3-5.1-5.3-9-11.5-11.6-18.7-2.6-7.2-4-15.1-4-23.6 0-10.3 1.7-19.6 5.1-27.7 3.4-8.2 8-15.1 13.9-20.7 5.8-5.6 12.6-10 20.2-13 7.7-3 15.7-4.5 24.1-4.5 8 0 15.6 1.1 22.7 3.3 7.1 2.2 13.2 5.6 18.5 10.1 5.2 4.5 9.3 10.2 12.3 17 3 6.8 4.5 14.9 4.5 24.1 0 6.2-.6 11.6-1.7 16.1-1.1 4.5-2.6 8.2-4.4 11.1s-3.9 5-6.2 6.3c-2.3 1.3-4.7 2-7.1 2-7.9 0-11.2-5-9.9-14.9l6.1-50h-14l-1.4 11h-.4c-1.9-3.6-4.7-6.6-8.4-9.1s-8.3-3.7-13.8-3.7c-5.3 0-10.1 1.1-14.6 3.1-4.4 2.1-8.3 5.1-11.7 9.1-3.4 4-6 8.7-7.8 14.3-1.9 5.6-2.8 11.9-2.8 18.8 0 5 .7 9.7 2.2 13.9 1.4 4.2 3.5 7.8 6.1 10.8 2.6 3 5.9 5.3 9.6 7 3.8 1.7 8.1 2.5 12.9 2.5 5.4 0 10.4-1.3 14.9-4 4.6-2.6 8.2-6.1 11-10.3h.4c1.3 3.8 3.7 7 7.1 9.4 3.4 2.4 7.9 3.6 13.6 3.6 5.5 0 10.3-1.2 14.4-3.6 4.1-2.4 7.5-5.7 10.2-9.9 2.7-4.2 4.7-9.2 6.1-15.1 1.4-5.9 2.1-12.2 2.1-19.1 0-10.7-2-20.1-5.9-28.3-4-8.2-9.2-15-15.8-20.4-6.5-5.5-14-9.6-22.4-12.3-8.4-2.8-17-4.1-25.7-4.1-9.6 0-19 1.7-28.2 5.1-9.2 3.4-17.4 8.4-24.6 14.9-7.2 6.5-13 14.6-17.4 24.1-4.4 9.5-6.6 20.5-6.6 32.8 0 10.6 1.8 20.2 5.4 28.8 3.6 8.6 8.6 16 15.1 22.1 6.5 6.1 14.2 10.9 23.3 14.2 9.1 3.4 19 5 30 5 13.2.2 25.4-2.2 36.6-7.2zM529.3 110c-1 4.2-2.5 7.8-4.5 10.9-2 3.1-4.6 5.5-7.6 7.3-3.1 1.8-6.7 2.7-10.9 2.7-3.1 0-5.8-.6-8-1.8-2.2-1.2-4-2.8-5.5-5-1.4-2.1-2.5-4.6-3.1-7.4-.7-2.8-1-5.8-1-9.1 0-4.7.5-9.1 1.4-13.1.9-4.1 2.2-7.6 4-10.7 1.8-3.1 4.1-5.5 7-7.3s6.3-2.7 10.3-2.7c6.7 0 11.6 2.1 14.8 6.2 3.1 4.1 4.7 9.6 4.7 16.5-.2 4.8-.6 9.3-1.6 13.5zM81.5 351.4c-.4-1.7-.6-4.3-.6-7.9v-47.9c0-5.4-1-9.8-3.1-13.1-2-3.4-4.7-6-8.1-7.8-3.4-1.9-7.1-3.1-11.2-3.7-4.1-.6-8.3-.9-12.5-.9-5.2 0-10.1.5-14.8 1.6s-8.8 2.9-12.4 5.3c-3.6 2.5-6.5 5.7-8.6 9.6-2.2 4-3.4 8.8-3.6 14.6h15.3c.4-6.8 2.7-11.5 7-13.9 4.3-2.5 9.7-3.7 16.2-3.7 2.4 0 4.8.2 7.3.5 2.5.4 4.7 1.1 6.7 2.2s3.6 2.6 4.9 4.7c1.3 2 1.9 4.7 1.9 8.1 0 2.9-.8 5.1-2.5 6.6s-4 2.6-6.8 3.4c-2.9.8-6.2 1.4-10 1.8-3.8.4-7.8 1.1-12 1.9-4 .7-7.8 1.6-11.6 2.7s-7.1 2.7-10.1 4.8c-2.9 2.1-5.3 4.8-7.1 8.2-1.8 3.4-2.7 7.7-2.7 13 0 4.7.8 8.7 2.4 12 1.6 3.3 3.8 6 6.7 8.1 2.8 2.1 6.1 3.6 9.8 4.5 3.7.9 7.7 1.3 11.9 1.3 6.5 0 12.5-1.1 18.1-3.3 5.6-2.2 10.5-5.9 14.7-10.9 0 5 1.2 8.7 3.5 10.9 2.3 2.2 5.5 3.3 9.5 3.3 4.7 0 8.3-.8 11-2.3V353c-1.8.6-3.4.9-4.7.9-2.6 0-4.1-.8-4.5-2.5zm-15.9-18.6c0 2.2-.5 4.5-1.6 6.9-1.1 2.5-2.8 4.7-5 6.8-2.3 2.1-5.2 3.8-8.8 5.2-3.6 1.4-7.9 2.1-13 2.1-2.3 0-4.5-.2-6.8-.7-2.2-.5-4.1-1.3-5.8-2.3-1.6-1.1-2.9-2.5-4-4.2-1-1.7-1.5-3.9-1.5-6.4 0-3.8.9-6.9 2.6-9.1 1.7-2.2 4-3.9 6.8-5.1 2.8-1.2 5.9-2.1 9.4-2.6s6.9-1 10.4-1.4c3.4-.4 6.7-1 9.8-1.6 3.1-.7 5.6-1.7 7.6-3.2v15.6zm116.5-53.3c-2.5-3-5.8-5.3-9.9-7-4.1-1.7-9.2-2.5-15.3-2.5-13.8 0-23.9 5.6-30.2 16.9h-.4v-14.8h-14.4v93.1h15.3v-52.6c0-4.2.6-8.1 1.7-11.6s2.8-6.6 5.1-9.3c2.3-2.6 5.1-4.7 8.5-6.1 3.4-1.4 7.5-2.2 12.1-2.2 5.9 0 10.5 1.7 13.9 5 3.4 3.4 5 7.9 5 13.7v63h15.3V304c0-5-.5-9.6-1.5-13.8-1-4.1-2.7-7.6-5.2-10.7zm58.3-35.2h-15.3v27.9h-15.8v13.5h15.8v59.2c0 4.3.4 7.8 1.3 10.4.8 2.6 2.1 4.7 3.9 6.1 1.7 1.4 4 2.4 6.8 3 2.8.5 6.2.8 10.2.8H259v-13.5h-7c-2.4 0-4.4-.1-5.8-.3-1.5-.2-2.7-.6-3.5-1.2-.8-.6-1.4-1.4-1.7-2.5-.3-1.1-.5-2.5-.5-4.3v-57.8H259v-13.5h-18.5v-27.8zm116.4 39.8c-3.8-4.4-8.5-7.8-14.1-10.4-5.6-2.5-12.1-3.8-19.5-3.8-7.3 0-13.8 1.3-19.4 3.8-5.6 2.5-10.4 6-14.2 10.4-3.8 4.4-6.7 9.5-8.6 15.5-1.9 5.9-2.9 12.3-2.9 19.2 0 6.8 1 13.2 2.9 19.1 1.9 5.9 4.8 11 8.6 15.4s8.6 7.8 14.2 10.3c5.6 2.5 12.1 3.7 19.4 3.7 7.4 0 14-1.2 19.5-3.7 5.6-2.5 10.3-5.9 14.1-10.3 3.8-4.4 6.7-9.5 8.6-15.4 1.9-5.9 2.9-12.2 2.9-19.1 0-6.8-1-13.2-2.9-19.2-1.8-5.9-4.7-11.1-8.6-15.5zm-6.9 49.7c-1.5 4.4-3.6 8-6.2 11-2.6 2.9-5.7 5.2-9.3 6.8-3.5 1.6-7.3 2.3-11.2 2.3-4 0-7.7-.8-11.2-2.3-3.5-1.6-6.6-3.8-9.3-6.8-2.6-2.9-4.7-6.6-6.2-11s-2.2-9.4-2.2-15 .7-10.6 2.2-15c1.5-4.4 3.6-8.1 6.2-11.1s5.7-5.3 9.3-6.8c3.5-1.6 7.3-2.3 11.2-2.3 4 0 7.7.8 11.2 2.3 3.5 1.6 6.6 3.8 9.3 6.8 2.6 3 4.7 6.7 6.2 11.1 1.5 4.4 2.2 9.4 2.2 15 .1 5.6-.7 10.6-2.2 15zm113.9-54.3c-2.5-3-5.8-5.3-9.9-7-4.1-1.7-9.2-2.5-15.3-2.5-13.8 0-23.9 5.6-30.2 16.9h-.4v-14.8h-14.4v93.1h15.3v-52.6c0-4.2.6-8.1 1.7-11.6s2.8-6.6 5.1-9.3c2.3-2.6 5.1-4.7 8.6-6.1 3.4-1.4 7.5-2.2 12.1-2.2 5.9 0 10.5 1.7 13.9 5 3.4 3.4 5 7.9 5 13.7v63h15.3V304c0-5-.5-9.6-1.5-13.8-1.1-4.1-2.8-7.6-5.3-10.7zm125.9 73c-8 4-16.3 5.9-24.9 5.9-7.6 0-14.7-1.5-21.4-4.4-6.7-2.9-12.6-7-17.7-12.1s-9.1-11.1-12.1-18.1c-2.9-7-4.4-14.5-4.4-22.5 0-7.9 1.4-15.4 4.2-22.3 2.8-7 6.7-13.1 11.6-18.4 4.9-5.3 10.7-9.4 17.4-12.5 6.7-3.1 13.8-4.6 21.5-4.6 6.4 0 12.4 1.1 18.3 3.2 5.8 2.2 11 5.3 15.6 9.3 4.6 4 8.2 8.9 10.9 14.7 2.7 5.8 4 12.2 4 19.3 0 4.8-.8 9.7-2.3 14.6-1.6 4.9-3.5 9.4-5.9 13.3-2.4 4-5.1 7.2-8 9.7-2.9 2.5-5.8 3.8-8.6 3.8-2.9 0-4.3-1.9-4.3-5.6 0-1.3.2-2.8.6-4.4.4-1.6.9-3.2 1.4-4.8l15.1-51.1h-11.3l-4.1 11.3c-2-5.4-4.9-9.2-8.5-11.4-3.6-2.2-7.5-3.3-11.7-3.3-6.4 0-12.1 1.5-17.4 4.5-5.2 3-9.7 6.9-13.3 11.7-3.7 4.8-6.5 10.3-8.5 16.4-2 6.1-3.1 12.3-3.1 18.5 0 4 .6 7.7 1.9 11.2 1.3 3.5 3 6.5 5.2 9s4.9 4.5 8.1 6c3.2 1.5 6.7 2.2 10.5 2.2 4.4 0 8.6-1.2 12.4-3.7 3.8-2.5 7.1-5.2 9.9-8.4h.5c.2 4 1.4 6.9 3.6 8.8 2.2 1.9 4.8 2.9 7.9 2.9 4.2 0 8.8-1.3 13.7-3.8 4.9-2.5 9.5-6.1 13.7-10.6 4.2-4.6 7.7-10 10.5-16.5 2.8-6.4 4.2-13.5 4.2-21.3 0-8.2-1.6-15.6-4.9-22.4-3.2-6.8-7.7-12.6-13.2-17.5-5.6-4.9-12.1-8.7-19.5-11.4-7.4-2.8-15.3-4.1-23.6-4.1-9.1 0-17.7 1.7-25.8 5.2-8.1 3.5-15.2 8.3-21.2 14.3-6.1 6.1-10.9 13.1-14.4 21.2s-5.3 16.8-5.3 26c0 9.6 1.7 18.5 5.2 26.7s8.2 15.4 14.3 21.4c6.1 6.1 13.2 10.8 21.4 14.3s17.1 5.2 26.5 5.2c5.8 0 11.4-.7 16.9-2.1 5.5-1.4 10.7-3.4 15.6-6.1s9.3-6 13.4-9.9c4.1-3.9 7.6-8.4 10.4-13.4h-11.3c-5.2 6.8-11.8 12.1-19.7 16.1zm-12.4-49.2c-1.4 4.4-3.4 8.6-5.9 12.5-2.5 3.9-5.5 7.1-8.8 9.7-3.4 2.6-7 3.9-11 3.9-4.6 0-8.3-1.6-11.2-5-2.9-3.3-4.3-7.5-4.3-12.5 0-4 .7-8.1 2.2-12.5 1.4-4.4 3.4-8.4 5.9-12.2 2.5-3.7 5.5-6.8 9.1-9.3 3.5-2.5 7.4-3.7 11.6-3.7 1.9 0 3.7.5 5.5 1.4 1.7 1 3.3 2.2 4.7 3.7 1.4 1.5 2.5 3.3 3.2 5.3.8 2 1.2 4.1 1.2 6.3 0 3.9-.7 8-2.2 12.4z"/></svg>