<svg xmlns="http://www.w3.org/2000/svg" viewBox="0 0 960 200"><path fill="#333" d="M108 87.7c-4.7-3.3-10-6-16.1-8-6.1-2-12.4-3.8-19.1-5.4-5.3-1.2-10-2.3-14.1-3.3s-7.4-2.1-10.1-3.3c-2.7-1.2-4.7-2.6-6.1-4.3-1.4-1.7-2.1-3.8-2.1-6.3 0-4 1.9-7.2 5.6-9.7 3.7-2.5 8.7-3.7 15-3.7 6.7 0 12 1.5 16 4.4 4 2.9 6.3 7.2 7 12.8h34.6c-.4-7.5-2.1-14-5.1-19.5-3-5.5-7-10.1-12-13.7-5-3.6-10.9-6.3-17.6-8.1-6.7-1.8-14-2.7-21.7-2.7-8 0-15.5.9-22.4 2.6-6.9 1.7-12.9 4.4-18 8-5.1 3.6-9.1 8.2-12 13.7-2.9 5.5-4.4 12.1-4.4 19.7 0 7.5 1.5 13.7 4.5 18.6 3 4.9 6.9 9 11.7 12.2 4.8 3.2 10.2 5.7 16.3 7.6 6.1 1.9 12.2 3.5 18.5 5 4.9 1.2 9.3 2.3 13.2 3.3 3.9 1 7.1 2.2 9.8 3.5 2.7 1.3 4.7 2.9 6.1 4.8 1.4 1.9 2.1 4.2 2.1 7 0 2.7-.7 5-2 6.9-1.3 1.9-3.1 3.5-5.2 4.7-2.1 1.2-4.6 2.1-7.3 2.6s-5.6.8-8.5.8c-8.5 0-15.1-1.6-19.8-4.8-4.7-3.2-7.4-8.4-8.2-15.6H1c.1 7.9 1.8 14.8 4.9 20.9 3.1 6.1 7.5 11.1 13 15.2s12.2 7.1 20 9.2c7.8 2.1 16.4 3.1 25.9 3.1 8.3 0 16-1 23.1-3.1 7.1-2.1 13.3-5.1 18.6-9 5.3-3.9 9.4-8.8 12.4-14.6 3-5.8 4.5-12.4 4.5-19.9 0-7.6-1.4-13.9-4.2-19-2.8-5.1-6.5-9.3-11.2-12.6zm23.8 74.8h35.4v-55.6h59.4V78.3h-59.4v-29h71V19.5H131.8v143zM328.1 130c-4.9 4.5-11.3 6.7-19.3 6.7-5.3 0-10.1-1.1-14.3-3.4-4.2-2.3-7.8-5.4-10.8-9.4s-5.3-8.8-6.9-14.3c-1.6-5.5-2.4-11.6-2.4-18.1 0-6.5.7-12.6 2.1-18.1 1.4-5.5 3.5-10.3 6.3-14.4s6.3-7.2 10.6-9.5 9.3-3.4 15.2-3.4c7.6 0 13.8 2.2 18.5 6.5 4.7 4.3 7.6 9.7 8.5 16.1H371c-.9-8-3.2-15.4-6.7-22.2-3.5-6.8-8.4-12.5-14.7-17.2-5.1-3.9-11-6.9-17.9-9.2-6.9-2.3-14.5-3.4-22.9-3.4-10.7 0-20.3 1.9-29 5.7-8.7 3.8-16.1 9-22.2 15.7-6.1 6.7-10.9 14.6-14.2 23.7-3.3 9.1-5 19-5 29.7 0 9.3 1.3 18 3.9 26.1 2.6 8.1 6.3 15.3 11.1 21.6 4.8 6.3 10.6 11.6 17.4 15.8s14.4 7.1 22.8 8.7v17h12.8c0 2.7-1.1 4.6-3.3 5.9-2.2 1.3-5.4 2-9.7 2.3v7.4c8.1 0 14.6-1.5 19.5-4.5s7.3-8.2 7.3-15.5v-11.6c7.3-.8 13.8-2.5 19.4-5 5.6-2.5 10.7-5.9 15.2-10.2 4.9-4.7 8.9-10.1 11.9-16.4 3-6.3 4.8-13 5.3-20.2h-35.4c-.8 6.9-3.6 12.6-8.5 17.1zM503 62.1c-3.2-8.9-7.7-16.5-13.5-22.8-5.8-6.3-12.8-11.1-20.9-14.6-8.1-3.5-17.1-5.2-27-5.2h-61v143h58.8c9.1 0 17.2-1.1 24.4-3.3s13.6-5.4 19.2-9.7c8-6.1 14.1-14.1 18.4-23.9 4.3-9.8 6.4-21 6.4-33.7 0-10.9-1.6-20.9-4.8-29.8zm-39.8 60.1c-5.9 7-14.7 10.5-26.4 10.5H416V49.1h21.2c11.2 0 19.8 3.9 25.8 11.6 6 7.7 9 18.1 9 31.2 0 13.2-2.9 23.3-8.8 30.3z"/></svg>