<svg xmlns="http://www.w3.org/2000/svg" viewBox="0 0 960 200"><path fill="#333" d="M174.9 95.5c-.9-4.6-2.7-8.6-5.6-12.1-2.9-3.5-6.8-6.2-11.7-8.2-4.9-2-11.1-3-18.4-3-7.4 0-13.8 1-19.4 3-5.6 2-10.3 4.7-14.3 8.2-3.9 3.5-7.1 7.5-9.5 12.1-2.4 4.6-4 9.5-4.9 14.8-.9 5.3-.9 10.3 0 14.9s2.7 8.6 5.6 12.1c2.9 3.5 6.8 6.2 11.7 8.2 4.9 2 11 3 18.4 3 7.4 0 13.8-1 19.4-3 5.6-2 10.4-4.7 14.4-8.2 4-3.5 7.2-7.5 9.5-12.1s3.9-9.5 4.8-14.9c.9-5.3.9-10.2 0-14.8zm-31.2 5.1c-.5 3.3-1 6.5-1.5 9.7-.5 3.2-1.1 6.4-1.7 9.7-.6 3.3-1.4 6.3-2.4 8.9-1 2.7-2.2 4.8-3.7 6.5-1.5 1.7-3.5 2.6-5.8 2.6-2.4 0-4.3-1.1-5.2-2.8-.9-1.7-1.2-3.6-1.3-6.3-.1-2.6.1-5.6.6-8.9.5-3.3 1-6.5 1.5-9.7.5-3.2 1.1-6.4 1.7-9.7.6-3.3 1.4-6.3 2.4-8.9 1-2.7 2.2-4.8 3.6-6.5 1.5-1.7 3.4-2.5 5.8-2.5s4.1.8 5 2.5c1 1.7 1.5 3.8 1.6 6.5.1 2.6-.1 5.6-.6 8.9zm-53.3-44c-1.1-2-4.2-7.1-7.6-9.1-2-1.2-4.1-2.4-6.7-3.4-2.6-1-5.6-1.8-9.1-2.5-3.5-.6-7.4-1-11.8-1-8.9 0-17.8 2.1-25.1 7.1-7.3 5-13 14.4-14.9 26.2-1.7 10.6 4.1 18.5 11.2 24.5 4.2 3.5 18.5 12.1 19.9 13.2 7.2 5.4 13.2 17.1-3.8 19.9-1.1.2-9.9 2.1-21.8-3.3-5.3-2.4-10.6-7.6-11.2-8.2-1.6-1.6-2.9-1.5-3.6-.1L2 127.1c0 .1.1.4.2.5 10.2 21.7 37.5 21.9 38.6 21.9 25.5 0 38-14.8 39.9-17.1 3-3.8 5-8.1 5.8-13.1.9-5.3.2-10-1.9-14-2.2-4.1-4.9-7.6-8.3-10.6-3.4-3-6.4-5.1-10.5-7.8-3.5-2.3-14.2-9.4-17.4-12.5-1.2-1.1-2-2.4-2.6-3.8-.6-1.4-.7-3-.4-4.9.3-1.7 1.3-3.2 2.8-4.5 1.6-1.4 3.5-2.4 5.8-3.1 2.3-.7 5-.9 7.9-.7 3 .2 6 1.1 9 2.6-.9 1.5-1.5 3.2-1.8 5.1-.3 1.9-.2 3.7.2 5.4.5 1.7 1.4 3.1 2.7 4.2 1.3 1.1 3.1 1.7 5.4 1.7 2.4 0 4.4-.5 6.1-1.5 1.7-1 3-2.2 4.1-3.6 1.8-2.4 3.3-5.8 3.5-7.9.5-2.6.2-4.9-.7-6.8zm724.3 63.3c-5.2 3.2-10.2 6.1-15 8.6-4.8 2.6-9.7 4.4-14.5 5.3-9.4 2-15.8 1.2-19-2.3-2-2.1-3.1-5.1-3.3-8.7 4.7-.2 14-1.4 17.1-2 5.1-1.1 9.8-2.7 14.2-5 4.4-2.3 8-5.3 11-9.1s4.6-8.5 4.9-14.1c.1-1.4-.1-3.3-.6-5.6s-1.7-4.5-3.6-6.7c-1.9-2.2-4.8-4.1-8.6-5.7-3.8-1.6-9.1-2.4-15.6-2.4-3.6 0-7.2.4-10.9 1.1-3.7.8-7.4 2-11 3.5-3.6 1.6-7.1 3.6-10.5 6-3.4 2.4-6.5 5.3-9.2 8.6-2.4 2.8-4.3 5.8-5.7 8.8-1.4 3.1-2.5 6.1-3.2 9-.7 2.9-1.1 5.7-1.1 8.3-.1 2.6.1 5.1.3 6.8-.5.4-1.1.7-1.6 1.1-3 1.8-5.6 2.7-7.6 2.7-1.5 0-2.7-.7-3.6-2-.9-1.4-1-3.9-.5-7.5l13-81.9c.1-.7.2-1.5.3-2.3.1-.8 0-1.6-.2-2.2-.3-.7-.8-1.2-1.5-1.7s-1.8-.7-3.2-.7c-1.6 0-3.8.2-6.4.5-2.7.4-5.3.9-8 1.7-2.7.8-5.2 1.7-7.6 2.8-2.4 1.1-4.2 2.3-5.5 3.6-.9 1-1.3 2.4-1.6 4.4L692 72c-8.3.4-15.6 1.6-22 3.8-6.3 2.2-11.7 5.1-16.2 8.6-4.5 3.6-8 7.8-10.6 12.6-2.6 4.8-4.4 10.1-5.4 15.9-.4 2.5-.7 4.9-.8 7.2-2.1 1.7-4.6 3.4-7.4 5.1-3.1 1.8-5.7 2.7-7.7 2.7-1.5 0-2.7-.7-3.7-2-.9-1.3-1-3.9-.4-7.5l6.7-41.2c.1-.8.1-1.5-.3-2-.6-.6-1.1-.7-1.8-.8-4.6-.8-8.8-1.5-12.8-2s-7.9-.7-11.7-.7c-9.2 0-17.3 1-24.2 3.1-7 2.1-12.9 4.9-17.8 8.5-4.9 3.6-8.7 7.9-11.6 13-2.9 5.1-4.8 10.6-5.8 16.6-.5 2.7-.7 5.3-.9 7.7-4.6 2.8-9.1 5.3-13.4 7.6-4.9 2.6-9.7 4.4-14.6 5.3-4.6.9-8.5 1.2-11.6.8-3.1-.4-5.5-1.5-7.2-3.2-1.7-1.7-2.8-4-3.2-6.8-.4-2.8-.3-6.1.3-9.9.4-2.5 1.1-5.2 1.9-8 .8-2.9 2-5.7 3.5-8.4s3.4-5.1 5.8-7.2c2.3-2.1 5.2-3.7 8.7-4.6 1.4-.4 3.2-.5 4.1.2 1.7 1.3 1.8 2.5.5 4.2-.8 1.1-1.6 2.3-2.4 4.2-.7 1.8-.9 3.7-.7 5.5.3 1.8 1.1 3.4 2.8 4.8 1.9 1.5 4.1 2 7.7 2 1.7 0 3.4-.4 5.1-1.1 1.7-.7 3.2-1.7 4.6-3 1.3-1.3 2.5-2.8 3.4-4.5.9-1.7 1.6-3.4 1.9-5.6.1-1.2 0-2.6-.2-4.9-.3-2.3-1.3-4.6-3.2-7.1-1.8-2.4-4.7-4.5-8.6-6.4-3.9-1.8-9.4-2.7-16.4-2.7-3.6 0-7.2.4-10.9 1.1-3.7.8-7.4 2-11 3.5-3.6 1.6-7.1 3.6-10.5 6-3.4 2.4-6.5 5.3-9.2 8.6-2.5 2.8-4.4 5.8-5.8 8.8-1.4 3.1-2.4 6.1-3.1 9-.6 2.9-1 5.7-1 8.3-.1 2.6 0 4.8.2 6.7-.6.4-1.2.8-1.9 1.2-3.1 1.8-5.7 2.7-7.7 2.7-1.5 0-2.7-.7-3.7-2-.9-1.4-1.1-3.9-.4-7.5L448 77c.1-.8-.1-1.5-.5-2s-1-.8-1.6-.9c-4.5-.8-8.8-1.5-12.8-2s-7.9-.7-11.7-.7c-9.2 0-17.3 1-24.2 3.1-7 2.1-12.9 4.9-17.8 8.5-4.9 3.6-8.7 7.9-11.6 13-2.9 5.1-4.8 10.6-5.8 16.6-1.8 11.2-1.1 19.8 2.3 25.8s8.9 9 16.5 9c3.8 0 7.5-.9 9.8-1.9 7.4-3.2 11.2-8.4 12.8-10.4 1.6-2.1 3-3.9 4.3-5.4.1 2 .4 4 .8 6.1.4 2.1 1.2 4 2.4 5.7 1.1 1.7 2.7 3.1 4.7 4.2s4.6 1.7 7.9 1.7c6.2 0 12.4-1.6 18.8-4.8 5.1-2.6 10.1-6.1 14.9-10.7.6 1.3 1.3 2.5 2.2 3.7 2.3 3.1 5.1 5.5 8.4 7.2 3.2 1.8 6.8 3 10.7 3.7 1 .2 2 .3 3 .5 14.9 4.6 15.4 21.3-7.2 21.8-1.3 0-2.9 1.9-4.4 8.7 47.3 1.2 43.4-26.5 30.3-30.3 4.9-.6 9.6-1.8 14.3-3.5 7.5-2.8 15.3-7.7 23.5-14.5.5 3.5 1.4 6.6 2.9 9.1 3.3 6 8.9 9 16.5 9 3.8 0 7.1-.6 9.8-1.9 2.8-1.2 5.2-2.8 7.3-4.6 3.6-3 6.6-6.6 9.8-11.2.1 2 .4 4 .8 6.1.4 2.1 1.2 4 2.3 5.7 1.1 1.7 2.7 3.1 4.7 4.2s4.6 1.7 7.9 1.7c6.1 0 12.4-1.6 18.8-4.8 6.3-3.2 12.4-7.9 18.3-14.1.5 3.8 1.5 7.1 3 9.9 3.4 6 8.9 9 16.5 9 3.8 0 7.1-.6 9.9-1.9 2.8-1.2 5.2-2.8 7.3-4.6 2-1.8 3.9-3.8 5.4-5.8 1.6-2.1 3-3.9 4.3-5.4.1 2 .4 4 .8 6.1.4 2.1 1.2 4 2.4 5.7 1.1 1.7 2.7 3.1 4.8 4.2 2 1.1 4.7 1.7 7.9 1.7 6 0 12.3-1.6 18.7-4.8 5-2.5 9.9-6 14.7-10.5.6 1.2 1.3 2.4 2.1 3.4 2.3 3.1 5.1 5.5 8.4 7.2 3.3 1.8 6.8 3 10.7 3.7 3.9.7 7.7 1.1 11.5 1.2 8.5.2 16.7-1.1 24.6-4.1 7.8-3 16-8.1 24.6-15.4.2-.2.3-.3.3-.5l1.3-7.8c-.1.1-.8-.2-1.6.2zm-48.3-14.6c1.2-2.4 2.6-4.3 4-5.8 3-3.2 6.5-4 8.8-4.2 2.4-.2 4.7.2 6 1.8 1.3 1.5 1.8 3.5 1.5 5.8-.2 1.3-.9 2.5-2.1 3.7-1.2 1.2-2.7 2.2-4.6 3.2-1.7.8-10.3 3.6-16.4 4.8.6-3.8 1.6-6.9 2.8-9.3zm-358.2 15.3c-2.1 1.9-3.9 3.2-5.5 3.9-1.6.7-3 1.1-4.2 1.1-3.2 0-4.7-1.3-5.6-2.5-.9-1.2-1.6-3-2-5.3-.4-2.4-.3-5.7.3-9.9 1.4-8.5 4.1-14.6 8-18.3 3.9-3.7 8.9-5.6 14.8-5.6l-5.8 36.6zm176.5 0c-2.1 1.9-3.9 3.2-5.5 3.9-1.6.7-3 1.1-4.2 1.1-3.2 0-4.7-1.3-5.6-2.5-.9-1.2-1.6-3-2-5.3-.4-2.4-.3-5.7.3-9.9 1.4-8.5 4.1-14.6 8-18.3 3.9-3.7 8.9-5.6 14.8-5.6l-5.8 36.6zm99.3 0c-2 1.9-3.9 3.2-5.5 3.9-1.6.7-3 1.1-4.2 1.1-3.2 0-4.7-1.3-5.6-2.5-.9-1.2-1.6-3-2-5.3-.4-2.4-.3-5.7.3-9.9 1.4-8.5 4.1-14.6 8-18.3 3.9-3.7 8.9-5.6 14.8-5.6l-5.8 36.6zM363.5 89.5c.2-.8-.1-1.2-1-1.2h-28.1l4.1-24.6c9.3 0 35.5-.2 40.5-.2.9 0 1.4-.4 1.6-1.4l2-13.8c.5-4.3-1.8-5.3-5.8-5.3-11.3 0-22.1.6-33.3 1.1-13 .6-36.3 3.2-38.8 3.6-.8.2-1.5.8-1.6 1.6-.1.8-.3 11.6-.3 13.2 0 1.2.7 1.2 1.6 1.2h1.3l-12.3 76.2s-.3 1.8-.3 2.5.1 1.2.5 1.8c.9 1.4 2.2 2.4 4.3 3.1 2.1.7 4.4 1.1 7 1.3 2.5.2 5.1.3 7.6.3 4.6-.1 8.7-.5 10.3-1.5 1.8-1 2.5-2.9 2.6-3.7.2-.8.3-1.5.4-2.2l6.6-41.4h27.1c.9 0 1.1-.4 1.3-1.1l2.7-9.5zm-77.6 30.2c-.3 0-.4.1-.6.2-1.2.9-2.5 1.9-4 2.9s-3 1.9-4.5 2.7c-1.6.8-3.1 1.4-4.5 1.9-1.5.5-2.7.8-3.6.8-1.5 0-2.9-.7-4.1-2-1.2-1.4-1.6-3.9-1.1-7.5l5.4-32.7H282c.5 0 .9-.3 1.1-1.1l1.5-9.5c.2-.8 0-1.2-.7-1.2h-13.1s2.3-14.7 2.4-15.5c.1-.8 0-1.5-.2-2.1-.3-.7-.8-1.2-1.5-1.7s-1.8-.7-3.3-.7c-1.6 0-3.4.2-5.4.6-1.9.4-3.9 1-5.8 1.8s-3.8 1.7-5.7 2.7c-1.8 1-3.4 2.2-4.7 3.5-.3.4-1 .9-1.6 2.5l-3.4 8.8h-22.4l1.3-8.5c1-5.8 2.5-11.7 4.5-14.6 2.1-2.9 4.3-4.8 6.7-5.8 2.4-1 4.8-1.4 7.1-1.1 2.3.3 4.2.7 5.8 1.1.3.1.5.2.7.2.4 0 .6-.3.7-1.1 0 0 1.4-7.9 1.1-8.1-3.9-3.5-8.8-5.9-14.1-6.7-5.3-.8-11-.5-17.2 1.1-5.3 1.3-9.7 3.3-13.1 6-3.5 2.7-6.2 5.7-8.4 8.9-2.1 3.2-3.7 8.2-4.7 11.7s-1.8 6.6-2.2 9.3l-1.1 7.6H181c-.8 0-1.2.4-1.5 1.2l-1.5 9.5c-.2.7.1 1.1 1 1.1h5.3L172 162.4c-.1.7-.2 1.5-.2 2.3 0 .8 0 1.5.2 2.1.2.6.7 1.1 1.4 1.6s1.8.7 3.3.7c1.6 0 3.7-.2 6.2-.5 2.5-.4 5.2-.9 7.9-1.7 2.7-.8 5.3-1.7 7.7-2.7 2.4-1.1 4.2-2.3 5.4-3.7.9-.8 1.5-2.3 1.8-4.4l11.4-70.2h19l-5.7 34.6c-.5 3.1-.7 6.2-.6 9.4.2 3.2.8 6.1 2 8.8 1.2 2.7 3 4.9 5.4 6.6 2.4 1.7 5.6 2.6 9.6 2.6 6.2 0 12.6-1.6 19.2-4.8 6.7-3.2 13-8 19.1-14.3.3-.3 1.5-8.3 1.5-8.3 0-.3.1-.4-.1-.6-.2-.1-.4-.2-.6-.2z"/></svg>