<svg xmlns="http://www.w3.org/2000/svg" viewBox="0 0 960 165"><path fill="#333" d="M66.3 68.8H24.6V28.1H2v102.8h22.6V89.7h41.7V131h22.6V28.1H66.3v40.7zm77.5-17.5c-13.4 0-21.9 2.5-30.5 6.3l5.6 17c7.2-2.6 13.2-4.3 21.7-4.3 11.2 0 16.9 5.1 16.9 14.4V86c-5.6-1.9-11.3-3.2-19.2-3.2-18.6 0-31.7 7.9-31.7 25.1v.3c0 15.6 12.2 24.1 27 24.1 10.9 0 18.4-4 23.8-10v8.5H179V85.3c0-10.6-2.6-19.2-8.5-25.1-5.7-5.6-14.5-8.9-26.7-8.9zm14 51.9c0 8.1-7 13.8-17.5 13.8-7.2 0-12.2-3.5-12.2-9.5v-.3c0-7 5.9-10.9 15.4-10.9 5.4 0 10.4 1.2 14.2 2.9v4zm133.9-52.4c-10.7 0-18.9 4.4-25.8 12.5-4.1-7.9-11.9-12.5-22.2-12.5-11.3 0-18.1 6-23.2 12.6V52.2h-22.3v78.7h22.3V87c0-10.6 5.1-16 13.5-16s13.1 5.4 13.1 16v43.9h22.3V87c0-10.6 5.1-16 13.5-16S296 76.4 296 87v43.9h22.3V79.7c-.1-19-10.1-28.9-26.6-28.9zm92.7 0c-11.6 0-19.1 5.4-24.5 12.8V23.7h-22.3v107.2h22.3v-10.3c5.3 6.3 12.6 11.7 24.5 11.7 18.6 0 35.8-14.4 35.8-40.7v-.3c.1-26.2-17.4-40.5-35.8-40.5zm13.5 40.9c0 13.2-8.8 21.7-19.2 21.7-10.4 0-19.1-8.7-19.1-21.7v-.3c0-13.1 8.7-21.7 19.1-21.7 10.4 0 19.2 8.7 19.2 21.7v.3zm88 4.4c0 10.6-5.4 16-13.9 16s-13.5-5.4-13.5-16V52.2h-22.3v50.9c0 18.1 9.8 29.2 26.7 29.2 11.3 0 17.9-6 23-12.6v11.2h22.3V52.2h-22.3v43.9zm64.6-28V52.2h-22.3v78.7h22.3v-29.1c0-18.8 9.1-27.7 23.9-27.7h1.2V50.8c-13.2-.6-20.6 6.4-25.1 17.3zm94.4-5.6c-6-6.6-13.2-11.7-25.4-11.7-18.1 0-34.9 13.2-34.9 36.7v.3c0 23.3 16.6 36.7 34.9 36.7 11.9 0 19.1-4.8 25.7-12.8v3.8c0 14.1-7.2 21.4-22.5 21.4-10.4 0-18.5-2.6-26.6-7.2l-7.6 16.7c10 5.3 22 8.2 34.8 8.2 15.3 0 26.6-3.2 33.9-10.6 6.6-6.6 10-16.9 10-31V52.2h-22.3v10.3zm.3 25.3c0 10.7-8.4 18.2-19.2 18.2-10.9 0-19.1-7.3-19.1-18.2v-.3c0-10.7 8.2-18.2 19.1-18.2 10.9 0 19.2 7.5 19.2 18.2v.3zm77-37c-22.9 0-38.9 18.5-38.9 41v.2c0 24.1 17.5 40.7 41.1 40.7 14.2 0 24.8-5.6 32.2-14.7l-12.8-11.3c-6.2 5.7-11.6 8.1-19.1 8.1-10 0-17-5.3-19.2-15.4h54.8c.1-2.1.3-4.1.3-5.9-.1-22.3-12.1-42.7-38.4-42.7zm-17 34.6c1.8-10.1 7.8-16.7 17-16.7 9.4 0 15.3 6.8 16.6 16.7h-33.6zm94.2-17.3V52.2h-22.3v78.7h22.3v-29.1c0-18.8 9.1-27.7 23.9-27.7h1.2V50.8c-13.2-.6-20.5 6.4-25.1 17.3zm73 15.2c-8.5-2.9-16-5-16-9.4v-.3c0-3.1 2.8-5.4 8.2-5.4 5.7 0 13.5 2.8 21.3 7.3l8.5-15.4C885.9 54.4 875 51 865 51c-15.9 0-28.8 9-28.8 25v.3c0 15.3 12.5 20.4 23.5 23.6 8.7 2.6 16.3 4.3 16.3 9.1v.3c0 3.5-2.9 5.9-9.4 5.9-7.3 0-16.3-3.2-24.8-9.4l-9.5 14.7c10.4 8.2 22.8 11.9 33.8 11.9 17 0 30.1-7.9 30.1-25.4v-.3c0-14.4-12.8-19.7-23.8-23.4z"/></svg>