<svg xmlns="http://www.w3.org/2000/svg" viewBox="0 0 960 165"><path fill="#333" d="M66.2 64.2H28.5V23.6H2v107.2h26.5V86.1h37.7v44.7h26.5V23.6H66.2v40.6zm110.2 51c-.8-.8-1.1-2.4-1.1-4.9V80.1c0-4.8-.7-8.9-2.1-12.2-1.4-3.3-3.6-6.3-6.5-8.8-5.9-4.8-14.7-7.2-26.4-7.2-5.9 0-11 .7-15.2 2.1-4.3 1.4-7.8 3.3-10.7 5.7s-5 5.2-6.5 8.4-2.2 6.6-2.3 10.2h22.5c.3-3.2 1.4-5.6 3.4-7.3 2-1.7 4.9-2.5 8.9-2.5 3.8 0 6.5.8 8.2 2.2 1.7 1.5 2.6 3.5 2.6 6 0 2.6-1.5 4.5-4.4 5.5-2.9 1.1-7.9 2.1-15.2 3-4 .5-7.8 1.3-11.3 2.2-3.6 1-6.7 2.4-9.4 4.3s-4.8 4.2-6.4 7.1c-1.6 2.9-2.3 6.4-2.3 10.6 0 3.8.6 7.2 2 10 1.3 2.9 3.1 5.3 5.4 7.3 2.3 2 5 3.4 8.2 4.4 3.2 1 6.7 1.5 10.5 1.5 6.3 0 11.3-1 14.9-3.1 3.6-2 6.6-4.7 8.9-7.9h.1c.9 3.6 2.7 6.2 5.6 7.9 2.8 1.7 6.8 2.5 12.1 2.5 2.5 0 4.7-.2 6.5-.7 1.8-.5 3.2-.9 4.2-1.4v-14.2h-.5c-1.7.4-3 .2-3.7-.5zm-24.6-11.8c0 4.2-1.4 7.6-4.3 10-2.8 2.5-6.6 3.8-11.2 3.8-3 0-5.5-.7-7.5-2s-3-3.5-3-6.5c0-2.9 1.1-5.1 3.2-6.5 2.1-1.4 5.5-2.7 10.2-3.8 2.5-.5 4.8-1.1 7-1.7 2.1-.6 4-1.4 5.6-2.3v9zm148-43.6c-2.2-2.5-4.9-4.5-8.2-5.9-3.3-1.4-7.1-2.1-11.4-2.1-5 0-9.5 1.1-13.6 3.2-4 2.2-7.6 5.6-10.6 10.3h-.3c-2-4.2-4.8-7.5-8.5-9.9-3.7-2.4-8-3.6-13.1-3.6-5.6 0-10.3 1.2-14 3.6-3.8 2.4-6.8 5.6-9.2 9.6h-.5V54H187v76.8h24.5v-43c0-4.6 1.1-8.3 3.2-11.2 2.1-2.9 5.1-4.3 8.9-4.3 3.7 0 6.4 1.1 8.2 3.4 1.7 2.2 2.6 5.5 2.6 9.7V131h24.5V88c0-4.6 1-8.3 3.1-11.2 2.1-2.9 5.1-4.3 9-4.3 3.7 0 6.4 1.1 8.2 3.4 1.7 2.2 2.6 5.5 2.6 9.7v45.6h24.5V80.9c0-4.3-.6-8.2-1.7-11.9-1-3.6-2.6-6.6-4.8-9.2zm88.4 3.6c-2.8-3.6-6.3-6.5-10.3-8.5-4-2-8.6-3.1-13.6-3.1-5.3 0-9.7 1-13.1 3-3.5 2-6.4 4.7-8.8 8h-.5V23.6h-24.5v107.2h23.4V121h.3c2.4 4 5.6 7 9.6 9.1 4 2 8.5 3.1 13.7 3.1 4.9 0 9.4-.9 13.4-2.8 4-1.8 7.5-4.5 10.3-8 2.9-3.5 5-7.8 6.6-12.8 1.5-5 2.3-10.8 2.3-17.2 0-5.8-.8-11.2-2.3-16.1-1.5-4.9-3.7-9.2-6.5-12.9zm-19.7 44.7c-2.5 3.9-6.2 5.8-11 5.8-5.1 0-9.1-2-12-5.9-2.9-3.9-4.3-9.1-4.3-15.5 0-6.3 1.3-11.5 4-15.8 2.6-4.2 6.7-6.3 12.1-6.3 5 0 8.8 2 11.3 6s3.8 9.3 3.8 15.9c-.1 6.7-1.3 12-3.9 15.8zm85.6-11.2c0 4.6-1.2 8.3-3.6 11.2-2.4 2.8-5.7 4.3-9.9 4.3-3.9 0-6.8-1.1-8.7-3.4-1.9-2.2-2.8-5.5-2.8-9.7V54h-24.3v50.4c0 8.6 2.3 15.5 6.8 20.8 4.5 5.2 11.3 7.9 20.2 7.9 5.4 0 9.9-1 13.4-3s6.7-4.9 9.5-8.7h.4v9.4h23.4V54h-24.4v42.9zm69-40.9c-3.3 2.1-6.3 5.5-9 10h-.5V54h-23.4v76.8h24.5V96.3c0-8.4 2.2-14.4 6.7-18.1 4.4-3.6 10.4-4.9 17.9-3.8h.6v-21c-.9-.4-2.5-.6-4.8-.6-4.7 0-8.7 1.1-12 3.2zm73.8 6.3h-.3c-2.3-3.2-5.2-5.7-8.7-7.6-3.5-1.9-7.8-2.9-12.9-2.9-4.8 0-9.2 1-13.1 2.9-4 1.9-7.3 4.6-10.2 7.9-2.8 3.4-5.1 7.5-6.6 12.2-1.6 4.7-2.3 9.9-2.3 15.5 0 5.9.9 11.1 2.8 15.7 1.8 4.6 4.3 8.4 7.4 11.4 3.1 3.1 6.6 5.4 10.6 7 4 1.6 8.1 2.4 12.5 2.4 4.7 0 8.6-.8 11.6-2.5 3-1.6 5.7-3.8 8-6.4h.6v7.7c0 4.7-1.2 8.3-3.5 10.9-2.3 2.5-6.1 3.8-11.2 3.8-4.1 0-7.2-.8-9.3-2.2-2.1-1.5-3.5-3.3-4.2-5.2h-23.7c1.2 8.1 5.1 14.2 11.7 18.4 6.6 4.2 15.2 6.3 25.8 6.3 5.7 0 11-.7 15.8-2 4.8-1.3 9-3.5 12.4-6.5 3.1-2.8 5.6-6.3 7.4-10.5 1.8-4.2 2.8-9.2 2.8-15V54h-23.4v8.3zm-3.4 40.6c-2.6 3.7-6.5 5.5-11.8 5.5-4.6 0-8.3-1.7-11-5.2-2.8-3.5-4.1-8.1-4.1-13.9 0-5.9 1.4-10.6 4.1-14 2.7-3.5 6.4-5.2 11-5.2 2.5 0 4.7.5 6.7 1.5s3.6 2.4 5 4.1c1.3 1.8 2.3 3.8 3 6.1.6 2.3 1 4.8 1 7.3-.1 5.6-1.3 10.1-3.9 13.8zm111-25.5c-2.2-6.5-5.7-11.8-10.3-16-3.3-3-7.1-5.3-11.5-7.1-4.3-1.7-9.3-2.5-14.8-2.5-5.9 0-11.2 1-16.1 3.1-4.8 2.1-9 4.9-12.4 8.5-3.5 3.7-6.2 8-8.1 12.9-1.9 5-2.8 10.3-2.8 16 0 5.8.9 11.2 2.8 16.2s4.6 9.3 8.1 13c3.5 3.7 7.8 6.5 12.9 8.6 5.1 2 10.8 3.1 17.1 3.1 4.9 0 9.3-.6 13.3-1.8 3.9-1.2 7.5-2.9 10.7-5.2 3.4-2.3 6.2-5 8.4-8.2 2.2-3.2 3.7-6.5 4.5-10h-23.8c-1.1 2.4-2.7 4.3-4.8 5.6-2.1 1.3-4.8 2-8 2-5.1 0-9.1-1.5-11.8-4.5-2.8-3-4.6-7.1-5.4-12.3h55.2c.1-7.9-.9-15-3.2-21.4zm-51.8 6.8c.8-4.6 2.4-8.2 5-11 2.5-2.7 6.1-4 10.8-4 4 0 7.3 1.3 9.9 4 2.6 2.7 4.1 6.4 4.7 11h-30.4zM748.8 56c-3.3 2.1-6.3 5.5-9 10h-.4V54H716v76.8h24.5V96.3c0-8.4 2.2-14.4 6.7-18.1 4.4-3.6 10.4-4.9 17.9-3.8h.6v-21c-.9-.4-2.5-.6-4.8-.6-4.8 0-8.8 1.1-12.1 3.2zm89.6 39.8c-1.8-3-4.1-5.5-7-7.3-2.8-1.8-6-3.1-9.5-4-3.5-.8-6.9-1.6-10.3-2.2-2.4-.4-4.7-.8-7-1.2-2.3-.4-4.2-.9-5.9-1.4-1.7-.5-3.1-1.2-4-2-1-.8-1.5-1.9-1.5-3.3 0-2.4 1-4.2 3.1-5.3 2-1.1 4.6-1.7 7.6-1.7 3.4 0 6.2.6 8.3 1.9 2.1 1.3 3.5 3.6 4 7.1h22.5c-.6-7.6-3.8-13.6-9.6-18s-14.2-6.6-25-6.6c-4.5 0-8.8.5-12.8 1.6-4 1-7.6 2.6-10.6 4.7s-5.4 4.6-7.1 7.7c-1.8 3.1-2.6 6.7-2.6 10.7 0 4.5.8 8.2 2.4 11 1.6 2.9 3.7 5.1 6.4 6.8 2.6 1.7 5.6 3 8.9 3.8 3.3.9 6.6 1.6 9.9 2.2 2.5.5 4.9.9 7.3 1.3 2.3.4 4.4.9 6.2 1.5 1.8.7 3.2 1.5 4.3 2.5 1.1 1 1.7 2.4 1.7 4.1 0 2.5-1.1 4.4-3.2 5.7-2.2 1.3-5.1 1.9-8.8 1.9-4.1 0-7.4-.9-9.7-2.8-2.4-1.9-3.9-4.7-4.4-8.5h-23.1c.4 8.5 3.9 15.2 10.5 20 6.6 4.9 15.5 7.3 26.9 7.3 5 0 9.6-.6 14-1.7 4.3-1.1 8-2.7 11.1-4.8 3.1-2.1 5.5-4.7 7.3-8 1.7-3.2 2.6-6.9 2.6-11.1-.2-4.9-1.1-8.8-2.9-11.9z"/></svg>