<svg xmlns="http://www.w3.org/2000/svg" viewBox="0 0 960 165"><path fill="#333" d="M68.8 64.5H25.4V23.4H1.9v107.1h23.5V84.3h43.3v46.2h23.5V23.4H68.8v41.1zm111.5 48.7V72.9c0-4.7-1-8.5-3.2-11.3-2.1-2.8-4.8-5.1-8.1-6.7-3.3-1.6-7-2.7-11-3.2s-8-.8-11.8-.8c-4.3 0-8.6.4-12.8 1.3-4.3.9-8.1 2.3-11.5 4.3-3.4 2-6.2 4.6-8.4 7.9-2.2 3.3-3.5 7.5-3.8 12.5H131c.4-4.2 1.8-7.2 4.2-9 2.4-1.8 5.7-2.7 9.9-2.7 1.9 0 3.7.1 5.3.4 1.7.3 3.1.8 4.4 1.5 1.2.8 2.2 1.8 3 3.1.8 1.4 1.1 3.2 1.1 5.5.1 2.2-.6 3.9-2 5-1.4 1.2-3.3 2-5.7 2.6-2.4.6-5.2 1-8.2 1.3-3.1.3-6.3.7-9.5 1.2s-6.4 1.2-9.5 2c-3.2.9-6 2.1-8.4 3.8-2.5 1.7-4.5 4-6 6.8-1.6 2.8-2.3 6.5-2.3 10.9 0 4 .7 7.5 2 10.4 1.3 2.9 3.2 5.3 5.6 7.2 2.4 1.9 5.2 3.3 8.4 4.2 3.2.9 6.6 1.3 10.3 1.3 4.8 0 9.5-.7 14.1-2.1 4.6-1.4 8.6-3.8 12-7.3.1 1.3.3 2.6.5 3.8.2 1.3.6 2.5 1 3.7H183c-1-1.6-1.7-4-2.1-7.2-.4-3.2-.6-6.6-.6-10.1zM159 100.5c0 1.2-.1 2.8-.4 4.8-.3 2-.9 4-2 5.9-1.1 1.9-2.8 3.6-5.1 5s-5.5 2.1-9.8 2.1c-1.7 0-3.4-.1-5-.4-1.6-.3-3-.8-4.2-1.6s-2.2-1.8-2.8-3.1c-.7-1.3-1-2.9-1-4.8 0-2 .3-3.6 1-5 .7-1.3 1.6-2.4 2.8-3.2 1.1-.8 2.5-1.5 4.1-2 1.5-.5 3.1-.9 4.7-1.2 1.7-.3 3.4-.5 5.1-.8 1.7-.2 3.3-.5 4.9-.7 1.5-.3 3-.7 4.4-1.1 1.3-.5 2.5-1.1 3.4-1.9v8zm149-43.4c-2.5-2.2-5.5-3.8-9-4.8s-7.3-1.5-11.4-1.5c-5.4 0-10.1 1.3-14 3.9-4 2.6-7.1 5.6-9.4 9-2.1-4.8-5.2-8.1-9.2-10-4-1.9-8.5-2.8-13.4-2.8-5.1 0-9.6 1.1-13.6 3.3-4 2.2-7.3 5.3-10.1 9.3h-.3V52.9h-20.1v77.6h21.3v-45c0-3.8.5-6.9 1.6-9.2 1.1-2.3 2.4-4.1 4-5.4 1.5-1.2 3.1-2.1 4.8-2.5 1.7-.5 3-.7 4-.7 3.4 0 6 .6 7.7 1.7 1.7 1.2 3 2.7 3.8 4.6.8 1.9 1.2 4 1.3 6.2.1 2.2.2 4.5.2 6.8v43.5h21.3V87.3c0-2.4.2-4.8.5-7.1s1-4.4 2.1-6.3c1-1.8 2.5-3.3 4.4-4.5 1.8-1.1 4.3-1.7 7.3-1.7s5.4.5 7.1 1.5c1.7 1 3.1 2.4 4 4 .9 1.7 1.4 3.7 1.6 6 .2 2.3.3 4.8.3 7.4v44h21.3v-52c0-5-.7-9.3-2.1-12.8-1.6-3.6-3.5-6.5-6-8.7zm92.6 3.5c-3.1-3.3-6.5-5.7-10.3-7.3-3.8-1.6-7.6-2.4-11.5-2.4-4.8 0-9.4.9-13.9 2.8s-8 4.8-10.6 8.8h-.3v-39h-21.3v107.1H353v-9.9h.3c2.3 4.3 5.7 7.4 10.2 9.2s9.6 2.7 15.3 2.7c3.9 0 7.7-.8 11.5-2.4 3.8-1.6 7.2-4.1 10.3-7.4 3-3.3 5.5-7.5 7.4-12.7 1.9-5.1 2.8-11.3 2.8-18.4 0-7.1-1-13.2-2.8-18.4-1.9-5.2-4.3-9.4-7.4-12.7zm-12.1 40.5c-.7 3-1.8 5.7-3.3 8-1.5 2.3-3.4 4.1-5.6 5.5-2.2 1.3-5 2-8.2 2-3.1 0-5.8-.7-8.1-2-2.3-1.4-4.2-3.2-5.7-5.5s-2.6-5-3.3-8c-.7-3-1-6.1-1-9.3 0-3.3.3-6.5 1-9.4.7-3 1.8-5.6 3.3-8 1.5-2.3 3.4-4.1 5.7-5.5 2.3-1.4 5-2 8.1-2 3.2 0 5.9.7 8.2 2 2.2 1.4 4.1 3.2 5.6 5.5s2.6 5 3.3 8c.7 3 1 6.1 1 9.4.1 3.2-.3 6.3-1 9.3zm87.3-7.5c0 7.9-1.3 13.6-3.9 17-2.6 3.5-6.8 5.2-12.6 5.2-5.1 0-8.7-1.6-10.6-4.7-2-3.1-3-7.9-3-14.3V52.9h-21.3v47.7c0 4.8.4 9.2 1.3 13.1.8 4 2.3 7.3 4.4 10 2.1 2.8 5 4.9 8.6 6.4 3.6 1.5 8.3 2.2 14 2.2 4.5 0 8.9-1 13.2-3 4.3-2 7.8-5.3 10.5-9.8h.5v10.8h20.2V52.9h-21.3v40.7zm75-41.6c-2.5.8-4.9 1.9-7 3.4-2.2 1.5-4.2 3.2-5.8 5.2-1.7 2.1-3.1 4.3-4 6.7h-.3V52.9h-20.2v77.6h21.3v-35c0-3.5.3-6.8 1-9.8.7-3 1.9-5.6 3.5-7.9 1.7-2.2 3.8-4 6.5-5.3 2.7-1.3 6-2 9.9-2 1.3 0 2.6.1 4 .2 1.4.2 2.6.3 3.6.5V51.6c-1.7-.5-3.3-.8-4.6-.8-2.8 0-5.4.4-7.9 1.2zm71 11.3h-.3c-2.6-4.5-5.8-7.7-9.7-9.6-3.9-1.9-8.3-2.8-13.4-2.8-5.4 0-10.2 1-14.3 3.1-4.2 2.1-7.6 4.9-10.4 8.5-2.8 3.6-4.9 7.6-6.4 12.3-1.5 4.7-2.2 9.5-2.2 14.5 0 5.3.6 10.3 1.9 15.1 1.2 4.8 3.2 8.9 5.9 12.4 2.7 3.6 6.2 6.4 10.4 8.4 4.2 2.1 9.2 3.1 15 3.1 4.7 0 9.2-1 13.4-2.9 4.2-2 7.5-5 9.8-9.1h.3v10.2c.1 5.5-1.2 10-4 13.6-2.8 3.6-7.1 5.4-13.1 5.4-3.8 0-7.2-.8-10.1-2.3-2.9-1.6-4.9-4.3-5.8-8.3h-21.2c.3 4.4 1.5 8.2 3.7 11.3 2.1 3.1 4.8 5.7 8.1 7.7 3.2 2 6.8 3.5 10.8 4.4 3.9.9 7.8 1.4 11.6 1.4 8.9 0 16-1.2 21.3-3.6 5.3-2.4 9.3-5.3 12.2-8.8 2.8-3.4 4.6-7.2 5.5-11.2.8-4 1.3-7.5 1.3-10.7V52.9h-20.2v10.4zm-1.1 35.5c-.8 2.5-1.9 4.8-3.4 6.8s-3.4 3.6-5.7 4.8c-2.3 1.2-5 1.8-8 1.8-3.3 0-6.1-.7-8.2-2.1-2.2-1.4-4-3.2-5.3-5.4-1.4-2.2-2.3-4.7-2.9-7.4-.6-2.7-.8-5.5-.8-8.3 0-2.9.3-5.7 1-8.3.6-2.6 1.7-5 3.1-7 1.4-2 3.2-3.7 5.4-4.9 2.1-1.2 4.7-1.8 7.7-1.8 3.5 0 6.4.7 8.7 1.9 2.3 1.3 4.1 3.1 5.5 5.3 1.4 2.2 2.4 4.7 3 7.6.6 2.8.9 5.9.9 9.1.1 2.6-.3 5.3-1 7.9zm103.6-33.9c-3.2-4.3-7.2-7.7-12.1-10.3-4.9-2.6-10.7-3.8-17.2-3.8-5.9 0-11.3 1-16.1 3.1-4.9 2.1-9 5-12.5 8.6-3.5 3.7-6.2 8-8.1 13-1.9 5-2.8 10.4-2.8 16.2 0 6 .9 11.5 2.8 16.5 1.8 5 4.5 9.3 7.9 12.9 3.4 3.6 7.5 6.4 12.5 8.3 4.9 1.9 10.4 2.9 16.5 2.9 8.8 0 16.3-2 22.5-6 6.2-4 10.8-10.7 13.8-20h-18.8c-.7 2.4-2.6 4.7-5.7 6.8-3.1 2.2-6.8 3.2-11.1 3.2-6 0-10.6-1.5-13.8-4.7-3.2-3.1-5-8.1-5.2-15h55.9c.4-6-.1-11.7-1.5-17.2-1.6-5.3-3.8-10.2-7-14.5zm-47.6 18.5c.1-1.5.4-3.2 1-5.1.5-1.9 1.5-3.7 2.8-5.4 1.4-1.7 3.2-3.1 5.4-4.3 2.2-1.1 5.1-1.7 8.5-1.7 5.2 0 9.1 1.4 11.6 4.2 2.6 2.8 4.3 6.9 5.3 12.3h-34.6zm106-31.4c-2.5.8-4.9 1.9-7.1 3.4-2.2 1.5-4.2 3.2-5.8 5.2-1.7 2.1-3.1 4.3-4 6.7h-.3V52.9h-20.2v77.6h21.3v-35c0-3.5.3-6.8 1-9.8.7-3 1.9-5.6 3.5-7.9 1.6-2.2 3.8-4 6.5-5.3 2.7-1.3 6-2 9.9-2 1.3 0 2.6.1 4 .2 1.4.2 2.6.3 3.6.5V51.6c-1.7-.5-3.3-.8-4.6-.8-2.7 0-5.3.4-7.8 1.2zm86.9 44.5c-1.4-2.4-3.3-4.5-5.5-6.2-2.3-1.7-4.9-3-7.9-4s-6-1.8-9.1-2.5c-3-.7-6-1.4-8.8-2-2.9-.6-5.5-1.3-7.7-2s-4.1-1.7-5.5-2.9c-1.4-1.2-2.1-2.7-2.1-4.7 0-1.6.4-2.9 1.2-3.8.8-.9 1.8-1.7 2.9-2.2 1.1-.5 2.4-.8 3.8-1 1.4-.1 2.7-.2 3.9-.2 3.8 0 7.1.7 9.9 2.2 2.8 1.5 4.4 4.2 4.7 8.3h20.2c-.4-4.8-1.6-8.8-3.7-11.9-2.1-3.1-4.6-5.7-7.7-7.6-3.1-1.9-6.6-3.2-10.6-4.1-4-.8-8-1.2-12.2-1.2s-8.3.4-12.3 1.1c-4 .7-7.6 2.1-10.8 3.9-3.2 1.9-5.8 4.4-7.7 7.6-1.9 3.2-2.9 7.3-2.9 12.3 0 3.4.7 6.3 2.1 8.6 1.4 2.4 3.2 4.3 5.5 5.9 2.3 1.6 4.9 2.8 7.9 3.8 2.9 1 6 1.8 9.1 2.5 7.6 1.6 13.5 3.2 17.8 4.8 4.2 1.6 6.4 4 6.4 7.2 0 1.9-.5 3.5-1.3 4.7-.9 1.3-2 2.2-3.4 3-1.4.8-2.9 1.3-4.5 1.6-1.7.4-3.2.5-4.7.5-2.1 0-4.1-.2-6.1-.7-2-.5-3.7-1.3-5.2-2.3-1.5-1.1-2.7-2.4-3.7-4.1-1-1.7-1.4-3.6-1.4-5.9H800c.2 5.2 1.4 9.5 3.5 13s4.9 6.2 8.2 8.3c3.3 2.1 7.2 3.6 11.5 4.5 4.3.9 8.7 1.3 13.2 1.3 4.4 0 8.7-.4 13-1.3 4.2-.8 8-2.3 11.3-4.4 3.3-2.1 6-4.9 8-8.3 2-3.5 3.1-7.7 3.1-12.8-.1-3.5-.8-6.5-2.2-9z"/></svg>