<svg xmlns="http://www.w3.org/2000/svg" width="344" height="19" viewBox="-133.94 393.271 344 19"><path d="M201.85 398.859c.502 0 .903.401.903.903v6.019a.9.9 0 0 1-.903.902h-17.954a.898.898 0 0 1-.902-.902v-6.019c0-.502.4-.903.902-.903h17.954m0-.5h-17.954c-.803 0-1.403.601-1.403 1.403v6.019c0 .803.601 1.403 1.403 1.403h17.954c.803 0 1.405-.601 1.405-1.403v-6.019c0-.803-.704-1.403-1.405-1.403z"/><path d="M184.398 399.26h17.051a.9.9 0 0 1 .903.902v5.016a.9.9 0 0 1-.903.903h-17.051a.899.899 0 0 1-.902-.903v-5.016c0-.5.4-.902.902-.902zM203.656 401.167c.902 0 1.404.702 1.404 1.604 0 .903-.502 1.604-1.404 1.604v-3.208zM12.684 401.167h2.006v5.717h1.404v-8.124h-1.103c0 .2-.101.501-.301.602-.101.2-.301.301-.602.401-.201.1-.501.201-.702.201-.301 0-.501.1-.802.1v1.104h.1zM24.218 405.679h-3.911c0-.2.1-.301.301-.501l.501-.502c.201-.199.401-.301.602-.4.2-.1.501-.301.702-.502.201-.2.502-.301.702-.501l.602-.602c.2-.201.301-.502.401-.703.1-.301.1-.602.1-.902s0-.603-.1-.802c-.101-.301-.201-.603-.401-.803-.201-.201-.501-.502-.802-.603a3.76 3.76 0 0 0-1.204-.199c-.501 0-.802.1-1.204.199-.301.101-.602.401-.902.603a8.846 8.846 0 0 0-.602 1.003c-.101.401-.2.803-.2 1.203h1.303c0-.301 0-.602.101-.802 0-.201.101-.502.201-.602a.786.786 0 0 1 .401-.402c.2-.1.401-.1.602-.1.301 0 .501 0 .703.1.2.102.3.201.401.402.1.1.2.301.2.501v.502c0 .301-.1.602-.2.803-.101.199-.401.5-.602.701-.2.201-.501.401-.802.603-.301.2-.602.4-.802.602-.602.4-1.003.803-1.304 1.304-.301.502-.501 1.104-.501 1.705h5.517l.197-1.305zM25.723 405.88h1.605v-1.604h-1.605v1.604zm0-4.213h1.605v-1.604h-1.605v1.604zM30.236 398.959c-.401.301-.602.602-.903 1.004-.2.4-.301.902-.401 1.304-.101.501-.101 1.002-.101 1.404 0 .501 0 .902.101 1.403.101.502.201.903.401 1.304.201.402.501.703.903 1.004.401.301.802.4 1.404.4.602 0 1.103-.1 1.404-.4.401-.301.602-.602.903-1.004.201-.4.301-.901.401-1.304.1-.501.1-1.003.1-1.403 0-.502 0-.903-.1-1.404-.101-.502-.201-.903-.401-1.304-.201-.402-.501-.703-.903-1.004-.401-.3-.802-.401-1.404-.401-.601 0-1.103.201-1.404.401zm.702 6.72c-.2-.2-.301-.4-.501-.601-.1-.301-.2-.602-.2-1.004v-1.203-1.204c0-.4.1-.702.2-1.003.101-.301.301-.502.501-.701.201-.201.401-.201.703-.201.301 0 .501.1.702.201.2.199.3.4.501.701.1.301.2.603.2 1.003v2.407c0 .402-.101.703-.2 1.004-.101.3-.301.501-.501.601-.201.201-.401.201-.702.201-.302 0-.602-.099-.703-.201zM36.354 398.959c-.401.301-.602.602-.802 1.004-.201.4-.301.902-.401 1.304-.101.501-.101 1.002-.101 1.404 0 .501 0 .902.101 1.403.101.502.201.903.401 1.304.201.402.501.703.802 1.004.401.301.802.4 1.404.4.602 0 1.103-.1 1.404-.4.401-.301.602-.602.903-1.004.201-.4.301-.901.401-1.304.1-.501.1-1.003.1-1.403 0-.502 0-.903-.1-1.404-.101-.502-.2-.903-.401-1.304-.2-.402-.501-.703-.903-1.004-.401-.3-.802-.401-1.404-.401-.601 0-1.103.201-1.404.401zm.702 6.72c-.2-.2-.301-.4-.501-.601-.101-.301-.201-.602-.201-1.004v-1.203-1.204c0-.4.1-.702.201-1.003.1-.301.301-.502.501-.701.201-.201.401-.201.703-.201.301 0 .501.1.702.201.201.199.301.4.501.701.101.301.2.603.2 1.003v2.407c0 .402-.1.703-.2 1.004-.101.3-.301.501-.501.601-.201.201-.401.201-.702.201-.301 0-.502-.099-.703-.201zM44.378 406.783h1.504l.803-2.206h3.31l.802 2.206h1.605l-3.209-8.225h-1.504l-3.311 8.225zm3.912-6.72l1.304 3.511h-2.508l1.204-3.511zM52.804 406.783h1.404v-6.318l2.307 6.318h1.204l2.206-6.318v6.318h1.405v-8.225h-2.006l-2.207 6.42-2.207-6.42h-2.006l-.1 8.225zM-126.433 400.264a2.483 2.483 0 0 1 2.508 2.507c0 1.405-1.104 2.508-2.508 2.508s-2.507-1.103-2.507-2.508a2.483 2.483 0 0 1 2.507-2.507zM-119.914 400.264a2.483 2.483 0 0 1 2.508 2.507 2.484 2.484 0 0 1-2.508 2.508 2.483 2.483 0 0 1-2.507-2.508c0-1.404 1.003-2.507 2.507-2.507zM-113.495 400.264a2.483 2.483 0 0 1 2.508 2.507 2.484 2.484 0 0 1-2.508 2.508 2.483 2.483 0 0 1-2.507-2.508 2.483 2.483 0 0 1 2.507-2.507zM-107.075 400.264a2.483 2.483 0 0 1 2.508 2.507 2.484 2.484 0 0 1-2.508 2.508 2.483 2.483 0 0 1-2.507-2.508 2.482 2.482 0 0 1 2.507-2.507zM-100.656 400.264a2.483 2.483 0 0 1 2.508 2.507 2.483 2.483 0 0 1-2.508 2.508 2.483 2.483 0 0 1-2.507-2.508 2.482 2.482 0 0 1 2.507-2.507z"/></svg>