<svg id="Layer_1" xmlns="http://www.w3.org/2000/svg" viewBox="448 -10 412 412"><style>.st0{fill:none;stroke:#000;stroke-miterlimit:10}</style><g id="big"><path class="st0" d="M654-10v28.7M627.1-8.2l3.8 28.5M600.7-3l7.4 27.8M575.1 5.7l11.1 26.6M551 17.6l14.4 24.9M528.6 32.6l17.5 22.8M508.3 50.3l20.4 20.4M490.6 70.6l22.8 17.5M475.6 93l24.9 14.4M463.7 117.1l26.6 11.1M455 142.7l27.8 7.4M449.8 169.1l28.5 3.8M448 196h28.7M449.8 222.9l28.5-3.8M455 249.3l27.8-7.4M463.7 274.9l26.6-11.1M475.6 299l24.9-14.4M490.6 321.4l22.8-17.5M508.3 341.7l20.4-20.4M528.6 359.4l17.5-22.8M551 374.4l14.4-24.9M575.1 386.3l11.1-26.6M600.7 395l7.4-27.8M627.1 400.2l3.8-28.5M654 402v-28.7M680.9 400.2l-3.8-28.5M707.3 395l-7.4-27.8M732.9 386.3l-11.1-26.6M757 374.4l-14.4-24.9M779.4 359.4l-17.5-22.8M799.7 341.7l-20.4-20.4M817.4 321.4l-22.8-17.5M832.4 299l-24.9-14.4M844.3 274.9l-26.6-11.1M853 249.3l-27.8-7.4M858.2 222.9l-28.5-3.8M860 196h-28.7M858.2 169.1l-28.5 3.8M853 142.7l-27.8 7.4M844.3 117.1l-26.6 11.1M832.4 93l-24.9 14.4M817.4 70.6l-22.8 17.5M799.7 50.3l-20.4 20.4M779.4 32.6l-17.5 22.8M757 17.6l-14.4 24.9M732.9 5.7l-11.1 26.6M707.3-3l-7.4 27.8M680.9-8.2l-3.8 28.5"/></g><g id="small"><path class="st0" d="M649.5-10l.4 19.2M645-9.8l.9 19.2M640.5-9.6l1.3 19.1M636.1-9.2l1.6 19.1M631.6-8.8l2 19.1M622.7-7.6l2.9 18.9M618.2-6.9l3.4 18.9M613.8-6l3.8 18.8M609.4-5.1l4.2 18.7M605-4.1l4.6 18.6M596.4-1.8l5.3 18.4M592.1-.5l5.7 18.3M587.8.9l6.1 18.2M583.5 2.4l6.6 18M579.4 4l6.8 17.9M571 7.4l7.7 17.6M566.9 9.3l8.1 17.4M562.9 11.2l8.5 17.2M558.9 13.3l8.8 17M554.9 15.4l9.2 16.8M547.1 19.9l10 16.4M543.4 22.2l10.3 16.2M539.6 24.7l10.6 15.9M535.8 27.3l11 15.6M532.2 29.9l11.3 15.4M525.1 35.3l11.9 15M521.6 38.2l12.3 14.7M518.2 41.1l12.6 14.5M514.8 44.2l12.9 14.1M511.5 47.2L524.8 61M505.2 53.5L519 66.8M502.2 56.8l14.1 12.9M499.1 60.2l14.5 12.6M496.2 63.6l14.7 12.3M493.3 67.1l15 11.9M487.9 74.2l15.4 11.3M485.3 77.8l15.6 11M482.7 81.6l15.9 10.6M480.2 85.4l16.2 10.3M477.9 89.1l16.4 10M473.4 96.9l16.8 9.2M471.3 100.9l17 8.8M469.2 104.9l17.2 8.5M467.3 108.9l17.4 8.1M465.4 113l17.6 7.7M462 121.4l17.9 6.8M460.4 125.5l18 6.6M458.9 129.8l18.2 6.1M457.5 134.1l18.3 5.7M456.2 138.4l18.4 5.3M453.9 147l18.6 4.6M452.9 151.4l18.7 4.2M452 155.8l18.8 3.8M451.1 160.2l18.9 3.4M450.4 164.7l18.9 2.9M449.2 173.6l19.1 2M448.8 178.1l19.1 1.6M448.4 182.5l19.1 1.3M448.2 187l19.2.9M448 191.5l19.2.4M448 200.5l19.2-.4M448.2 205l19.2-.9M448.4 209.5l19.1-1.3M448.8 213.9l19.1-1.6M449.2 218.4l19.1-2M450.4 227.3l18.9-2.9M451.1 231.8l18.9-3.4M452 236.2l18.8-3.8M452.9 240.6l18.7-4.2M453.9 245l18.6-4.6M456.2 253.6l18.4-5.3M457.5 257.9l18.3-5.7M458.9 262.2l18.2-6.1M460.4 266.5l18-6.6M462 270.6l17.9-6.8M465.4 279l17.6-7.7M467.3 283.1l17.4-8.1M469.2 287.1l17.2-8.5M471.3 291.1l17-8.8M473.4 295.1l16.8-9.2M477.9 302.9l16.4-10M480.2 306.6l16.2-10.3M482.7 310.4l15.9-10.6M485.3 314.2l15.6-11M487.9 317.8l15.4-11.3M493.3 324.9l15-11.9M496.2 328.4l14.7-12.3M499.1 331.8l14.5-12.6M502.2 335.2l14.1-12.9M505.2 338.5l13.8-13.3M511.5 344.8l13.3-13.8M514.8 347.8l12.9-14.1M518.2 350.9l12.6-14.5M521.6 353.8l12.3-14.7M525.1 356.7l11.9-15M532.2 362.1l11.3-15.4M535.8 364.7l11-15.6M539.6 367.3l10.6-15.9M543.4 369.8l10.3-16.2M547.1 372.1l10-16.4M554.9 376.6l9.2-16.8M558.9 378.7l8.8-17M562.9 380.8l8.5-17.2M566.9 382.7l8.1-17.4M571 384.6l7.7-17.6M579.4 388l6.8-17.9M583.5 389.6l6.6-18M587.8 391.1l6.1-18.2M592.1 392.5l5.7-18.3M596.4 393.8l5.3-18.4M605 396.1l4.6-18.6M609.4 397.1l4.2-18.7M613.8 398l3.8-18.8M618.2 398.9l3.4-18.9M622.7 399.6l2.9-18.9M631.6 400.8l2-19.1M636.1 401.2l1.6-19.1M640.5 401.6l1.3-19.1M645 401.8l.9-19.2M649.5 402l.4-19.2M658.5 402l-.4-19.2M663 401.8l-.9-19.2M667.5 401.6l-1.3-19.1M671.9 401.2l-1.6-19.1M676.4 400.8l-2-19.1M685.3 399.6l-2.9-18.9M689.8 398.9l-3.4-18.9M694.2 398l-3.8-18.8M698.6 397.1l-4.2-18.7M703 396.1l-4.6-18.6M711.6 393.8l-5.3-18.4M715.9 392.5l-5.7-18.3M720.2 391.1l-6.1-18.2M724.5 389.6l-6.6-18M728.6 388l-6.8-17.9M737 384.6l-7.7-17.6M741.1 382.7l-8.1-17.4M745.1 380.8l-8.5-17.2M749.1 378.7l-8.8-17M753.1 376.6l-9.2-16.8M760.9 372.1l-10-16.4M764.6 369.8l-10.3-16.2M768.4 367.3l-10.6-15.9M772.2 364.7l-11-15.6M775.8 362.1l-11.3-15.4M782.9 356.7l-11.9-15M786.4 353.8l-12.3-14.7M789.8 350.9l-12.6-14.5M793.2 347.8l-12.9-14.1M796.5 344.8L783.2 331M802.8 338.5L789 325.2M805.8 335.2l-14.1-12.9M808.9 331.8l-14.5-12.6M811.8 328.4l-14.7-12.3M814.7 324.9l-15-11.9M820.1 317.8l-15.4-11.3M822.7 314.2l-15.6-11M825.3 310.4l-15.9-10.6M827.8 306.6l-16.2-10.3M830.1 302.9l-16.4-10M834.6 295.1l-16.8-9.2M836.7 291.1l-17-8.8M838.8 287.1l-17.2-8.5M840.7 283.1l-17.4-8.1M842.6 279l-17.6-7.7M846 270.6l-17.9-6.8M847.6 266.5l-18-6.6M849.1 262.2l-18.2-6.1M850.5 257.9l-18.3-5.7M851.8 253.6l-18.4-5.3M854.1 245l-18.6-4.6M855.1 240.6l-18.7-4.2M856 236.2l-18.8-3.8M856.9 231.8l-18.9-3.4M857.6 227.3l-18.9-2.9M858.8 218.4l-19.1-2M859.2 213.9l-19.1-1.6M859.6 209.5l-19.1-1.3M859.8 205l-19.2-.9M860 200.5l-19.2-.4M860 191.5l-19.2.4M859.8 187l-19.2.9M859.6 182.5l-19.1 1.3M859.2 178.1l-19.1 1.6M858.8 173.6l-19.1 2M857.6 164.7l-18.9 2.9M856.9 160.2l-18.9 3.4M856 155.8l-18.8 3.8M855.1 151.4l-18.7 4.2M854.1 147l-18.6 4.6M851.8 138.4l-18.4 5.3M850.5 134.1l-18.3 5.7M849.1 129.8l-18.2 6.1M847.6 125.5l-18 6.6M846 121.4l-17.9 6.8M842.6 113l-17.6 7.7M840.7 108.9l-17.4 8.1M838.8 104.9l-17.2 8.5M836.7 100.9l-17 8.8M834.6 96.9l-16.8 9.2M830.1 89.1l-16.4 10M827.8 85.4l-16.2 10.3M825.3 81.6l-15.9 10.6M822.7 77.8l-15.6 11M820.1 74.2l-15.4 11.3M814.7 67.1l-15 11.9M811.8 63.6l-14.7 12.3M808.9 60.2l-14.5 12.6M805.8 56.8l-14.1 12.9M802.8 53.5L789 66.8M796.5 47.2L783.2 61M793.2 44.2l-12.9 14.1M789.8 41.1l-12.6 14.5M786.4 38.2l-12.3 14.7M782.9 35.3l-11.9 15M775.8 29.9l-11.3 15.4M772.2 27.3l-11 15.6M768.4 24.7l-10.6 15.9M764.6 22.2l-10.3 16.2M760.9 19.9l-10 16.4M753.1 15.4l-9.2 16.8M749.1 13.3l-8.8 17M745.1 11.2l-8.5 17.2M741.1 9.3L733 26.7M737 7.4L729.3 25M728.6 4l-6.8 17.9M724.5 2.4l-6.6 18M720.2.9l-6.1 18.2M715.9-.5l-5.7 18.3M711.6-1.8l-5.3 18.4M703-4.1l-4.6 18.6M698.6-5.1l-4.2 18.7M694.2-6l-3.8 18.8M689.8-6.9L686.4 12M685.3-7.6l-2.9 18.9M676.4-8.8l-2 19.1M671.9-9.2l-1.6 19.1M667.5-9.6l-1.3 19.1M663-9.8l-.9 19.2M658.5-10l-.4 19.2"/></g></svg>