<svg xmlns="http://www.w3.org/2000/svg" width="283.46" height="36.228" viewBox="0 123.582 283.46 36.228"><path fill="#FFF" d="M23.299 124.584c-.553.968-.898 1.037-2.903 1.037H5.289c-1.729 0-2.938.035-3.18-1.141-.104-.104-.588-.069-.691 0-.277 1.486-.83 3.872-1.417 5.565.138.311.657.484.968.276.415-.968.795-1.763 1.694-2.592.934-.864 2.973-.934 4.598-.934h2.04c1.106 0 1.106.035 1.106 1.21v16.662c0 3.906-.173 4.493-2.316 4.667l-1.348.104c-.311.173-.208.83 0 .934 2.385-.07 3.699-.104 5.186-.104 1.486 0 2.765.033 4.874.104.208-.104.311-.795.069-.934l-1.209-.104c-2.178-.174-2.247-.761-2.247-4.667v-16.593c0-1.245-.035-1.279 1.071-1.279h2.662c2.04 0 3.457.311 4.321.934.553.415.83 1.797.934 2.731.173.207.83.207.968-.069-.104-1.106.138-4.148.553-5.669-.038-.173-.453-.207-.626-.138zm17.803 24.751c-1.348-.139-1.417-.554-1.417-3.25v-6.222c0-2.627-1.279-4.805-4.805-4.805-1.901 0-3.699.899-5.047 1.936-.104-.069-.138-.38-.138-.726v-7.847c0-1.625.069-3.492.104-4.632-.069-.138-.208-.208-.38-.208-1.348.726-3.077 1.279-4.01 1.556-.173.104-.173.622 0 .761l.38.207c1.106.657 1.141.899 1.141 3.111v16.869c0 2.696-.035 3.111-1.417 3.25l-.933.104c-.277.173-.173.83.069.934a60.59 60.59 0 0 1 3.665-.104c1.313 0 2.385.033 3.491.104.277-.104.346-.795.069-.934l-.761-.104c-1.348-.174-1.417-.554-1.417-3.25v-6.292c0-1.313.104-1.486.795-2.04.657-.553 1.625-1.002 2.904-1.002 2.385 0 3.526 1.59 3.526 3.976v5.324c0 2.696-.035 3.007-1.417 3.249l-.76.104c-.277.174-.173.83.069.934a50.628 50.628 0 0 1 3.457-.104c1.313 0 2.385.035 3.733.104.276-.104.346-.76.069-.934l-.97-.069zm14.415-2.489c-1.141 1.452-2.212 1.832-3.422 1.832-3.975 0-6.188-3.215-6.188-6.983 0-.933.035-1.002 1.002-1.002h6.879c1.556 0 2.074-.035 2.212-.276.069-.138.138-.45.138-.968 0-2.247-2.074-4.425-5.289-4.425-4.459 0-7.501 3.837-7.501 8.435 0 1.625.449 3.388 1.556 4.84 1.071 1.417 2.973 2.454 5.393 2.454 1.936 0 4.632-.934 5.842-3.457 0-.312-.242-.554-.622-.45zm-5.082-10.681c2.178 0 2.869 1.313 2.869 2.351 0 .484-.104.622-.208.726-.311.208-1.106.38-3.872.38h-2.662c-.276 0-.276-.104-.276-.172.07-1.281 1.971-3.285 4.149-3.285zm40.618 8.192c-.864 2.213-2.973 5.324-7.778 5.324-6.119 0-11.062-4.321-11.062-12.168 0-7.709 4.839-11.338 10.543-11.338 5.393 0 7.086 2.904 7.64 5.462.277.207.83.173 1.002-.069-.311-2.281-.484-4.632-.519-5.496-.346.034-.587-.035-1.037-.139-1.763-.484-4.597-.898-6.603-.898-3.872 0-7.328 1.037-10.059 3.18-2.834 2.212-4.701 5.738-4.701 9.886 0 4.806 2.316 8.192 5.289 10.267 2.731 1.832 5.911 2.489 9.265 2.489 2.385 0 5.082-.554 5.876-.864.415-.139.864-.311 1.313-.381.553-.725 1.521-3.18 1.798-5.115-.138-.244-.69-.313-.967-.14zm10.889-9.333c-4.39 0-7.951 3.353-7.951 8.054 0 4.667 3.353 7.675 7.64 7.675 4.667 0 7.881-3.354 7.881-8.021 0-4.563-3.387-7.708-7.57-7.708zm.069 14.622c-3.284 0-4.805-3.664-4.805-7.052 0-4.114 1.832-6.464 4.287-6.464 3.526 0 4.805 4.044 4.805 7.19-.001 2.904-1.003 6.326-4.287 6.326zm15.314-8.158c-1.313-.76-2.869-1.555-2.869-3.111 0-1.348.934-2.282 2.385-2.282 1.521 0 2.662 1.072 3.284 2.731.173.208.76.138.898-.104 0-1.002-.276-2.212-.587-3.007-.346-.312-1.729-.657-3.284-.657-2.834 0-5.082 1.521-5.082 4.252 0 2.04 1.521 3.354 3.699 4.598 1.383.795 2.869 1.729 2.869 3.422 0 1.591-1.141 2.386-2.489 2.386-2.109 0-3.318-1.798-3.941-3.837-.173-.207-.657-.173-.864.034-.069 1.245.139 3.042.45 3.769.933.76 2.247 1.105 3.975 1.105 2.766 0 5.358-1.417 5.358-4.252 0-2.662-1.797-3.941-3.802-5.047zm11.407-4.356h4.217c.346-.208.415-1.244-.035-1.556h-4.148c-.623 0-.657-.034-.657-.726v-1.694c-.138-.277-.587-.277-.795-.173-.38.76-1.072 1.763-1.556 2.212-.38.346-1.313.83-2.385 1.141-.138.208-.104.622.104.795h1.037c.76 0 .795.069.795 1.072v8.538c0 2.248.657 4.045 3.872 4.045 1.901 0 3.25-.934 3.906-1.729.069-.207-.069-.622-.38-.622-.104 0-.587.415-.933.519a3.04 3.04 0 0 1-1.002.173c-2.455 0-2.731-1.97-2.731-4.147v-6.949c.035-.795.069-.899.691-.899zm23.299-2.108c-4.39 0-7.95 3.353-7.95 8.054 0 4.667 3.353 7.675 7.64 7.675 4.666 0 7.881-3.354 7.881-8.021-.001-4.563-3.388-7.708-7.571-7.708zm.104 14.622c-3.284 0-4.806-3.664-4.806-7.052 0-4.114 1.832-6.464 4.287-6.464 3.525 0 4.805 4.044 4.805 7.19 0 2.904-1.037 6.326-4.286 6.326zm19.359-26.064c-3.699 0-5.773 2.627-6.707 4.736-.898 2.074-1.141 4.39-1.141 6.568 0 .38-.276.588-.553.761l-1.59.795a.58.58 0 0 0 .104.726h1.313c.761 0 .761.069.761 1.072v7.882c0 2.695-.035 3.041-1.418 3.249l-.863.104c-.277.173-.174.829.068.934a56.637 56.637 0 0 1 3.596-.104c1.312 0 2.385.035 4.078.104.277-.104.346-.761.07-.934l-1.349-.104c-1.349-.104-1.417-.554-1.417-3.249v-7.917c0-1.002 0-1.072.621-1.072h3.977c.414-.138.656-1.21.275-1.556h-4.252c-.621 0-.621-.034-.621-1.037v-1.071c0-1.867.138-4.598.829-6.292.554-1.348 1.486-2.04 2.661-2.04 1.245 0 2.282.83 2.974 1.625.276.312.483.45.899.45.69 0 1.416-.588 1.416-1.348-.067-1.384-1.761-2.282-3.731-2.282zm23.817 25.062c-.104 0-.312.138-.484.276a2.188 2.188 0 0 1-.933.207c-1.452 0-1.798-1.521-1.729-3.249l.207-6.499c.104-2.8-1.21-4.355-3.871-4.355-2.731 0-6.949 2.662-6.949 4.597 0 .346.174.519.52.519.553 0 1.555-.276 2.107-.726.312-.208.346-.657.381-1.279.069-1.141 1.348-1.694 2.385-1.694 2.316 0 2.766 1.867 2.731 3.25l-.034 1.729c0 .553-.07.899-.623 1.072l-4.424 1.59c-2.386.864-3.077 1.729-3.077 3.181 0 1.037.449 1.971 1.141 2.627.622.553 1.521.864 2.593.864 1.037 0 1.867-.483 2.696-.934.761-.415 1.21-.761 1.452-.761.207 0 .449.312.588.52.621.829 1.521 1.141 2.42 1.141 1.832 0 3.145-1.452 3.145-1.625.034-.209-.069-.451-.242-.451zm-5.808-2.248c-.035.796-.035 1.314-.484 1.764-.38.381-1.521.934-2.281.934-1.901 0-2.351-1.59-2.351-2.247 0-1.452 1.071-2.005 3.284-2.766.656-.208 1.313-.38 1.521-.38.207 0 .38.068.38.483l-.069 2.212zm24.233 2.939c-1.348-.174-1.418-.554-1.418-3.25v-6.43c0-2.489-1.278-4.632-4.355-4.632-1.9 0-3.664.933-5.219 1.901-.277 0-.416-.173-.416-.415 0-.346 0-.899.07-1.763a.489.489 0 0 0-.416-.276c-.76.553-2.869 1.521-3.732 1.832-.174.104-.174.519-.035.657l.346.208c1.003.657 1.003.864 1.003 2.316v6.534c0 2.695-.034 3.041-1.417 3.249l-.795.104c-.277.173-.174.829.068.933a53.207 53.207 0 0 1 3.492-.104c1.312 0 2.385.035 3.387.104.277-.104.346-.76.069-.933l-.657-.104c-1.348-.208-1.417-.554-1.417-3.249v-5.635c0-1.072.069-1.59.554-2.247.518-.726 1.763-1.313 3.18-1.313 2.523 0 3.492 1.556 3.492 3.699v5.565c0 2.696-.035 3.008-1.418 3.25l-.691.104c-.276.173-.173.83.069.934a49.338 49.338 0 0 1 3.456-.104c1.314 0 2.386.033 3.492.104.276-.104.346-.761.068-.934l-.76-.105zm33.842 0c-1.59-.174-2.074-.761-3.18-3.941l-5.116-15.002c-.554-1.625-1.141-3.353-1.625-5.012-.069-.277-.345-.346-.553-.346-.415.484-1.037 1.141-1.937 1.417.104.588-.104 1.313-.621 2.662l-3.803 10.059c-1.556 4.183-2.593 6.603-3.284 8.332-.519 1.348-1.349 1.763-2.247 1.832l-1.244.104c-.207.173-.139.795.068.934 1.003-.035 2.352-.104 3.596-.104 1.763.033 2.904.033 3.871.104.346-.139.346-.761.07-.934l-1.245-.104c-.899-.069-1.071-.312-1.071-.761 0-.415.276-1.417.829-3.111l1.313-3.906c.277-.795.484-.899 1.418-.899h5.635c1.105 0 1.278.104 1.521.934l1.624 5.082c.312.898.484 1.556.484 1.971 0 .38-.518.588-1.313.656l-1.071.104c-.277.174-.207.795.068.934 1.072-.035 2.49-.104 4.287-.104 1.693 0 2.973.035 4.494.104.172-.139.276-.76 0-.934l-.968-.071zm-9.645-10.163h-4.598c-1.037 0-1.071-.035-.795-.899l2.352-6.499c.414-1.106.795-2.005.898-2.212h.068c.208.449.554 1.452.865 2.351l2.004 6.084c.382 1.037.313 1.175-.794 1.175zm21.916-4.148c-2.385 0-4.735 1.521-5.219 1.763-.277 0-.346-.208-.346-.484 0-.484.068-1.037.139-1.729-.07-.173-.208-.276-.45-.276-.968.726-2.731 1.59-3.698 2.005-.174.104-.174.519-.035.657l.346.208c1.002.657 1.002.864 1.002 2.316v16.04c0 2.696-.033 3.042-1.416 3.249l-.796.104c-.276.172-.173.829.069.933 1.037-.069 2.178-.104 3.491-.104s2.386.034 4.183.104c.277-.104.346-.761.069-.933l-1.452-.174c-1.348-.172-1.417-.518-1.417-3.18v-3.838c0-.795.173-.967.519-1.037.346.07 1.383.139 2.039.139 5.289 0 9.092-3.732 9.092-8.918.069-3.769-2.351-6.845-6.12-6.845zm-1.658 14.518c-.795 0-1.936-.276-2.697-.83-.76-.588-1.105-1.037-1.105-2.246v-6.396c0-1.245.104-1.798.449-2.212.415-.45 1.556-1.037 3.18-1.037 3.354 0 5.047 3.007 5.047 6.015-.034 3.872-1.833 6.706-4.874 6.706zm14.139 1.073c.346.068 1.383.138 2.039.138 5.289 0 9.092-3.733 9.092-8.919 0-3.768-2.42-6.81-6.188-6.81-2.386 0-4.736 1.521-5.221 1.763-.276 0-.346-.208-.346-.484 0-.484.069-1.037.139-1.729-.069-.173-.207-.276-.449-.276-.969.726-2.731 1.59-3.699 2.005-.173.104-.173.519-.035.657l.346.208c1.003.657 1.003.864 1.003 2.316v16.04c0 2.696-.034 3.042-1.417 3.249l-.795.104c-.277.172-.173.829.068.933a52.519 52.519 0 0 1 3.492-.104c1.313 0 2.385.034 4.183.104.276-.104.346-.761.069-.933l-1.452-.174c-1.349-.172-1.417-.518-1.417-3.18v-3.838c.068-.795.242-.967.588-1.07zm-.52-10.544c0-1.245.104-1.798.449-2.212.416-.45 1.557-1.037 3.181-1.037 3.354 0 5.048 3.007 5.048 6.015 0 3.872-1.799 6.706-4.84 6.706-.795 0-1.936-.276-2.697-.83-.76-.588-1.105-1.037-1.105-2.246v-6.396h-.036z"/></svg>