<svg xmlns="http://www.w3.org/2000/svg" xmlns:xlink="http://www.w3.org/1999/xlink" width="138.188" height="140.249" viewBox="0 0 138.188 140.249"><defs><path id="a" d="M-71.378-42.781h280v280h-280z"/></defs><clipPath id="b"><use xlink:href="#a" overflow="visible"/></clipPath><path clip-path="url(#b)" fill="#FFF" d="M79.328 140.249L54.039 96.297H3.291L0 90.579l27.01-47.107L52.033 0h6.679l25.423 43.954h50.655l3.397 5.901-52.032 90.394h-6.827zm3.389-3.876l23.112-40.076H59.658l23.059 40.076zM59.658 91.395h46.177L82.742 51.277 59.658 91.395zm-54.692 0h46.252L28.127 51.28 4.966 91.395zm50.473-2.428l23.088-40.112H32.35l23.089 40.112zm54.641-.044l23.065-40.068-46.179-.003 23.114 40.071zM32.346 43.954h46.181L55.44 3.842 32.346 43.954z"/><g clip-path="url(#b)"><defs><path id="c" d="M-71.378-42.781h280v280h-280z"/></defs><clipPath id="d"><use xlink:href="#c" overflow="visible"/></clipPath></g></svg>